<svg width="212" height="220" viewBox="0 0 212 220" fill="none" xmlns="http://www.w3.org/2000/svg">
<g clip-path="url(#clip0)">
<path d="M199.544 86.3604C199.741 82.6233 200.524 63.866 196.556 61.5769C196.286 61.4142 195.984 61.3122 195.671 61.2778C195.357 61.2435 195.04 61.2776 194.741 61.378C192.747 62.0468 191.247 65.5314 189.511 69.5711C188.142 72.7564 186.439 76.7209 185.033 77.1874C184.94 77.2196 184.841 77.2295 184.744 77.2165C184.647 77.2034 184.555 77.1677 184.474 77.1122C182.467 75.9417 182.202 66.7119 181.995 59.2879C181.689 48.3023 181.311 41.5204 178.65 39.9804C178.384 39.818 178.083 39.7205 177.772 39.6958C177.462 39.6711 177.15 39.7199 176.861 39.8383C174.734 40.7061 173.369 45.219 171.321 52.5093C169.742 58.1291 167.777 65.1201 165.748 65.9461C165.57 66.0196 165.34 66.0648 164.98 65.8574C162.217 64.274 162.402 54.5375 162.551 46.7172C162.739 36.8938 162.718 30.7974 160.106 29.2825C159.841 29.1177 159.54 29.0217 159.228 29.0033C158.917 28.9849 158.606 29.0446 158.324 29.1772C156.203 30.1804 155.271 35.4575 153.93 43.97C153.124 49.0748 151.908 56.7898 150.508 57.4569C150.484 57.467 150.457 57.4803 150.349 57.4185C149.255 56.7864 148.137 51.695 149.079 42.3514L147.348 42.1842C147.1 44.6271 146.043 56.9419 149.475 58.9233C149.74 59.0875 150.041 59.183 150.351 59.2011C150.662 59.2192 150.972 59.1593 151.254 59.027C153.371 58.0154 154.303 52.7484 155.645 44.2409C156.449 39.1327 157.667 31.4144 159.069 30.7472C159.092 30.7355 159.119 30.7238 159.236 30.7874C161.098 31.8642 160.94 40.0824 160.815 46.6854C160.633 56.2363 160.46 65.2605 164.105 67.3623C164.445 67.5733 164.831 67.7008 165.229 67.7346C165.628 67.7683 166.029 67.7072 166.4 67.5563C169.217 66.4092 171.05 59.8865 172.991 52.9808C174.361 48.105 176.065 42.0388 177.507 41.4435C177.562 41.4201 177.624 41.395 177.77 41.4803C179.79 42.6507 180.048 51.8973 180.255 59.3297C180.561 70.3018 180.94 77.0737 183.601 78.612C183.895 78.7893 184.224 78.9008 184.565 78.9386C184.907 78.9764 185.252 78.9397 185.578 78.8311C187.726 78.1171 189.368 74.2964 191.098 70.25C192.401 67.2152 194.025 63.4363 195.28 63.0199C195.345 62.9966 195.416 62.9893 195.485 62.9986C195.553 63.0079 195.619 63.0336 195.676 63.0734C197.914 64.3659 198.264 77.4098 197.797 86.2601L199.544 86.3604Z" fill="url(#paint0_linear)"/>
<path d="M179.205 165.144V172.7C179.205 173.185 179.168 173.67 179.094 174.149C177.875 182.416 166.33 188.882 152.272 188.882C138.215 188.882 126.669 182.416 125.452 174.149C125.378 173.67 125.341 173.185 125.341 172.7V165.144C125.34 166.44 125.59 167.724 126.079 168.924C126.277 169.427 126.511 169.914 126.78 170.382C130.408 176.758 140.449 181.333 152.272 181.333C164.095 181.333 174.138 176.758 177.765 170.382C178.034 169.914 178.268 169.427 178.465 168.924C178.95 167.722 179.201 166.439 179.205 165.144Z" fill="url(#paint1_linear)"/>
<path d="M179.203 165.142C179.202 166.438 178.951 167.721 178.464 168.921C175.62 176.041 164.973 181.328 152.269 181.328C139.564 181.328 128.914 176.041 126.081 168.925C125.593 167.724 125.342 166.441 125.34 165.146C125.34 156.207 137.397 148.96 152.271 148.96C167.144 148.96 179.203 156.203 179.203 165.142Z" fill="#F3F6FF"/>
<path d="M146.839 184.251C146.839 185.03 146.514 185.664 146.113 185.664C145.712 185.664 145.389 185.03 145.389 184.251C145.389 183.472 145.713 182.838 146.113 182.838C146.513 182.838 146.839 183.472 146.839 184.251Z" fill="url(#paint2_linear)"/>
<path d="M152.921 186.415C153.473 186.415 153.921 185.782 153.921 185.002C153.921 184.221 153.473 183.589 152.921 183.589C152.369 183.589 151.921 184.221 151.921 185.002C151.921 185.782 152.369 186.415 152.921 186.415Z" fill="url(#paint3_linear)"/>
<path d="M160.789 184.291C160.789 185.072 160.406 185.704 159.935 185.704C159.463 185.704 159.08 185.072 159.08 184.291C159.08 183.51 159.463 182.878 159.935 182.878C160.406 182.878 160.789 183.51 160.789 184.291Z" fill="url(#paint4_linear)"/>
<path d="M169.679 165.142C169.677 165.997 169.511 166.843 169.19 167.635C167.32 172.327 160.295 175.813 151.919 175.813C143.544 175.813 136.518 172.327 134.652 167.635C134.331 166.843 134.165 165.997 134.163 165.142C134.163 159.248 142.114 154.471 151.919 154.471C161.725 154.471 169.679 159.248 169.679 165.142Z" fill="url(#paint5_linear)"/>
<path d="M162.635 165.145C162.634 165.661 162.534 166.172 162.34 166.65C161.213 169.483 156.973 171.584 151.919 171.584C146.866 171.584 142.629 169.483 141.501 166.65C141.308 166.172 141.208 165.661 141.207 165.145C141.207 161.589 146.003 158.706 151.913 158.706C157.822 158.706 162.635 161.589 162.635 165.145Z" fill="url(#paint6_linear)"/>
<path d="M157.285 165.142C157.285 165.4 157.235 165.655 157.138 165.894C156.574 167.311 154.462 168.362 151.924 168.362C149.387 168.362 147.277 167.311 146.714 165.894C146.617 165.655 146.567 165.4 146.567 165.142C146.567 163.363 148.965 161.92 151.919 161.92C154.873 161.92 157.285 163.363 157.285 165.142Z" fill="#F3F6FF"/>
<path d="M169.679 106.454V165.144C169.677 165.998 169.511 166.845 169.19 167.637C167.32 172.328 160.295 175.815 151.919 175.815C143.544 175.815 136.518 172.327 134.652 167.635C134.331 166.843 134.165 165.997 134.163 165.142V106.452C134.165 107.306 134.331 108.152 134.652 108.944C136.518 113.639 143.544 117.125 151.919 117.125C160.295 117.125 167.32 113.639 169.19 108.945C169.511 108.154 169.677 107.308 169.679 106.454Z" fill="url(#paint7_linear)"/>
<path d="M179.029 149.142C178.913 148.778 178.777 148.42 178.623 148.07C178.292 147.325 177.889 146.613 177.42 145.945C177.286 145.748 177.141 145.554 176.99 145.36C175.274 143.134 172.763 141.18 169.679 139.623V140.362C172.616 141.882 174.995 143.778 176.59 145.923C176.738 146.119 176.875 146.315 177.009 146.514C177.555 147.326 177.995 148.206 178.318 149.13C178.44 149.482 178.542 149.841 178.623 150.204C178.783 150.902 178.864 151.616 178.864 152.332C178.862 153.585 178.619 154.826 178.149 155.988C176.87 159.196 173.877 162.126 169.679 164.299C169.429 164.432 169.177 164.555 168.921 164.679C164.152 166.968 158.394 168.179 152.269 168.179C146.143 168.179 140.392 166.968 135.619 164.679C135.117 164.438 134.632 164.187 134.163 163.925C130.333 161.795 127.601 159.016 126.395 155.986C125.925 154.825 125.682 153.585 125.679 152.332C125.678 151.614 125.759 150.898 125.92 150.197C126.001 149.834 126.102 149.476 126.223 149.124C126.549 148.2 126.991 147.321 127.536 146.507C127.67 146.308 127.807 146.112 127.954 145.918C129.421 143.947 131.549 142.185 134.163 140.735V139.998C131.4 141.486 129.137 143.312 127.554 145.365C127.404 145.557 127.26 145.751 127.123 145.948C126.655 146.618 126.253 147.331 125.922 148.077C125.766 148.426 125.63 148.783 125.514 149.147C125.175 150.178 125.002 151.256 125 152.341C125.002 153.68 125.262 155.006 125.766 156.247C127.114 159.631 130.107 162.549 134.163 164.723C139.014 167.328 145.382 168.866 152.269 168.866C158.831 168.866 164.925 167.47 169.679 165.085C174.093 162.878 177.356 159.822 178.778 156.247C179.281 155.006 179.541 153.68 179.543 152.341C179.542 151.254 179.369 150.174 179.029 149.142Z" fill="url(#paint8_linear)"/>
<path d="M179.029 142.739C178.914 142.375 178.778 142.017 178.623 141.668C177.144 138.313 173.964 135.375 169.679 133.218V133.957C174.009 136.197 177.119 139.254 178.318 142.725C178.44 143.077 178.542 143.436 178.623 143.8C178.783 144.498 178.864 145.213 178.864 145.929C178.864 146.65 178.783 147.368 178.623 148.071C178.541 148.429 178.439 148.783 178.318 149.131C178.266 149.281 178.211 149.434 178.151 149.582C176.87 152.791 173.877 155.716 169.679 157.889C169.429 158.021 169.177 158.147 168.921 158.269C164.152 160.558 158.394 161.77 152.269 161.77C146.143 161.77 140.392 160.558 135.619 158.269C135.117 158.029 134.632 157.778 134.163 157.515C130.333 155.384 127.601 152.605 126.395 149.577C126.333 149.427 126.278 149.273 126.228 149.121C126.109 148.774 126.009 148.421 125.927 148.064C125.604 146.657 125.604 145.196 125.927 143.789C126.009 143.427 126.111 143.069 126.233 142.718C127.367 139.44 130.206 136.532 134.17 134.326V133.579C130.232 135.701 127.318 138.493 125.922 141.67C125.767 142.019 125.631 142.377 125.514 142.74C124.829 144.821 124.829 147.066 125.514 149.146C125.59 149.378 125.681 149.609 125.766 149.84C125.816 149.962 125.867 150.086 125.92 150.206C127.333 153.435 130.254 156.226 134.163 158.317C139.014 160.921 145.382 162.459 152.269 162.459C158.831 162.459 164.925 161.063 169.679 158.682C173.939 156.548 177.126 153.627 178.623 150.211C178.676 150.089 178.728 149.964 178.778 149.84C178.87 149.612 178.954 149.382 179.029 149.149C179.714 147.069 179.714 144.825 179.029 142.745V142.739Z" fill="url(#paint9_linear)"/>
<path d="M169.679 126.813V127.553C175.302 130.46 178.864 134.742 178.864 139.523C178.864 140.245 178.783 140.965 178.623 141.67C178.541 142.027 178.439 142.38 178.318 142.727C178.266 142.877 178.211 143.029 178.151 143.178C177.844 143.944 177.458 144.675 176.998 145.36C176.871 145.549 176.739 145.736 176.599 145.924C175.015 148.045 172.651 149.957 169.687 151.492C169.438 151.622 169.185 151.749 168.929 151.871C164.16 154.16 158.403 155.369 152.277 155.369C146.152 155.369 140.401 154.16 135.627 151.871C135.125 151.632 134.64 151.378 134.172 151.117C131.532 149.651 129.416 147.872 127.962 145.92C127.822 145.735 127.69 145.547 127.563 145.357C127.101 144.675 126.712 143.946 126.403 143.183C126.342 143.033 126.286 142.88 126.236 142.73C126.115 142.383 126.013 142.029 125.932 141.67C125.77 140.968 125.689 140.25 125.689 139.53C125.689 134.956 128.956 130.835 134.173 127.934V127.185C128.555 130.213 125.01 134.625 125.01 139.53C125.011 140.62 125.184 141.704 125.524 142.74C125.601 142.974 125.691 143.206 125.776 143.434C125.826 143.556 125.877 143.678 125.93 143.8C126.261 144.553 126.664 145.272 127.133 145.947C127.263 146.139 127.402 146.328 127.546 146.516C129.138 148.604 131.407 150.432 134.173 151.911C139.014 154.508 145.384 156.05 152.269 156.05C158.831 156.05 164.925 154.653 169.679 152.272C172.761 150.731 175.284 148.774 177.009 146.517C177.151 146.33 177.288 146.139 177.42 145.949C177.888 145.273 178.291 144.555 178.623 143.803C178.676 143.681 178.728 143.558 178.778 143.434C178.87 143.205 178.954 142.972 179.029 142.742C179.369 141.704 179.542 140.618 179.543 139.526C179.543 134.416 175.702 129.847 169.679 126.813Z" fill="url(#paint10_linear)"/>
<path d="M159.592 111.378C159.552 111.764 159.493 112.139 159.436 112.51C159.349 113.06 159.251 113.597 159.14 114.113C158.845 115.601 158.427 117.062 157.891 118.481C157.695 118.991 157.486 119.484 157.272 119.932C155.767 123.109 153.808 124.927 151.919 124.927C150.031 124.927 148.072 123.114 146.567 119.932C146.011 120.168 145.473 120.379 144.941 120.569C146.71 124.248 149.158 126.495 151.911 126.495C154.664 126.495 157.116 124.246 158.879 120.564C159.105 120.103 159.314 119.628 159.51 119.126C160.17 117.426 160.674 115.669 161.016 113.878C161.114 113.351 161.206 112.806 161.287 112.254C161.425 111.352 161.529 110.426 161.599 109.475C160.969 110.111 160.298 110.748 159.592 111.378ZM161.731 105.098C161.143 104.456 160.51 103.811 159.835 103.163C159.898 104.079 159.927 105.027 159.927 106.006C159.927 106.984 159.898 107.923 159.835 108.848C160.512 108.203 161.143 107.556 161.731 106.915C161.731 106.614 161.743 106.313 161.743 106.014C161.743 105.715 161.738 105.397 161.731 105.098ZM144.703 114.113C144.594 113.597 144.496 113.06 144.414 112.51C144.35 112.139 144.293 111.759 144.246 111.373C143.546 110.742 142.877 110.111 142.239 109.48C142.307 110.431 142.411 111.356 142.55 112.254C142.626 112.806 142.718 113.351 142.823 113.878C143.162 115.67 143.662 117.428 144.315 119.131C144.842 118.941 145.386 118.722 145.946 118.481C145.415 117.061 144.999 115.6 144.703 114.113Z" fill="url(#paint11_linear)"/>
<path d="M161.609 102.528C160.974 101.89 160.305 101.255 159.602 100.623C159.555 100.244 159.503 99.8626 159.446 99.4964C159.36 98.9463 159.261 98.4095 159.15 97.8895C158.855 96.4035 158.437 94.9444 157.901 93.5271C157.705 93.0104 157.496 92.5238 157.282 92.069C155.777 88.8921 153.818 87.0745 151.929 87.0745C150.041 87.0745 148.082 88.8938 146.577 92.069C146.353 92.5261 146.145 93.0121 145.951 93.5271C145.418 94.9454 145 96.4042 144.701 97.8895C144.593 98.4095 144.494 98.9463 144.412 99.4964C144.348 99.8676 144.297 100.244 144.245 100.628C144.134 101.446 144.052 102.287 144.001 103.158C143.937 104.075 143.909 105.028 143.909 106.001C143.909 106.974 143.937 107.924 144.001 108.843C143.331 108.193 142.694 107.546 142.11 106.91C142.11 106.609 142.099 106.308 142.099 106.004C142.099 105.7 142.099 105.392 142.11 105.093C142.127 104.22 142.167 103.359 142.237 102.523C142.306 101.571 142.405 100.643 142.549 99.7472C142.624 99.1971 142.716 98.6553 142.821 98.1303C143.158 96.337 143.658 94.5779 144.313 92.875C144.516 92.3745 144.726 91.894 144.944 91.4336C146.714 87.7551 149.161 85.5078 151.914 85.5078C154.668 85.5078 157.12 87.7568 158.883 91.4387C159.109 91.8985 159.318 92.38 159.513 92.875C160.174 94.5775 160.677 96.3365 161.019 98.1303C161.123 98.6553 161.21 99.1971 161.29 99.7472C161.429 100.649 161.536 101.576 161.609 102.528Z" fill="url(#paint12_linear)"/>
<path d="M140.198 104.687C140.546 105.118 140.915 105.557 141.304 106.004C141.563 105.703 141.841 105.397 142.125 105.093C142.142 104.22 142.182 103.359 142.253 102.523C141.517 103.244 140.829 103.969 140.198 104.687ZM150.402 95.8415C149.576 96.3989 148.745 96.9914 147.91 97.6189C147.179 98.1707 146.449 98.7532 145.718 99.3663C145.476 99.5703 145.227 99.7809 144.977 99.9966C144.728 100.212 144.486 100.428 144.25 100.637C144.139 101.455 144.057 102.296 144.006 103.167C144.711 102.486 145.464 101.794 146.255 101.109C147.047 100.423 147.853 99.7709 148.639 99.1556C149.392 98.5687 150.131 98.0286 150.865 97.5169C151.218 97.2712 151.571 97.0371 151.919 96.8063C151.406 96.4619 150.904 96.1408 150.402 95.8415ZM157.274 92.0693C155.42 92.8625 153.631 93.7972 151.921 94.865C152.423 95.1744 152.925 95.5004 153.436 95.8415C154.865 94.9708 156.351 94.1976 157.884 93.5274C157.695 93.0124 157.486 92.5258 157.272 92.0693H157.274Z" fill="url(#paint13_linear)"/>
<path d="M168.742 99.9687C168.528 100.43 168.285 100.895 168.008 101.372C167.072 103.007 165.995 104.558 164.788 106.005C164.428 106.44 164.052 106.881 163.665 107.322C163.023 108.038 162.34 108.759 161.611 109.476C160.975 110.111 160.305 110.749 159.604 111.379C159.366 111.59 159.124 111.805 158.881 112.014C158.639 112.223 158.379 112.441 158.14 112.646C157.411 113.252 156.683 113.834 155.954 114.384C155.118 115.016 154.281 115.606 153.455 116.163C152.953 116.497 152.438 116.832 151.934 117.139C150.75 117.875 149.53 118.55 148.278 119.162C147.706 119.443 147.145 119.699 146.59 119.933C146.035 120.167 145.496 120.38 144.964 120.57C142.835 121.331 140.874 121.732 139.208 121.732C137.542 121.732 136.172 121.336 135.194 120.495C133.25 118.811 133.354 115.721 135.107 112.034C135.321 111.58 135.57 111.108 135.841 110.633C136.779 108.999 137.86 107.45 139.069 106.005C139.427 106.44 139.804 106.881 140.197 107.322C139.209 108.535 138.314 109.82 137.52 111.168C137.243 111.655 136.994 112.12 136.774 112.576C135.242 115.753 135.143 118.221 136.48 119.378C137.816 120.535 140.674 120.45 144.328 119.127C144.855 118.937 145.399 118.718 145.959 118.477C147.49 117.804 148.974 117.031 150.402 116.163C150.904 115.862 151.406 115.541 151.924 115.206C152.271 114.976 152.623 114.74 152.976 114.494C153.71 113.983 154.452 113.438 155.203 112.857C155.991 112.245 156.789 111.595 157.586 110.902C158.384 110.21 159.137 109.526 159.836 108.839C160.514 108.194 161.144 107.547 161.733 106.906C162.017 106.605 162.288 106.304 162.549 106.005C162.942 105.559 163.312 105.118 163.66 104.682C164.649 103.471 165.544 102.185 166.336 100.836C166.621 100.352 166.868 99.8801 167.089 99.4253C167.904 97.7314 168.315 96.2333 168.315 95.031C168.315 93.9843 168.003 93.1633 167.384 92.6233C166.765 92.0832 165.805 91.8157 164.595 91.8157C163.208 91.8157 161.484 92.1718 159.528 92.8774C159.333 92.3758 159.124 91.9009 158.898 91.4411C163.15 89.9128 166.72 89.8276 168.662 91.5097C170.604 93.1918 170.5 96.2818 168.742 99.9687Z" fill="url(#paint14_linear)"/>
<path d="M135.189 91.5074C134.217 92.3434 133.755 93.5423 133.755 94.9786C133.755 96.4149 134.217 98.1204 135.093 99.968C135.307 100.425 135.557 100.894 135.828 101.371C136.349 101.18 136.91 101.005 137.5 100.829C137.223 100.349 136.973 99.8778 136.754 99.4229C135.222 96.256 135.123 93.7764 136.46 92.621C137.796 91.4656 140.653 91.5475 144.308 92.8751C144.511 92.3746 144.721 91.8942 144.939 91.4338C140.7 89.9105 137.132 89.8253 135.189 91.5074ZM168.742 112.034C168.528 111.579 168.285 111.107 168.008 110.633C167.071 108.999 165.994 107.45 164.788 106.004C164.428 106.439 164.052 106.88 163.665 107.322C164.653 108.535 165.547 109.82 166.341 111.168C166.619 111.654 166.873 112.124 167.094 112.58C168.621 115.746 168.725 118.225 167.389 119.382C166.052 120.54 163.19 120.454 159.527 119.127C159.002 118.936 158.458 118.721 157.896 118.481C156.364 117.807 154.878 117.032 153.448 116.162C152.946 116.496 152.431 116.831 151.928 117.139C153.639 118.203 155.428 119.137 157.28 119.933C157.831 120.168 158.374 120.379 158.9 120.565C161.029 121.33 162.989 121.735 164.655 121.735C166.321 121.735 167.698 121.339 168.67 120.498C170.599 118.811 170.5 115.721 168.742 112.034Z" fill="url(#paint15_linear)"/>
<path d="M163.658 104.682C163.311 105.119 162.94 105.56 162.548 106.004C162.287 105.703 162.016 105.402 161.731 105.098C161.143 104.456 160.51 103.811 159.835 103.164C159.135 102.478 158.383 101.791 157.585 101.1C156.787 100.41 155.989 99.7625 155.196 99.1472C154.45 98.5653 153.708 98.0191 152.97 97.5086C152.622 97.2628 152.269 97.0287 151.923 96.798C151.407 96.4635 150.904 96.1408 150.4 95.8415C148.972 94.9694 147.486 94.1962 145.953 93.5274C146.15 93.0113 146.359 92.5253 146.578 92.0693C148.429 92.8671 150.219 93.8016 151.931 94.865C152.433 95.1744 152.935 95.5004 153.446 95.8415C154.283 96.3916 155.119 96.9886 155.946 97.6189C156.675 98.1763 157.404 98.756 158.132 99.3579C158.374 99.5619 158.624 99.7726 158.873 99.9883C159.122 100.204 159.358 100.415 159.595 100.624C160.301 101.256 160.97 101.891 161.603 102.528C162.333 103.249 163.018 103.967 163.658 104.682Z" fill="url(#paint16_linear)"/>
<path d="M151.923 115.206C151.412 115.54 150.904 115.861 150.4 116.162C149.574 115.605 148.741 115.015 147.908 114.383C147.179 113.833 146.451 113.251 145.722 112.646C145.479 112.44 145.23 112.23 144.981 112.014C144.732 111.798 144.489 111.589 144.253 111.373C143.553 110.743 142.884 110.112 142.246 109.481C141.517 108.757 140.834 108.038 140.198 107.322C139.805 106.881 139.429 106.439 139.071 106.004C137.861 104.557 136.778 103.007 135.836 101.373C136.358 101.182 136.918 101.007 137.509 100.831C138.302 102.182 139.197 103.472 140.185 104.689C140.533 105.12 140.902 105.559 141.291 106.006C141.557 106.305 141.828 106.606 142.112 106.912C142.696 107.548 143.331 108.195 144.002 108.845C144.708 109.528 145.461 110.218 146.252 110.904C147.043 111.589 147.849 112.241 148.642 112.858C149.388 113.438 150.128 113.985 150.869 114.495C151.222 114.739 151.573 114.975 151.923 115.206Z" fill="url(#paint17_linear)"/>
<path d="M140.192 128.519C141.31 128.519 142.216 127.613 142.216 126.496C142.216 125.378 141.31 124.473 140.192 124.473C139.074 124.473 138.168 125.378 138.168 126.496C138.168 127.613 139.074 128.519 140.192 128.519Z" fill="url(#paint18_linear)"/>
<path d="M164.23 87.4524C165.302 87.1381 165.917 86.014 165.602 84.9418C165.288 83.8695 164.163 83.2551 163.091 83.5695C162.018 83.8838 161.403 85.0079 161.718 86.0802C162.032 87.1524 163.157 87.7668 164.23 87.4524Z" fill="url(#paint19_linear)"/>
<path d="M116.433 44.9348C116.027 44.8427 115.602 44.8834 115.221 45.0509C115.151 45.0816 115.083 45.1167 115.015 45.1539L114.241 45.5923L44.6835 85.7545C44.0263 86.1341 43.4805 86.6798 43.101 87.3369C42.7215 87.994 42.5217 88.7393 42.5215 89.4981V143.517C42.5178 144.13 42.7367 144.725 43.1377 145.189C43.3972 145.489 43.7209 145.728 44.0849 145.886L42.026 145.189C41.8518 145.149 41.6821 145.091 41.5195 145.016V145.016C41.0826 144.818 40.7086 144.505 40.4385 144.109C40.1515 143.686 39.9986 143.186 40 142.675V88.6586C40.001 87.9001 40.2013 87.1551 40.5807 86.4981C40.96 85.8412 41.5053 85.2953 42.162 84.9151L112.495 44.3167C112.756 44.1648 113.047 44.0746 113.348 44.053C113.649 44.0313 113.95 44.0788 114.23 44.1917H114.252L116.433 44.9348Z" fill="url(#paint20_linear)"/>
<path d="M118 46.8782V102.089C118 102.796 117.814 103.491 117.461 104.103C117.107 104.715 116.598 105.223 115.985 105.576L46.384 145.745C46.041 145.947 45.6551 146.066 45.2576 146.091C44.8602 146.115 44.4625 146.046 44.0971 145.888H44.0839C43.7197 145.729 43.3959 145.49 43.1367 145.188C42.7357 144.724 42.5168 144.13 42.5206 143.516V89.4975C42.5207 88.7387 42.7206 87.9934 43.1 87.3363C43.4795 86.6792 44.0253 86.1334 44.6825 85.7539L114.24 45.5982L115.014 45.1599C115.082 45.1226 115.15 45.0876 115.22 45.0569C115.601 44.8894 116.026 44.8486 116.432 44.9407L116.831 45.0788C117.179 45.234 117.474 45.4865 117.682 45.8058C117.889 46.1251 118 46.4976 118 46.8782Z" fill="#F3F6FF"/>
<path d="M53.84 71.7545L61.3892 67.3994L61.4068 128.37L53.8597 132.728L53.84 71.7545Z" fill="url(#paint21_linear)"/>
<path d="M68.9407 45.2214L76.4877 41L76.4987 119.672L68.9516 124.029L68.9407 45.2214Z" fill="url(#paint22_linear)"/>
<path d="M84.0392 80.452L91.5863 76.0947L91.5972 110.948L84.0502 115.304L84.0392 80.452Z" fill="url(#paint23_linear)"/>
<path d="M99.1311 84.8162L106.678 80.459L106.687 102.25L99.1399 106.605L99.1311 84.8162Z" fill="url(#paint24_linear)"/>
<path d="M112.453 108.408L112.159 108.714L111.542 107.711C111.542 107.711 111.607 106.795 111.792 105.347C111.904 104.338 111.934 103.322 111.881 102.309L112.374 101.473C112.433 102.073 112.446 102.676 112.414 103.278C112.329 105.032 112.224 105.798 112.309 107.205C112.335 107.608 112.383 108.01 112.453 108.408Z" fill="url(#paint25_linear)"/>
<path d="M118.34 127.215C118.528 127.721 118.608 128.26 118.575 128.799C118.509 129.635 117.841 129.205 116.038 128.809C114.859 128.55 113.892 128.271 114.031 127.889C114.169 127.508 116.707 127.14 116.707 127.14L117.508 127.057L118.34 127.215Z" fill="#012860"/>
<path d="M116.095 129.437C116.286 129.95 116.368 130.497 116.336 131.044C116.267 131.898 115.59 131.458 113.76 131.055C112.564 130.793 111.585 130.509 111.731 130.121C111.876 129.733 114.439 129.362 114.439 129.362L115.252 129.276L116.095 129.437Z" fill="#012860"/>
<path d="M120.256 106.948C120.256 106.948 120.347 108.864 119.718 109.791C119.089 110.717 118.405 114.305 118.34 117.843C118.274 121.381 118.34 127.207 118.34 127.207C118.062 127.362 117.743 127.429 117.426 127.401C117.165 127.384 116.915 127.29 116.707 127.132L115.31 107.814L115.884 106.169L120.256 106.948Z" fill="url(#paint26_linear)"/>
<path d="M118.035 108.871C118.035 108.871 118.125 110.814 117.486 111.756C116.847 112.697 116.148 116.336 116.088 119.929C116.028 123.522 116.088 129.436 116.088 129.436C115.806 129.594 115.483 129.664 115.161 129.635C114.897 129.616 114.643 129.521 114.432 129.361L113.014 109.749L113.597 108.077L118.035 108.871Z" fill="#F3F6FF"/>
<path d="M113.441 93.4521C113.182 93.7149 113.014 94.0545 112.963 94.4202C112.963 94.4202 112.714 94.773 112.575 94.7547C112.436 94.7363 111.466 94.3015 111.466 94.3015C111.466 94.3015 111.756 93.8283 111.521 93.5407C111.439 93.4415 111.39 93.3183 111.382 93.1892C111.374 93.0601 111.408 92.9319 111.478 92.8234C111.611 92.6343 111.77 92.4653 111.951 92.3218C112.237 92.0777 112.558 91.8703 112.62 91.9957C112.729 92.2198 112.202 92.8184 112.321 92.8318C112.807 92.8362 113.292 92.78 113.764 92.6646C113.764 92.6646 113.857 93.0508 113.441 93.4521Z" fill="url(#paint27_linear)"/>
<path d="M111.603 102.016C111.603 102.016 111.031 100.896 111.01 97.8072C110.988 94.7189 111.01 94.4196 111.01 94.4196C111.346 94.3031 111.7 94.2465 112.056 94.2524C112.421 94.276 112.78 94.3515 113.123 94.4764L113.008 96.63L111.603 102.016Z" fill="url(#paint28_linear)"/>
<path d="M113.945 92.6074C113.99 93.0974 113.99 93.5905 113.945 94.0805C113.865 94.644 114.791 95.1021 114.823 95.0837C114.855 95.0653 115.984 93.9016 115.984 93.9016L115.713 92.1944C115.713 92.1944 115.679 91.9101 115.597 91.8784C115.515 91.8466 114.37 91.6543 114.37 91.6543L113.945 92.6074Z" fill="url(#paint29_linear)"/>
<path d="M115.426 91.5742C115.069 92.1811 114.412 92.4955 113.771 92.656C113.299 92.7714 112.814 92.8276 112.328 92.8232C112.209 92.8232 112.736 92.2179 112.627 91.9872C112.569 91.8618 112.247 92.0691 111.958 92.3132C111.923 91.8866 111.944 91.4573 112.018 91.0358C112.098 90.5701 112.216 90.112 112.373 89.6663L113.795 88.7852C113.795 88.7852 116.272 90.1245 115.426 91.5742Z" fill="url(#paint30_linear)"/>
<path d="M120.265 107.081C120.265 107.081 119.954 108.216 118.134 109.126C116.314 110.036 112.806 109.95 112.806 109.95C112.658 109.444 112.54 108.929 112.453 108.409C112.384 108.012 112.336 107.612 112.309 107.21C112.224 105.804 112.329 105.036 112.415 103.284C112.446 102.682 112.433 102.078 112.375 101.478C112.298 100.716 112.162 100.047 112.074 99.1488C111.926 97.6439 112.743 95.2729 113.244 94.6542C113.746 94.0356 115.302 93.4721 115.302 93.4721C115.951 93.3275 116.616 93.2668 117.281 93.2915C117.637 93.3199 117.931 93.5473 118.152 93.9436L118.162 93.9653C118.191 94.0172 118.217 94.0724 118.244 94.1326C118.246 94.1404 118.25 94.1477 118.254 94.1543C118.477 94.6726 118.599 95.4134 118.589 96.328C118.589 96.4601 118.589 96.5938 118.589 96.7343C118.53 98.1589 118.851 99.52 119.234 100.851C119.415 101.481 119.608 102.105 119.781 102.727C120.322 104.667 120.265 107.081 120.265 107.081Z" fill="url(#paint31_linear)"/>
<path d="M114.685 95.7258C114.625 95.5768 114.532 95.4438 114.412 95.3375C114.292 95.2313 114.148 95.1548 113.993 95.1142C113.838 95.0737 113.675 95.0703 113.518 95.1042C113.362 95.1381 113.215 95.2084 113.091 95.3095C112.776 95.572 112.442 96.0268 112.162 96.8144C111.373 99.0299 111.02 101.859 111.881 102.31C113.673 103.249 114.39 99.3007 114.78 97.5183C114.932 96.9251 114.899 96.2996 114.685 95.7258Z" fill="url(#paint32_linear)"/>
<path d="M119.234 100.859C118.851 99.5217 118.53 98.1673 118.589 96.7427C118.632 95.6291 118.512 94.7462 118.254 94.1543C118.6 94.8816 119.726 97.3179 119.951 98.7675C120.078 99.5718 119.686 100.311 119.234 100.859Z" fill="url(#paint33_linear)"/>
<path d="M120.265 107.081C120.265 107.081 119.954 108.216 118.134 109.126C119.825 107.535 119.256 104.837 117.082 104.496C114.907 104.155 117.185 102.237 117.978 101.615C118.771 100.993 117.933 99.4694 116.742 99.4259C115.551 99.3825 118.604 96.3359 118.604 96.3359C118.604 96.468 118.604 96.6018 118.604 96.7422C118.545 98.1669 118.866 99.5279 119.25 100.859C119.43 101.489 119.623 102.113 119.796 102.735C120.322 104.666 120.265 107.081 120.265 107.081Z" fill="url(#paint34_linear)"/>
<path d="M111.712 87.3651C111.712 87.3651 111.386 88.8566 112.366 89.6659C113.346 90.4752 113.351 90.5889 113.44 90.945C113.487 91.1852 113.454 91.4341 113.346 91.654C113.346 91.654 114.086 90.8731 114.283 91.129C114.481 91.3848 113.982 92.1322 114.673 92.2994C115.364 92.4666 116.483 92.0252 116.837 91.2577C117.05 90.793 117.125 90.2773 117.055 89.7712C117.055 89.7712 117.144 88.365 116.332 87.7831C115.742 87.3584 115.613 87.7112 115.133 87.4487C114.966 87.3584 115.115 86.82 114.497 86.82C114.029 86.82 113.828 87.3601 113.29 87.1043C112.851 86.8969 113.433 86.3017 112.836 86.0308C112.239 85.7599 111.712 87.3651 111.712 87.3651Z" fill="#012860"/>
</g>
<defs>
<linearGradient id="paint0_linear" x1="199.739" y1="57.681" x2="147.002" y2="57.681" gradientUnits="userSpaceOnUse">
<stop stop-color="#E9F2FF"/>
<stop offset="0.28" stop-color="#C7DBFF"/>
<stop offset="0.56" stop-color="#ABC8FF"/>
<stop offset="0.81" stop-color="#9ABDFF"/>
<stop offset="1" stop-color="#94B9FF"/>
</linearGradient>
<linearGradient id="paint1_linear" x1="125.341" y1="177.014" x2="179.205" y2="177.014" gradientUnits="userSpaceOnUse">
<stop stop-color="#6AAEFF"/>
<stop offset="1" stop-color="#005EFF"/>
</linearGradient>
<linearGradient id="paint2_linear" x1="145.389" y1="184.251" x2="146.839" y2="184.251" gradientUnits="userSpaceOnUse">
<stop stop-color="#E9F4FF"/>
<stop offset="1" stop-color="#D4E3FF"/>
</linearGradient>
<linearGradient id="paint3_linear" x1="1259.94" y1="1899.27" x2="1283.84" y2="1899.27" gradientUnits="userSpaceOnUse">
<stop stop-color="#E9F4FF"/>
<stop offset="1" stop-color="#D4E3FF"/>
</linearGradient>
<linearGradient id="paint4_linear" x1="1179.08" y1="1886.54" x2="1196.55" y2="1886.54" gradientUnits="userSpaceOnUse">
<stop stop-color="#E9F4FF"/>
<stop offset="1" stop-color="#D4E3FF"/>
</linearGradient>
<linearGradient id="paint5_linear" x1="16042.2" y1="10577.6" x2="23582.8" y2="10577.6" gradientUnits="userSpaceOnUse">
<stop stop-color="#E9F4FF"/>
<stop offset="1" stop-color="#D4E3FF"/>
</linearGradient>
<linearGradient id="paint6_linear" x1="10641.4" y1="6448.47" x2="13386.3" y2="6448.47" gradientUnits="userSpaceOnUse">
<stop stop-color="#6AAEFF"/>
<stop offset="1" stop-color="#005EFF"/>
</linearGradient>
<linearGradient id="paint7_linear" x1="151.933" y1="129.191" x2="151.866" y2="164.69" gradientUnits="userSpaceOnUse">
<stop stop-color="#E9EFFF"/>
<stop offset="0.17" stop-color="#CBDEFF"/>
<stop offset="0.35" stop-color="#B3D1FF"/>
<stop offset="0.54" stop-color="#A2C7FF"/>
<stop offset="0.75" stop-color="#97C1FF"/>
<stop offset="1" stop-color="#94BFFF"/>
</linearGradient>
<linearGradient id="paint8_linear" x1="21567.9" y1="12514.6" x2="39352.6" y2="12514.6" gradientUnits="userSpaceOnUse">
<stop stop-color="#6AAEFF"/>
<stop offset="1" stop-color="#005EFF"/>
</linearGradient>
<linearGradient id="paint9_linear" x1="125" y1="147.835" x2="179.543" y2="147.835" gradientUnits="userSpaceOnUse">
<stop stop-color="#FF0007"/>
<stop offset="1" stop-color="#FFAAAC"/>
</linearGradient>
<linearGradient id="paint10_linear" x1="125" y1="141.431" x2="179.543" y2="141.431" gradientUnits="userSpaceOnUse">
<stop stop-color="#F22AFF"/>
<stop offset="1" stop-color="#6C00E9"/>
</linearGradient>
<linearGradient id="paint11_linear" x1="9820.9" y1="4477.47" x2="12094.3" y2="4477.47" gradientUnits="userSpaceOnUse">
<stop stop-color="#F22AFF"/>
<stop offset="1" stop-color="#6C00E9"/>
</linearGradient>
<linearGradient id="paint12_linear" x1="9807.89" y1="1996.68" x2="12082.1" y2="1996.68" gradientUnits="userSpaceOnUse">
<stop stop-color="#F22AFF"/>
<stop offset="1" stop-color="#6C00E9"/>
</linearGradient>
<linearGradient id="paint13_linear" x1="8699.38" y1="1388.45" x2="10570.7" y2="1388.45" gradientUnits="userSpaceOnUse">
<stop stop-color="#FF0007"/>
<stop offset="1" stop-color="#FFAAAC"/>
</linearGradient>
<linearGradient id="paint14_linear" x1="16316.4" y1="4327.42" x2="24205.9" y2="4327.42" gradientUnits="userSpaceOnUse">
<stop stop-color="#FF0007"/>
<stop offset="1" stop-color="#FFAAAC"/>
</linearGradient>
<linearGradient id="paint15_linear" x1="16319.5" y1="4327.87" x2="24211.1" y2="4327.87" gradientUnits="userSpaceOnUse">
<stop stop-color="#6AAEFF"/>
<stop offset="1" stop-color="#005EFF"/>
</linearGradient>
<linearGradient id="paint16_linear" x1="9324.65" y1="1388.45" x2="11198.8" y2="1388.45" gradientUnits="userSpaceOnUse">
<stop stop-color="#6AAEFF"/>
<stop offset="1" stop-color="#005EFF"/>
</linearGradient>
<linearGradient id="paint17_linear" x1="7502.22" y1="2394.38" x2="9049.27" y2="2394.38" gradientUnits="userSpaceOnUse">
<stop stop-color="#6AAEFF"/>
<stop offset="1" stop-color="#005EFF"/>
</linearGradient>
<linearGradient id="paint18_linear" x1="2048.26" y1="1165.41" x2="2146.22" y2="1165.41" gradientUnits="userSpaceOnUse">
<stop stop-color="#F22AFF"/>
<stop offset="1" stop-color="#6C00E9"/>
</linearGradient>
<linearGradient id="paint19_linear" x1="2639.6" y1="132.445" x2="2737.56" y2="132.445" gradientUnits="userSpaceOnUse">
<stop stop-color="#6AAEFF"/>
<stop offset="1" stop-color="#005EFF"/>
</linearGradient>
<linearGradient id="paint20_linear" x1="40" y1="31497.8" x2="26683.9" y2="31497.8" gradientUnits="userSpaceOnUse">
<stop stop-color="#6AAEFF"/>
<stop offset="1" stop-color="#005EFF"/>
</linearGradient>
<linearGradient id="paint21_linear" x1="57.6157" y1="76.5172" x2="57.6332" y2="125.742" gradientUnits="userSpaceOnUse">
<stop stop-color="#E9EFFF"/>
<stop offset="0.09" stop-color="#DFEAFF"/>
<stop offset="0.49" stop-color="#B7D2FF"/>
<stop offset="0.81" stop-color="#9DC4FF"/>
<stop offset="1" stop-color="#94BFFF"/>
</linearGradient>
<linearGradient id="paint22_linear" x1="1200.15" y1="11210.1" x2="189.441" y2="35443.5" gradientUnits="userSpaceOnUse">
<stop stop-color="#FF0007"/>
<stop offset="1" stop-color="#FFAAAC"/>
</linearGradient>
<linearGradient id="paint23_linear" x1="1716.65" y1="10253.9" x2="2760.69" y2="15349.7" gradientUnits="userSpaceOnUse">
<stop stop-color="#F22AFF"/>
<stop offset="1" stop-color="#6C00E9"/>
</linearGradient>
<linearGradient id="paint24_linear" x1="2259.05" y1="7293.82" x2="2511.6" y2="9125.37" gradientUnits="userSpaceOnUse">
<stop stop-color="#E9EFFF"/>
<stop offset="0.09" stop-color="#DFEAFF"/>
<stop offset="0.49" stop-color="#B7D2FF"/>
<stop offset="0.81" stop-color="#9DC4FF"/>
<stop offset="1" stop-color="#94BFFF"/>
</linearGradient>
<linearGradient id="paint25_linear" x1="388.365" y1="3085.36" x2="393.331" y2="3085.36" gradientUnits="userSpaceOnUse">
<stop stop-color="#FF0007"/>
<stop offset="1" stop-color="#FFAAAC"/>
</linearGradient>
<linearGradient id="paint26_linear" x1="115.31" y1="116.795" x2="120.261" y2="116.795" gradientUnits="userSpaceOnUse">
<stop stop-color="#E9F2FF"/>
<stop offset="0.55" stop-color="#DAEAFF"/>
<stop offset="1" stop-color="#D4E7FF"/>
</linearGradient>
<linearGradient id="paint27_linear" x1="835.732" y1="1048.09" x2="869.987" y2="1048.09" gradientUnits="userSpaceOnUse">
<stop stop-color="#FF7F83"/>
<stop offset="1" stop-color="#FFD4D5"/>
</linearGradient>
<linearGradient id="paint28_linear" x1="749.096" y1="2969.9" x2="776.06" y2="2969.9" gradientUnits="userSpaceOnUse">
<stop stop-color="#6AAEFF"/>
<stop offset="1" stop-color="#005EFF"/>
</linearGradient>
<linearGradient id="paint29_linear" x1="113.94" y1="93.3665" x2="115.984" y2="93.3665" gradientUnits="userSpaceOnUse">
<stop stop-color="#FFD4D5"/>
<stop offset="1" stop-color="#FF7F83"/>
</linearGradient>
<linearGradient id="paint30_linear" x1="1232.45" y1="1407.57" x2="1312.61" y2="1407.57" gradientUnits="userSpaceOnUse">
<stop stop-color="#FFD4D5"/>
<stop offset="1" stop-color="#FF7F83"/>
</linearGradient>
<linearGradient id="paint31_linear" x1="2631.55" y1="6613.5" x2="3034.53" y2="6613.5" gradientUnits="userSpaceOnUse">
<stop stop-color="#6AAEFF"/>
<stop offset="1" stop-color="#005EFF"/>
</linearGradient>
<linearGradient id="paint32_linear" x1="114.094" y1="96.1823" x2="111.771" y2="101.945" gradientUnits="userSpaceOnUse">
<stop stop-color="#6AAEFF"/>
<stop offset="1" stop-color="#005EFF"/>
</linearGradient>
<linearGradient id="paint33_linear" x1="118.256" y1="97.5068" x2="119.976" y2="97.5068" gradientUnits="userSpaceOnUse">
<stop stop-color="#005EFF"/>
<stop offset="1" stop-color="#6AAEFF"/>
</linearGradient>
<linearGradient id="paint34_linear" x1="116.165" y1="102.732" x2="120.267" y2="102.732" gradientUnits="userSpaceOnUse">
<stop stop-color="#6A8CFF"/>
<stop offset="1" stop-color="#0011BF"/>
</linearGradient>
<clipPath id="clip0">
<path d="M0 0H200C206.627 0 212 5.37258 212 12V208C212 214.627 206.627 220 200 220H0V0Z" fill="white"/>
</clipPath>
</defs>
</svg>
