<svg width="212" height="220" viewBox="0 0 212 220" fill="none" xmlns="http://www.w3.org/2000/svg">
<g clip-path="url(#clip0)">
<path opacity="0.35" d="M186.82 67.7309L183.663 67.9436C183.306 66.5499 182.828 65.1903 182.233 63.8804L184.85 62.1243C185.02 62.0095 185.165 61.8623 185.278 61.6911C185.391 61.5199 185.468 61.3281 185.506 61.1267C185.544 60.9253 185.542 60.7184 185.5 60.5179C185.458 60.3174 185.376 60.1272 185.26 59.9584L182.213 55.4675C181.979 55.1225 181.62 54.8832 181.211 54.8016C180.803 54.72 180.379 54.8026 180.031 55.0314L177.379 56.8012C176.371 55.7689 175.277 54.8245 174.108 53.9783L175.506 51.1071C175.686 50.7305 175.709 50.2983 175.571 49.9047C175.433 49.5112 175.144 49.1883 174.769 49.0067L169.855 46.5888C169.67 46.4958 169.469 46.4401 169.263 46.4251C169.056 46.4101 168.849 46.4359 168.653 46.5012C168.457 46.5664 168.275 46.6698 168.119 46.8054C167.963 46.9409 167.835 47.106 167.743 47.2911L166.335 50.1718C164.941 49.7685 163.516 49.4863 162.074 49.3283L161.829 46.0979C161.794 45.677 161.597 45.2863 161.277 45.0097C160.958 44.7331 160.544 44.5925 160.122 44.6182L154.629 44.9423C154.422 44.9526 154.219 45.0042 154.032 45.0941C153.845 45.1841 153.678 45.3104 153.541 45.4658C153.404 45.6212 153.299 45.8025 153.232 45.999C153.166 46.1956 153.14 46.4034 153.155 46.6102L153.401 49.8502C151.987 50.1821 150.605 50.6368 149.27 51.2089L147.418 48.5081C147.177 48.1575 146.809 47.9147 146.392 47.8313C145.975 47.7478 145.542 47.8304 145.185 48.0613L140.588 51.0802C140.413 51.1944 140.263 51.3425 140.147 51.5158C140.03 51.689 139.95 51.8839 139.91 52.0888C139.871 52.2937 139.873 52.5045 139.916 52.7086C139.959 52.9127 140.043 53.1061 140.163 53.2771L142.021 55.9786C140.967 56.9757 140.002 58.0632 139.137 59.2287L136.164 57.7907C135.359 57.4017 134.391 57.7234 134.002 58.5103L131.569 63.4336C131.477 63.6228 131.424 63.8283 131.412 64.0383C131.401 64.2482 131.431 64.4584 131.501 64.6565C131.572 64.8547 131.681 65.0368 131.822 65.1924C131.964 65.3479 132.135 65.4738 132.325 65.5626L135.278 66.9791C134.872 68.3789 134.593 69.8124 134.444 71.2621L131.175 71.4825C130.964 71.4943 130.758 71.5476 130.569 71.6396C130.379 71.7315 130.21 71.8602 130.07 72.0181C129.931 72.176 129.824 72.36 129.756 72.5595C129.688 72.759 129.66 72.97 129.675 73.1802L130.092 78.6665C130.158 79.544 130.938 80.204 131.833 80.1408L135.075 79.9127C135.435 81.3365 135.922 82.725 136.53 84.0617L133.863 85.8422C133.688 85.9574 133.537 86.1065 133.42 86.2809C133.303 86.4552 133.223 86.6512 133.183 86.8572C133.143 87.0633 133.145 87.2752 133.188 87.4805C133.231 87.6859 133.315 87.8805 133.435 88.0528L136.586 92.5913C136.832 92.9407 137.205 93.1799 137.626 93.2578C138.046 93.3357 138.48 93.2462 138.835 93.0083L141.481 91.2319C142.521 92.2841 143.651 93.243 144.858 94.0978L143.474 96.9273C143.383 97.1153 143.329 97.3196 143.318 97.5284C143.306 97.7372 143.336 97.9463 143.406 98.1433C143.476 98.3404 143.585 98.5214 143.726 98.676C143.867 98.8305 144.037 98.9553 144.227 99.0432L149.231 101.4C149.615 101.582 150.055 101.605 150.456 101.465C150.857 101.325 151.187 101.033 151.375 100.652L152.74 97.8524C154.169 98.245 155.629 98.5112 157.104 98.6477L157.339 101.745C157.356 101.953 157.413 102.155 157.509 102.341C157.604 102.526 157.735 102.691 157.894 102.825C158.053 102.96 158.237 103.062 158.435 103.125C158.634 103.189 158.843 103.212 159.05 103.195L164.535 102.762C164.954 102.731 165.343 102.535 165.617 102.217C165.892 101.899 166.029 101.486 166 101.067L165.765 97.9781C167.19 97.6186 168.581 97.1342 169.921 96.5306L171.672 99.0718C171.911 99.4159 172.275 99.6518 172.687 99.7278C173.098 99.8039 173.523 99.7138 173.869 99.4775L178.367 96.4109C178.537 96.2951 178.683 96.1468 178.796 95.9744C178.909 95.8021 178.987 95.6092 179.026 95.4067C179.064 95.2041 179.062 94.9961 179.019 94.7944C178.977 94.5926 178.895 94.4013 178.779 94.2312L177.023 91.6698C178.062 90.6567 179.011 89.5544 179.857 88.3756L182.664 89.7225C183.039 89.9026 183.469 89.9268 183.862 89.7898C184.254 89.6527 184.576 89.3657 184.757 88.9916L187.099 84.1296C187.278 83.7558 187.301 83.3265 187.164 82.9357C187.026 82.5448 186.74 82.2244 186.366 82.0447L183.555 80.6859C183.94 79.2988 184.202 77.8803 184.336 76.447L187.465 76.2266C187.669 76.2125 187.869 76.1581 188.052 76.0664C188.235 75.9748 188.399 75.8478 188.532 75.6927C188.666 75.5377 188.768 75.3576 188.832 75.163C188.896 74.9683 188.921 74.7629 188.905 74.5587L188.497 69.1814C188.464 68.7677 188.27 68.3835 187.956 68.112C187.642 67.8405 187.234 67.7036 186.82 67.7309V67.7309ZM158.388 58.0683C167.228 57.5071 174.892 64.1252 175.553 72.8484C176.215 81.5717 169.63 89.1703 160.798 89.8255C151.912 90.4867 144.127 83.877 143.457 75.0584C142.788 66.2399 149.494 58.6336 158.388 58.0683V58.0683Z" fill="#674E76"/>
<path d="M126.704 140.382C121.581 135.576 114.823 127.769 111.765 116.734C107.753 102.258 113.631 94.9415 112.968 70.4326C112.551 54.9364 112.101 44.1252 104.288 38.3429C98.1656 33.8121 88.254 32.9108 82.2387 37.111C77.235 40.6035 74.3435 48.0311 73.4607 53.3328C72.7411 57.6539 73.3189 60.7914 70.8284 63.0675C68.2824 65.3907 65.5345 64.0766 63.1541 65.7993C58.3291 69.2936 61.1222 80.8702 61.5738 82.7383C66.599 103.546 85.7718 117.58 94.2091 123.602C101.185 128.576 111.976 135.211 126.704 140.382Z" fill="#D8DEE8"/>
<g style="mix-blend-mode:soft-light" opacity="0.5">
<g style="mix-blend-mode:soft-light" opacity="0.5">
<path d="M132.562 144.216C123.632 140.821 115.946 136.775 109.717 132.183C100.496 125.389 94.7541 117.583 92.6489 108.983C91.0018 102.257 91.613 94.9684 92.3862 85.74C93.0272 78.0908 94.1733 72.7314 95.1794 68.0034C96.4863 61.8756 97.5192 57.0356 96.8026 50.0375C96.0747 42.9273 93.7289 35.8571 89.8331 29.0222L90.1822 28.8232C94.1077 35.707 96.4702 42.8302 97.2041 49.9964C97.9273 57.0576 96.889 61.925 95.5743 68.0868C94.5676 72.8034 93.4299 78.1497 92.7883 85.7739C91.9883 95.3246 91.4099 102.226 93.0409 108.887C95.1258 117.392 100.815 125.121 109.958 131.859C116.158 136.428 123.812 140.458 132.708 143.839L132.562 144.216Z" fill="white"/>
</g>
<g style="mix-blend-mode:soft-light" opacity="0.5">
<path d="M93.0665 80.3798L93.0016 80.1624C88.8788 66.3222 81.475 57.6633 75.9906 52.8364C70.0527 47.6117 65.0353 45.634 64.9852 45.6143L65.1306 45.2402C65.1812 45.2599 70.2654 47.2656 76.2556 52.535C81.7508 57.3714 89.157 66.0232 93.3203 79.8252C94.3151 79.3487 98.7512 77.0851 103.19 72.5114C107.812 67.7501 113.385 59.4384 113.682 46.8837L114.084 46.8933C113.786 59.5862 108.143 67.9889 103.465 72.8057C98.3967 78.0221 93.3251 80.269 93.2744 80.2911L93.0665 80.3798Z" fill="white"/>
</g>
<g style="mix-blend-mode:soft-light" opacity="0.5">
<path d="M91.9079 101.028L91.7679 100.987C85.0367 99.0112 77.397 91.2637 69.0597 77.9584C62.8646 68.07 58.5792 58.6331 58.5369 58.539L58.9027 58.374C58.945 58.4675 63.2184 67.8812 69.4023 77.7493C75.0613 86.7847 83.5236 98.0498 91.7405 100.56C92.4244 99.5777 97.2024 92.8196 103.237 86.8985C109.762 80.4967 124.949 78.2861 125.103 78.261L125.159 78.659C125.007 78.6804 109.949 80.8731 103.518 87.1826C97.057 93.5267 92.0425 100.835 91.9901 100.907L91.9079 101.028Z" fill="white"/>
</g>
<g style="mix-blend-mode:soft-light" opacity="0.5">
<path d="M107.218 130.306L106.821 130.258C106.746 130.25 99.1765 129.322 89.2905 125.875C80.1639 122.693 67.1351 116.651 56.8928 105.934L37.1201 85.2454L37.4102 84.9678L57.1871 105.657C67.3733 116.315 80.342 122.329 89.4269 125.494C97.9905 128.479 104.799 129.565 106.476 129.803C104.358 125.969 103.592 121.967 104.201 117.901C104.701 114.554 106.129 111.162 108.444 107.817C112.376 102.135 117.587 98.5048 117.639 98.4684L117.867 98.799C117.816 98.8348 112.658 102.429 108.768 108.054C106.491 111.347 105.088 114.682 104.598 117.966C103.987 122.062 104.803 126.096 107.025 129.956L107.218 130.306Z" fill="white"/>
</g>
</g>
<path d="M99.1908 140.045C88.1003 140.139 73.9592 138.677 60.4068 132.577C56.9482 131.02 35.5827 121.402 38.087 111.674C38.9686 108.247 42.0679 107.701 43.329 103.141C44.8182 97.7365 41.4228 95.0446 39.0627 88.3169C37.6533 84.3025 33.5276 72.555 40.5585 66.0334C44.7598 62.1364 52.7558 60.2826 58.8461 61.6926C67.7814 63.7614 70.8658 72.4489 75.8327 87.2375C80.2354 100.347 79.1161 103.569 82.452 112.952C84.9264 119.922 89.5811 129.507 99.1908 140.045Z" fill="url(#paint0_linear)"/>
<g style="mix-blend-mode:soft-light" opacity="0.5">
<g style="mix-blend-mode:soft-light" opacity="0.5">
<path d="M126.938 145.988C121.699 145.995 116.477 145.385 111.381 144.17C96.4095 140.586 83.417 131.651 72.7649 117.612C61.6917 103.017 55.9201 86.5589 53.0286 75.3225C51.014 67.494 51.3821 58.8285 54.1235 49.5703L54.5083 49.6841C51.7884 58.8749 51.4208 67.4683 53.417 75.2254C56.3001 86.4243 62.0545 102.831 73.0848 117.371C83.6797 131.335 96.5954 140.221 111.474 143.782C122.644 146.456 134.463 146.16 146.603 142.905L146.707 143.293C140.003 145.088 133.394 145.987 126.938 145.988Z" fill="white"/>
</g>
<g style="mix-blend-mode:soft-light" opacity="0.5">
<path d="M61.0001 97.4923L60.8482 97.3946C36.9147 81.9758 37.1267 64.1946 37.7617 59.1116C37.7742 59.0115 37.7832 58.946 37.7838 58.918H38.1853C38.1815 59.0004 38.1731 59.0825 38.1603 59.164C37.5336 64.1767 37.3316 81.6923 60.9119 96.9603C61.4856 96.2139 64.1715 92.5874 66.3851 87.3459C68.6696 81.9359 70.904 73.6451 68.5761 64.8814L68.9638 64.7777C71.3228 73.6577 69.0615 82.0431 66.7503 87.5133C64.2484 93.4351 61.1443 97.316 61.1133 97.3547L61.0001 97.4923Z" fill="white"/>
</g>
<g style="mix-blend-mode:soft-light" opacity="0.5">
<path d="M63.6676 118.147C54.1366 118.147 47.4768 115.661 43.2671 113.262C40.182 111.502 38.056 109.6 36.8158 108.314C35.4677 106.916 34.8583 105.946 34.8333 105.906L35.174 105.693C35.1979 105.732 37.6593 109.607 43.4893 112.927C53.199 118.453 64.6594 118.235 72.6041 117.066C73.1664 115.815 78.8243 102.689 77.4732 85.1282L76.0382 66.4773L76.4379 66.4463L77.8735 85.0979C79.296 103.588 72.9889 117.199 72.9228 117.335L72.8769 117.432L72.7709 117.447C69.7578 117.904 66.7151 118.138 63.6676 118.147V118.147Z" fill="white"/>
</g>
</g>
<path d="M138.222 179.377C137.25 179.051 136.382 178.475 135.704 177.705C135.027 176.936 134.565 176.002 134.365 174.997L131.498 160.807L106.972 161.68L103.954 176.463C103.531 178.533 105.223 180.61 107.17 181.373L117.432 185.388C119.338 186.134 121.39 186.432 123.43 186.257L145.113 184.402C145.422 184.375 145.712 184.241 145.934 184.024C146.155 183.806 146.295 183.519 146.33 183.211C146.403 182.572 146.847 181.854 146.243 181.653L138.222 179.377Z" fill="#97A6B7"/>
<path d="M138.465 178.514C137.499 178.197 136.633 177.63 135.956 176.87C135.279 176.11 134.816 175.185 134.612 174.189L131.748 160.177L107.821 161.038L104.805 175.635C104.601 176.625 104.754 177.655 105.238 178.543C105.721 179.43 106.504 180.117 107.447 180.482L117.698 184.446C119.605 185.184 121.654 185.477 123.691 185.305L145.354 183.474C145.661 183.447 145.95 183.316 146.171 183.102C146.393 182.887 146.533 182.603 146.569 182.297C146.605 181.99 146.534 181.681 146.368 181.422C146.202 181.162 145.951 180.968 145.658 180.872L138.465 178.514Z" fill="url(#paint1_linear)"/>
<path d="M56.8567 170.237C54.1969 170.396 52.0215 168.671 52.0215 166.39V84.2069C52.0215 81.9266 54.1969 80.1657 56.8567 80.2807L179.855 85.6097C181.808 85.6943 183.389 87.3408 183.389 89.2798V159.177C183.389 161.116 181.808 162.788 179.855 162.905L56.8567 170.237Z" fill="url(#paint2_linear)"/>
<path d="M57.9617 170.237C55.3019 170.396 53.1259 168.671 53.1259 166.39V84.2069C53.1259 81.9266 55.3019 80.1657 57.9617 80.2807L180.961 85.6097C182.914 85.6943 184.495 87.3408 184.495 89.2798V159.177C184.495 161.116 182.914 162.788 180.961 162.905L57.9617 170.237Z" fill="url(#paint3_linear)"/>
<g style="mix-blend-mode:multiply" opacity="0.3">
<path d="M180.961 87.2548L57.9617 82.1951C56.5398 82.1355 55.3835 83.0761 55.3835 84.2937V166.266C55.3835 167.483 56.5398 168.404 57.9617 168.322L180.961 161.262C182.008 161.202 182.854 160.309 182.854 159.269V89.2164C182.849 88.7096 182.649 88.2241 182.297 87.8594C181.945 87.4947 181.467 87.2784 180.961 87.2548V87.2548Z" fill="#D8DEE8"/>
</g>
<path d="M57.9617 161.342C57.4083 161.369 56.9574 161.006 56.9574 160.532V84.3552C56.9574 83.8786 57.4083 83.5141 57.9617 83.5361L180.961 88.41C181.159 88.4188 181.346 88.5032 181.484 88.6457C181.621 88.7882 181.699 88.978 181.701 89.1761V154.488C181.699 154.687 181.621 154.878 181.484 155.022C181.346 155.165 181.16 155.252 180.961 155.263L57.9617 161.342Z" fill="#D8DEE8"/>
<g style="mix-blend-mode:soft-light" opacity="0.6">
<path d="M168.12 157.817C157.773 151.416 165 133.215 153.38 124.073C141.664 114.853 125.177 126.158 116.971 116.613C110.86 109.504 118.01 100.921 112.175 94.2355C103.025 83.7514 79.6018 98.1706 68.8402 87.8413C67.3122 86.3748 65.77 84.1481 64.8925 80.5805L57.9623 80.2827C55.3026 80.1677 53.1265 81.9286 53.1265 84.2088V166.39C53.1265 168.67 55.3026 170.395 57.9623 170.237L180.961 162.904C182.914 162.785 184.495 161.117 184.495 159.177V157.934C176.328 160.705 171.335 159.806 168.12 157.817Z" fill="white"/>
</g>
<path d="M165.913 74.8236L76.9324 71.7415C73.942 71.6379 71.5075 74.0355 71.5075 77.0967V143.48C71.5075 146.541 73.942 148.957 76.9324 148.876L165.913 146.469C168.481 146.4 170.554 144.058 170.554 141.238V80.0907C170.554 77.2701 168.481 74.9124 165.913 74.8236Z" fill="url(#paint4_linear)"/>
<g style="mix-blend-mode:soft-light" opacity="0.74">
<path d="M73.244 142.081V78.5109C73.244 75.6778 75.494 73.4559 78.2591 73.5477L164.764 76.4225C167.147 76.5017 169.075 78.6861 169.075 81.3035V140.014C169.075 142.63 167.149 144.801 164.764 144.862L78.2591 147.079C75.4946 147.15 73.244 144.912 73.244 142.081Z" fill="white"/>
</g>
<path d="M165.912 74.8236L76.9322 71.7415C73.9419 71.6379 71.5067 74.0355 71.5067 77.0967V81.0735L170.554 83.7541V80.0913C170.554 77.2701 168.48 74.9124 165.912 74.8236Z" fill="url(#paint5_linear)"/>
<path d="M81.1518 76.8528C81.1518 77.847 80.3649 78.6303 79.3934 78.6017C78.4218 78.5731 77.6295 77.7421 77.6295 76.745C77.6295 75.7478 78.42 74.9645 79.3934 74.996C80.3667 75.0276 81.1518 75.861 81.1518 76.8528Z" fill="white"/>
<path d="M87.2886 77.0438C87.2886 78.0332 86.5094 78.8124 85.5474 78.7844C84.5853 78.7564 83.8014 77.929 83.8014 76.9378C83.8014 75.9465 84.5836 75.1668 85.5474 75.1971C86.5112 75.2275 87.2886 76.0543 87.2886 77.0438Z" fill="white"/>
<path d="M93.3652 77.2292C93.3652 78.2139 92.5938 78.9895 91.6413 78.9621C90.6887 78.9347 89.9138 78.1108 89.9138 77.1238C89.9138 76.1367 90.6882 75.3605 91.6413 75.3915C92.5944 75.4225 93.3652 76.2451 93.3652 77.2292Z" fill="white"/>
<path d="M165.135 123.514L77.8303 124.149V97.9082L165.135 99.1067V123.514Z" fill="url(#paint6_linear)"/>
<path d="M165.135 129.677L77.8303 130.775V127.957L165.135 127.056V129.677Z" fill="white"/>
<path d="M165.135 136.106L77.8303 137.688V134.87L165.135 133.485V136.106Z" fill="white"/>
<path d="M124.874 92.1776L77.8303 91.2822V94.1004L124.874 94.8891V92.1776Z" fill="white"/>
<path d="M160.173 92.8496V95.4814L165.135 95.5648V92.9437L160.173 92.8496Z" fill="white"/>
<g style="mix-blend-mode:soft-light" opacity="0.5">
<g style="mix-blend-mode:soft-light" opacity="0.5">
<path d="M131.369 108.736C120.979 93.3287 102.983 98.2193 91.59 81.1808C89.5343 78.1071 88.1398 74.9797 87.1819 72.096L76.9308 71.7386C73.9404 71.6349 71.5058 74.0326 71.5058 77.0938V143.479C71.5058 146.54 73.9404 148.956 76.9308 148.875L144.672 147.044C142.529 143.908 140.698 140.57 139.207 137.077C133.149 122.893 137.636 118.028 131.369 108.736Z" fill="white"/>
</g>
</g>
<g style="mix-blend-mode:soft-light">
<g style="mix-blend-mode:soft-light">
<path d="M90.0621 104.474L79.3909 104.375V101.259L90.0621 101.384V104.474Z" fill="white"/>
</g>
<g style="mix-blend-mode:soft-light">
<path d="M146.891 105.002L96.8696 104.538V101.463L146.891 102.048V105.002Z" fill="white"/>
</g>
<g style="mix-blend-mode:soft-light">
<path d="M107.257 109.843L96.8696 109.789V106.715L107.257 106.793V109.843Z" fill="white"/>
</g>
<g style="mix-blend-mode:soft-light">
<path d="M162.608 110.131L113.884 109.878V106.845L162.608 107.215V110.131Z" fill="white"/>
</g>
<g style="mix-blend-mode:soft-light">
<path d="M107.257 115.052L96.8696 115.041V111.967L107.257 112.003V115.052Z" fill="white"/>
</g>
<g style="mix-blend-mode:soft-light">
<path d="M162.608 115.113L113.884 115.06V112.026L162.608 112.196V115.113Z" fill="white"/>
</g>
<g style="mix-blend-mode:soft-light">
<path d="M90.0621 120.314L79.3909 120.346V117.23L90.0621 117.223V120.314Z" fill="white"/>
</g>
<g style="mix-blend-mode:soft-light">
<path d="M146.891 120.142L96.8696 120.294V117.219L146.891 117.188V120.142Z" fill="white"/>
</g>
</g>
<path d="M145.866 53.031L145.844 71.9738L145.84 75.0154C145.84 76.7989 144.625 76.3646 142.977 76.3325L136.909 76.4052L136.117 76.4153L130.645 76.4808L129.744 76.4927L95.5116 76.9026H95.2876C93.4821 76.8609 92.0042 75.2942 92.0042 73.4243L92 50.3444C92 48.5067 93.4237 47.0402 95.1828 47.0789H95.2858L96.5904 47.151L142.875 49.6445C144.524 49.7219 145.868 51.2439 145.866 53.031Z" fill="url(#paint7_linear)"/>
<path d="M136.943 75.2467L136.117 76.4148L134.985 78.0118L130.639 84.1516L129.762 83.7346L129.748 77.8707L129.744 76.4923L129.74 74.7695L130.646 74.8291L136.943 75.2467Z" fill="url(#paint8_linear)"/>
<path d="M146.836 52.9666L146.812 71.9511L146.808 75.0612C146.808 76.853 145.453 78.288 143.799 78.2499L135.595 78.0277L134.985 78.0116L130.645 77.8955L129.751 77.8704L96.0477 76.9602C95.8675 76.9569 95.6881 76.937 95.5116 76.9007C93.9527 76.6028 92.7512 75.1565 92.7512 73.4665L92.747 50.28C92.747 48.705 93.7853 47.4207 95.1828 47.0853C95.4642 47.0178 95.7538 46.9901 96.0429 47.0031L96.5922 47.0335L143.833 49.57C145.487 49.6444 146.84 51.1729 146.836 52.9666Z" fill="url(#paint9_linear)"/>
<path d="M137.876 75.2088L136.908 76.4049L135.594 78.0281L130.637 84.1524L130.642 77.8971V76.4817V74.8305V74.7334L137.876 75.2088Z" fill="url(#paint10_linear)"/>
<path d="M115.656 67.5543L107.045 62.7245V61.2591L115.656 56.7783V59.1795L109.769 62.0317L115.656 65.1632V67.5543Z" fill="white"/>
<path d="M124.135 55.593L119.685 69.7185L117.378 69.6411L121.887 55.4238L124.135 55.593Z" fill="white"/>
<path d="M125.743 65.6296L131.119 63.1873L125.743 59.8145V57.4854L133.493 62.7393V64.0975L125.743 67.9522V65.6296Z" fill="white"/>
<path style="mix-blend-mode:multiply" opacity="0.2" d="M146.812 71.9521L146.808 75.0621C146.808 76.854 145.453 78.289 143.799 78.2508L135.595 78.0287L130.639 84.1523L129.762 83.7353L129.748 77.8714L96.0447 76.9612C95.8646 76.9579 95.6851 76.9379 95.5086 76.9016H95.2846C93.4791 76.8599 92.0012 75.2933 92.0012 73.4234L92 50.3518C92 48.5141 93.4237 47.0678 95.1828 47.0892C95.4642 47.0217 95.7538 46.994 96.0429 47.007L96.5922 47.0374C96.5922 47.0779 96.5922 47.1184 96.5922 47.1607C96.5779 51.688 98.2726 58.1214 107.819 58.8767C122.732 60.0586 126.577 63.3771 132.183 69.9565C135.844 74.2538 141.466 72.2201 145.846 71.9759C146.174 71.9556 146.498 71.9467 146.812 71.9521Z" fill="url(#paint11_linear)"/>
<path d="M181.432 127.516C187.82 127.713 193.185 131.613 194.231 136.55L194.234 136.57C194.291 136.84 194.335 137.113 194.365 137.389C194.365 137.407 194.369 137.425 194.371 137.444C194.384 137.573 194.394 137.703 194.402 137.832L194.405 137.903C194.411 138.036 194.416 138.169 194.416 138.303C194.416 144.041 188.56 148.389 181.43 148.019C181.24 148.01 181.052 147.996 180.864 147.98L180.809 147.975C180.632 147.959 180.455 147.94 180.28 147.916L180.198 147.906C180.028 147.884 179.859 147.859 179.692 147.832L179.597 147.817C179.432 147.79 179.269 147.76 179.107 147.728L179.008 147.707C178.847 147.675 178.686 147.639 178.527 147.601L178.435 147.579C178.277 147.54 178.12 147.499 177.964 147.456L177.881 147.433C177.74 147.393 177.601 147.351 177.464 147.308L177.359 147.275C177.218 147.23 177.08 147.182 176.942 147.134L176.852 147.103C172.113 145.394 168.782 141.547 168.782 137.245C168.786 131.659 174.407 127.301 181.432 127.516Z" fill="url(#paint12_linear)"/>
<path d="M167.433 137.247C167.433 142.835 173.054 147.656 180.079 148.019C187.207 148.389 193.065 144.041 193.065 138.303C193.065 132.566 187.21 127.736 180.079 127.516C173.054 127.301 167.433 131.659 167.433 137.247Z" fill="url(#paint13_linear)"/>
<path d="M185.76 134.185V142.372L178.741 145.547L178.705 145.491L172.985 141.372L173.035 134.623L178.806 130.798L178.797 130.746L185.76 134.185Z" fill="white"/>
<path d="M178.81 130.795L178.754 145.497L172.99 141.372L173.037 134.623L178.81 130.795Z" fill="#F4F7FA"/>
<g style="mix-blend-mode:multiply" opacity="0.3">
<path style="mix-blend-mode:multiply" opacity="0.3" d="M176.98 145.256C178.519 142.309 176.963 139.418 179.045 137.552C181.168 135.649 183.941 137.612 186.942 136.106C188.108 135.52 189.407 134.362 190.375 131.907C192.061 133.712 193.065 135.933 193.065 138.303C193.065 144.041 187.209 148.389 180.079 148.019C178.516 147.941 176.974 147.633 175.501 147.105C176.107 146.588 176.609 145.961 176.98 145.256Z" fill="url(#paint14_linear)"/>
</g>
<path d="M181.893 70.2088C188.281 70.4048 193.646 74.3048 194.692 79.2419L194.695 79.2615C194.752 79.5312 194.795 79.8044 194.826 80.0812C194.826 80.099 194.83 80.1175 194.832 80.1354C194.845 80.2646 194.855 80.3939 194.863 80.5244L194.866 80.5953C194.872 80.7281 194.876 80.8615 194.876 80.9956C194.876 86.7326 189.021 91.0806 181.89 90.7118C181.701 90.7017 181.513 90.688 181.325 90.6719L181.27 90.6671C181.092 90.6513 180.916 90.6314 180.741 90.6076L180.659 90.5974C180.489 90.5756 180.32 90.5512 180.153 90.5242L180.058 90.5087C179.894 90.4813 179.73 90.4515 179.568 90.4193L179.469 90.3991C179.308 90.3657 179.147 90.3306 178.988 90.2925L178.896 90.2698C178.738 90.2311 178.581 90.1912 178.425 90.1507L178.341 90.1269C178.201 90.0871 178.062 90.0454 177.924 90.0018L177.819 89.969C177.679 89.9243 177.541 89.8767 177.402 89.8278C177.373 89.8171 177.342 89.8082 177.312 89.7974C172.574 88.0884 169.243 84.2415 169.243 79.94C169.247 74.3513 174.868 69.9932 181.893 70.2088Z" fill="url(#paint15_linear)"/>
<path d="M167.894 79.9388C167.894 85.527 173.515 90.3479 180.54 90.7118C187.668 91.0806 193.526 86.7326 193.526 80.9956C193.526 75.2585 187.671 70.4275 180.54 70.2088C173.515 69.9932 167.894 74.3513 167.894 79.9388Z" fill="url(#paint16_linear)"/>
<g style="mix-blend-mode:multiply" opacity="0.3">
<path style="mix-blend-mode:multiply" opacity="0.3" d="M177.439 87.9484C178.978 85.0009 177.423 82.1106 179.503 80.2437C181.627 78.3411 184.4 80.3033 187.402 78.7974C188.567 78.2124 189.866 77.0538 190.834 74.5996C192.52 76.4045 193.524 78.6253 193.524 80.9955C193.524 86.7326 187.668 91.0805 180.538 90.7118C178.975 90.6332 177.433 90.3251 175.96 89.7974C176.566 89.2803 177.068 88.6528 177.439 87.9484V87.9484Z" fill="url(#paint17_linear)"/>
</g>
<path d="M179.618 87.3872C176.067 87.2424 173.233 84.2062 173.233 80.6154C173.233 77.0246 176.067 74.1075 179.618 74.1123C183.245 74.1165 186.255 77.1569 186.255 80.8894C186.255 84.622 183.245 87.5355 179.618 87.3872ZM179.618 74.6871C176.371 74.6776 173.776 77.3421 173.776 80.6267C173.776 83.9114 176.371 86.6855 179.618 86.8123C182.928 86.9416 185.67 84.2801 185.67 80.8769C185.67 77.4738 182.928 74.6967 179.618 74.6871V74.6871Z" fill="#F4F7FA"/>
<path d="M182.916 80.8193C182.916 82.6767 181.431 84.1367 179.618 84.0807C177.823 84.0253 176.383 82.5039 176.383 80.6817C176.383 78.8595 177.823 77.3995 179.618 77.4191C181.431 77.4394 182.916 78.9614 182.916 80.8193Z" fill="#F4F7FA"/>
<path d="M184.143 75.1371C184.144 75.3238 184.108 75.5089 184.037 75.6817C183.966 75.8545 183.862 76.0115 183.73 76.1437C183.598 76.2759 183.441 76.3806 183.269 76.4518C183.096 76.523 182.911 76.5592 182.724 76.5584C182.348 76.5523 181.99 76.3985 181.727 76.1303C181.464 75.8621 181.317 75.501 181.318 75.1252C181.319 74.9397 181.356 74.7562 181.428 74.5851C181.499 74.4141 181.604 74.2588 181.736 74.1282C181.867 73.9976 182.024 73.8942 182.195 73.824C182.367 73.7537 182.551 73.718 182.736 73.7188C182.922 73.7195 183.105 73.7568 183.276 73.8285C183.447 73.9003 183.602 74.0049 183.733 74.1366C183.864 74.2684 183.967 74.4245 184.037 74.5962C184.108 74.7678 184.143 74.9516 184.143 75.1371V75.1371Z" fill="#F4F7FA"/>
<path d="M191.13 97.0535C198.25 97.2721 204.23 101.619 205.395 107.121C205.395 107.128 205.398 107.135 205.4 107.142C205.463 107.443 205.512 107.748 205.546 108.055C205.546 108.075 205.55 108.096 205.552 108.115C205.567 108.259 205.579 108.403 205.586 108.548C205.586 108.574 205.589 108.6 205.59 108.627C205.597 108.775 205.602 108.925 205.602 109.073C205.602 115.468 199.075 120.314 191.13 119.903C190.919 119.891 190.709 119.876 190.5 119.858L190.44 119.853C190.242 119.836 190.046 119.814 189.85 119.79L189.759 119.779C189.57 119.755 189.382 119.727 189.195 119.697L189.09 119.68C188.906 119.649 188.724 119.616 188.543 119.58L188.433 119.557C188.255 119.52 188.076 119.482 187.897 119.438L187.794 119.413C187.618 119.37 187.443 119.324 187.269 119.276L187.176 119.25C187.02 119.205 186.865 119.159 186.711 119.111L186.592 119.074C186.436 119.024 186.282 118.971 186.128 118.916C186.095 118.905 186.061 118.894 186.028 118.882C180.747 116.976 177.033 112.687 177.033 107.895C177.035 101.67 183.3 96.8134 191.13 97.0535Z" fill="url(#paint18_linear)"/>
<path d="M175.527 107.899C175.527 114.128 181.793 119.501 189.623 119.906C197.568 120.317 204.095 115.471 204.095 109.077C204.095 102.682 197.568 97.2977 189.623 97.0535C181.793 96.8134 175.527 101.67 175.527 107.899Z" fill="url(#paint19_linear)"/>
<g style="mix-blend-mode:multiply" opacity="0.3">
<path style="mix-blend-mode:multiply" opacity="0.3" d="M186.167 116.824C187.881 113.539 186.148 110.315 188.467 108.236C190.834 106.116 193.924 108.304 197.27 106.624C198.57 105.969 200.018 104.681 201.096 101.945C202.975 103.957 204.095 106.433 204.095 109.075C204.095 115.469 197.568 120.315 189.623 119.904C187.881 119.816 186.162 119.473 184.52 118.885C185.195 118.308 185.753 117.609 186.167 116.824V116.824Z" fill="url(#paint20_linear)"/>
</g>
<path d="M190.345 108.577C190.347 108.728 190.319 108.878 190.262 109.018C190.205 109.158 190.121 109.285 190.014 109.392C189.907 109.499 189.78 109.583 189.64 109.64C189.5 109.697 189.35 109.725 189.199 109.723C188.892 109.713 188.6 109.583 188.387 109.362C188.173 109.141 188.054 108.845 188.055 108.537C188.053 108.387 188.081 108.237 188.138 108.098C188.194 107.959 188.278 107.832 188.384 107.725C188.49 107.619 188.617 107.534 188.756 107.477C188.895 107.42 189.044 107.391 189.195 107.392C189.503 107.4 189.796 107.529 190.011 107.75C190.226 107.972 190.346 108.268 190.345 108.577V108.577Z" fill="white"/>
<path d="M186.319 115.605C185.681 115.583 185.122 115.391 184.657 115.037C182.664 113.518 183.067 109.524 185.579 105.895C187.452 103.191 190.011 101.433 192.106 101.433C192.762 101.433 193.342 101.606 193.826 101.95C195.931 103.444 195.515 107.561 192.885 111.271C190.962 113.983 188.383 115.677 186.319 115.605ZM192.11 102.167C190.271 102.167 187.881 103.839 186.159 106.32C183.941 109.516 183.444 113.225 185.065 114.458C185.41 114.719 185.832 114.86 186.32 114.875C188.131 114.934 190.53 113.316 192.289 110.83C194.594 107.572 195.109 103.762 193.407 102.55C193.047 102.297 192.611 102.17 192.11 102.167Z" fill="white"/>
<path d="M192.143 115.811C190.041 115.738 187.467 113.878 185.584 111.098C183.066 107.378 182.661 103.382 184.647 101.94C185.11 101.605 185.666 101.435 186.303 101.435C188.359 101.435 190.938 103.208 192.871 105.978C195.522 109.777 195.968 113.922 193.865 115.35C193.382 115.677 192.802 115.832 192.143 115.811ZM186.305 102.158C185.818 102.158 185.397 102.283 185.055 102.531C183.438 103.7 183.939 107.415 186.163 110.692C187.894 113.242 190.297 115.01 192.143 115.072C192.647 115.088 193.084 114.973 193.441 114.73C195.141 113.571 194.6 109.732 192.277 106.395C190.507 103.854 188.107 102.159 186.304 102.156L186.305 102.158Z" fill="white"/>
<path d="M189.355 112.758L189.14 112.859C187.061 112.771 185.127 112.311 183.684 111.47C182.182 110.594 181.369 109.48 181.386 108.281C181.42 105.92 184.747 104.107 189.04 104.136L189.254 104.146C192.209 104.206 194.936 105.154 196.343 106.617C196.99 107.289 197.327 107.94 197.319 108.702C197.293 111.165 193.756 113.147 189.355 112.758ZM189.041 104.879C185.2 104.847 182.106 106.395 182.078 108.33C182.065 109.251 182.75 110.161 184.016 110.896C185.363 111.679 187.183 112.156 189.149 112.236L189.353 112.243C193.281 112.348 196.552 110.799 196.575 108.791C196.581 108.222 196.325 107.664 195.813 107.131C194.54 105.805 192.014 104.946 189.245 104.883L189.041 104.879Z" fill="white"/>
<path d="M93.3206 199.243C93.3206 199.243 93.1782 200.379 93.2741 200.76C93.37 201.14 96.6725 201.415 97.793 201.283C98.9135 201.151 97.1259 200.006 96.411 199.794C95.6962 199.582 93.3206 199.243 93.3206 199.243Z" fill="url(#paint21_linear)"/>
<path d="M94.9831 197.348L94.6352 199.627C94.6352 199.627 93.7477 200.026 93.3206 199.632L93.2741 197.249L94.9831 197.348Z" fill="url(#paint22_linear)"/>
<path d="M76.3655 197.247C76.3655 197.247 77.0666 197.767 76.8796 198.39C76.6925 199.013 75.0579 201.508 73.8922 202.216C72.7264 202.924 73.0928 201.449 73.4317 200.529C73.7707 199.61 74.6374 197.586 74.9757 197.247C75.3141 196.907 76.3655 197.247 76.3655 197.247Z" fill="url(#paint23_linear)"/>
<path d="M77.626 194.743C77.2877 195.688 76.9618 196.464 76.7069 197.037C76.1434 198.303 75.8348 198.778 75.4857 199.191C75.1813 199.548 74.4611 200.315 74.2675 200.188C74.0739 200.06 74.5976 199.127 75.6138 196.4C75.7615 196.005 76.2274 194.743 76.2274 194.743H77.626V194.743Z" fill="url(#paint24_linear)"/>
<path d="M101.9 155.287C102.255 158.786 102.298 162.309 102.026 165.815C101.574 171.639 100.41 175.325 98.9492 181.535C98.0557 185.331 96.8536 190.917 95.7653 197.903C95.1751 198.244 94.4883 198.378 93.8132 198.286C93.3949 198.223 92.995 198.071 92.6403 197.841C89.7846 189.114 90.6281 183.706 92.0065 180.337C92.5938 178.901 93.3057 177.768 93.6863 175.56C94.1903 172.641 93.5672 171.007 92.679 164.242C92.0464 159.42 92.1554 158.675 92.5772 157.952C94.2606 155.061 99.4115 155.118 101.9 155.287Z" fill="url(#paint25_linear)"/>
<path d="M92.0697 156.304C90.3201 165.339 88.6034 170.084 87.3042 172.767C86.368 174.662 85.566 176.62 84.9041 178.627C84.0106 181.336 83.6365 183.332 83.4453 184.208C82.8425 186.977 81.3515 191.02 77.3407 196.324C77.2907 196.354 76.6068 196.741 75.9527 196.395C75.7102 196.263 75.5143 196.06 75.3916 195.813C75.9158 190.742 76.5175 186.481 77.0405 183.192C77.1501 182.503 77.6326 179.485 78.3897 175.499C78.6875 173.938 79.1206 171.652 79.6406 169.303C80.2882 166.379 81.2812 162.401 82.8115 157.634L92.0697 156.304Z" fill="url(#paint26_linear)"/>
<path d="M93.56 120.568C94.5519 119.651 96.4503 118.594 97.4022 116.136C97.6887 115.397 98.7044 112.775 97.2062 110.77C96.3175 109.579 94.6662 108.771 93.211 109.058C91.9678 109.302 91.773 110.168 89.6601 111.912C88.8374 112.59 87.5156 113.681 86.0437 114.287C83.5227 115.326 82.0079 114.347 79.4768 114.46C76.3673 114.597 72.7551 116.333 71.018 118.856C67.9258 123.335 72.4006 127.878 69.0171 133.128C67.9086 134.847 67.3623 134.462 64.7365 137.789C62.1107 141.117 60.7925 142.787 61.0266 144.828C61.3512 147.662 64.4029 150.368 67.2771 150.552C70.084 150.731 71.8687 148.523 73.2977 149.49C74.3152 150.177 73.7338 151.515 74.8138 153.123C76.2065 155.195 78.9443 155.608 79.3863 155.675C83.4893 156.294 89.0221 151.482 91.3721 145.782C95.6092 135.497 88.1661 125.554 93.56 120.568Z" fill="url(#paint27_linear)"/>
<path d="M110.397 123.422C110.425 120.552 103.904 118.26 100.926 117.521C96.2865 116.371 92.5718 117.093 91.6693 117.283C85.8834 118.509 82.2801 121.98 80.9237 123.44C82.0347 124.163 85.0989 126.369 86.6167 130.555C87.0891 131.858 88.4842 136.31 86.4892 140.481C85.3396 142.884 83.3059 144.688 81.7613 146.058C79.4446 148.113 78.2467 148.429 77.4681 150.27C76.6223 152.275 77.4747 153.253 76.4245 154.626C75.2963 156.1 73.9744 155.414 72.0623 156.905C70.1043 158.432 70.8012 159.689 69.0183 161.376C66.4283 163.828 62.9953 163.032 62.8351 164.135C62.6975 165.084 65.138 166.372 67.211 166.894C71.3171 167.928 74.8954 166.192 75.9628 165.657C78.9109 164.176 78.4016 163.215 80.6497 162.088C84.4139 160.197 86.986 162.301 95.5586 162.518C100.201 162.637 102.549 162.662 103.835 161.088C105.009 159.654 104.392 158.08 103.687 151.298C103.352 148.07 103.23 144.823 102.983 141.589C102.284 132.435 102.263 131.629 102.884 130.364C105.106 125.833 110.372 125.997 110.397 123.422Z" fill="url(#paint28_linear)"/>
<g style="mix-blend-mode:multiply" opacity="0.3">
<path style="mix-blend-mode:multiply" opacity="0.3" d="M69.0171 161.378C70.8 159.691 70.1031 158.434 72.0611 156.907C73.9732 155.418 75.2951 156.102 76.4233 154.627C77.4735 153.257 76.6211 152.277 77.4669 150.272C78.2413 148.431 79.4434 148.115 81.7601 146.06C83.3047 144.69 85.3384 142.885 86.488 140.482C88.483 136.312 87.0879 131.86 86.6155 130.557C85.0977 126.371 82.0335 124.165 80.9225 123.441C81.0298 123.326 81.156 123.195 81.2907 123.057C88.6075 124.062 92.8738 128.29 93.4016 129.542C94.6209 132.436 92.6903 133.499 92.6403 141.846C92.6165 145.837 93.0471 147.41 91.7527 149.075C90.2724 150.981 88.5664 150.39 86.4255 152.88C84.7808 154.793 85.0441 156.006 83.5066 156.812C81.8548 157.679 80.8028 156.668 78.9401 157.066C75.8282 157.729 75.1634 161.318 73.1059 163.28C71.55 164.765 68.674 165.803 63.0013 164.689C62.8702 164.498 62.8071 164.312 62.8321 164.137C62.9941 163.032 66.4271 163.83 69.0171 161.378Z" fill="url(#paint29_linear)"/>
</g>
<path d="M91.182 131.793C91.9564 133.445 88.3823 137.292 84.4126 139.12C83.6037 139.492 77.791 142.164 75.2004 139.596C73.0601 137.473 74.4414 133.081 74.9347 131.514C77.3567 123.816 84.7939 119.898 87.9111 118.488C90.2373 124.305 88.8672 126.896 88.3281 127.705C87.7646 128.551 86.1926 130.326 84.5228 131.891C83.3482 132.991 82.6167 133.527 82.7155 133.699C82.8377 133.912 84.2143 133.509 89.5618 130.906C90.1813 131.004 90.9146 131.229 91.182 131.793Z" fill="url(#paint30_linear)"/>
<path d="M113.555 122.304L110.934 135.37C110.893 135.574 110.792 135.762 110.646 135.91C110.499 136.058 110.312 136.16 110.108 136.204L90.5459 140.402C90.3826 140.437 90.2135 140.433 90.0519 140.392C89.8903 140.35 89.7407 140.271 89.615 140.161C89.4894 140.051 89.3911 139.913 89.3281 139.758C89.2651 139.604 89.239 139.437 89.252 139.27L90.2844 125.982C90.3021 125.758 90.3898 125.546 90.5349 125.374C90.68 125.203 90.8754 125.081 91.0933 125.027C94.1962 124.261 106.141 121.393 112.44 121.02C112.604 121.01 112.769 121.038 112.92 121.101C113.072 121.165 113.207 121.263 113.314 121.387C113.422 121.511 113.5 121.658 113.542 121.817C113.584 121.976 113.588 122.143 113.555 122.304V122.304Z" fill="url(#paint31_linear)"/>
<path d="M94.0432 112.761C94.0432 112.761 93.6738 115.711 92.5855 116.387C91.4972 117.063 89.7363 117.945 89.5421 118.184C89.3479 118.424 96.2871 119.17 99.7284 117.435C98.5966 117.196 98.2868 117.112 98.2868 117.112C97.9795 117.025 97.4058 116.863 96.8304 116.535C96.1933 116.167 95.6464 115.661 95.2298 115.054L95.2423 113.421L94.0432 112.761Z" fill="url(#paint32_linear)"/>
<path d="M93.8775 113.805C93.8775 113.805 94.587 114.78 95.7003 114.374C96.6975 114.01 96.1024 111.436 95.3119 111.142C95.0481 111.044 94.5638 111.087 94.2397 111.289C94.0122 111.431 93.4058 112.187 93.753 113.033C93.5011 112.96 93.2765 113.027 93.2241 113.152C93.1532 113.311 93.3664 113.526 93.4147 113.575C93.541 113.698 93.7029 113.779 93.8775 113.805V113.805Z" fill="url(#paint33_linear)"/>
<path style="mix-blend-mode:multiply" opacity="0.3" d="M95.938 133.6C98.039 133.008 99.7814 134.479 101.455 133.315C103.17 132.124 102.051 130.086 103.834 128.083C105.74 125.938 108.157 126.99 109.922 125.039C110.577 124.315 111.166 123.133 111.173 121.121C111.615 121.078 112.038 121.044 112.438 121.02C112.602 121.011 112.766 121.039 112.917 121.102C113.069 121.166 113.204 121.263 113.312 121.387C113.419 121.511 113.497 121.659 113.539 121.817C113.581 121.976 113.586 122.143 113.553 122.304L110.932 135.369C110.89 135.574 110.79 135.761 110.643 135.91C110.496 136.058 110.31 136.16 110.106 136.203L91.3054 140.238C92.6326 135.584 94.4035 134.033 95.938 133.6Z" fill="url(#paint34_linear)"/>
<path d="M112.181 129.255C112.181 129.255 113.432 128.102 113.564 126.762C113.697 125.423 112.758 124.35 111.846 124.077C110.933 123.804 110.447 124.207 111.059 125.526C111.671 126.846 112.643 127.7 112.181 129.255Z" fill="url(#paint35_linear)"/>
</g>
<defs>
<linearGradient id="paint0_linear" x1="81.8706" y1="69.0434" x2="62.5661" y2="120.86" gradientUnits="userSpaceOnUse">
<stop stop-color="#FFC444"/>
<stop offset="1" stop-color="#F36F56"/>
</linearGradient>
<linearGradient id="paint1_linear" x1="122.881" y1="205.979" x2="125.939" y2="176.417" gradientUnits="userSpaceOnUse">
<stop stop-color="#444B8C"/>
<stop offset="1" stop-color="#26264F"/>
</linearGradient>
<linearGradient id="paint2_linear" x1="101.657" y1="123.494" x2="69.3762" y2="127.232" gradientUnits="userSpaceOnUse">
<stop stop-color="#444B8C"/>
<stop offset="0.39" stop-color="#383C74"/>
<stop offset="1" stop-color="#26264F"/>
</linearGradient>
<linearGradient id="paint3_linear" x1="314526" y1="91023.9" x2="207801" y2="328130" gradientUnits="userSpaceOnUse">
<stop stop-color="#444B8C"/>
<stop offset="1" stop-color="#26264F"/>
</linearGradient>
<linearGradient id="paint4_linear" x1="149.509" y1="52.2185" x2="67.0446" y2="217.147" gradientUnits="userSpaceOnUse">
<stop stop-color="#AA80F9"/>
<stop offset="1" stop-color="#6165D7"/>
</linearGradient>
<linearGradient id="paint5_linear" x1="163766" y1="8524.65" x2="164205" y2="23003.1" gradientUnits="userSpaceOnUse">
<stop stop-color="#AA80F9"/>
<stop offset="1" stop-color="#6165D7"/>
</linearGradient>
<linearGradient id="paint6_linear" x1="93628.7" y1="47245.3" x2="221586" y2="47245.3" gradientUnits="userSpaceOnUse">
<stop stop-color="#AA80F9"/>
<stop offset="1" stop-color="#6165D7"/>
</linearGradient>
<linearGradient id="paint7_linear" x1="92" y1="61.9919" x2="145.866" y2="61.9919" gradientUnits="userSpaceOnUse">
<stop stop-color="#311944"/>
<stop offset="1" stop-color="#893976"/>
</linearGradient>
<linearGradient id="paint8_linear" x1="14793.6" y1="12118.2" x2="15664.5" y2="12118.2" gradientUnits="userSpaceOnUse">
<stop stop-color="#311944"/>
<stop offset="1" stop-color="#893976"/>
</linearGradient>
<linearGradient id="paint9_linear" x1="115.484" y1="35.0131" x2="126.719" y2="108.529" gradientUnits="userSpaceOnUse">
<stop stop-color="#FF9085"/>
<stop offset="1" stop-color="#FB6FBB"/>
</linearGradient>
<linearGradient id="paint10_linear" x1="14574.7" y1="5016.98" x2="16785" y2="16132.9" gradientUnits="userSpaceOnUse">
<stop stop-color="#FF9085"/>
<stop offset="1" stop-color="#FB6FBB"/>
</linearGradient>
<linearGradient id="paint11_linear" x1="76959.5" y1="39074.8" x2="127395" y2="39074.8" gradientUnits="userSpaceOnUse">
<stop stop-color="#FF9085"/>
<stop offset="1" stop-color="#FB6FBB"/>
</linearGradient>
<linearGradient id="paint12_linear" x1="66688.9" y1="45177.7" x2="74796.3" y2="47568.7" gradientUnits="userSpaceOnUse">
<stop stop-color="#311944"/>
<stop offset="1" stop-color="#893976"/>
</linearGradient>
<linearGradient id="paint13_linear" x1="79939.9" y1="43362.4" x2="74945.6" y2="54926.4" gradientUnits="userSpaceOnUse">
<stop stop-color="#FFC444"/>
<stop offset="1" stop-color="#F36F56"/>
</linearGradient>
<linearGradient id="paint14_linear" x1="56156.6" y1="34657" x2="51972.5" y2="43798.1" gradientUnits="userSpaceOnUse">
<stop stop-color="#FFC444"/>
<stop offset="1" stop-color="#F36F56"/>
</linearGradient>
<linearGradient id="paint15_linear" x1="66886.1" y1="25366.8" x2="74993.4" y2="27757.7" gradientUnits="userSpaceOnUse">
<stop stop-color="#311944"/>
<stop offset="1" stop-color="#893976"/>
</linearGradient>
<linearGradient id="paint16_linear" x1="80137.7" y1="23551.8" x2="75143.4" y2="35115.7" gradientUnits="userSpaceOnUse">
<stop stop-color="#FFC444"/>
<stop offset="1" stop-color="#F36F56"/>
</linearGradient>
<linearGradient id="paint17_linear" x1="56292.1" y1="19077.7" x2="52107.8" y2="28218.7" gradientUnits="userSpaceOnUse">
<stop stop-color="#FFC444"/>
<stop offset="1" stop-color="#F36F56"/>
</linearGradient>
<linearGradient id="paint18_linear" x1="78260" y1="38917" x2="88331.5" y2="41887.2" gradientUnits="userSpaceOnUse">
<stop stop-color="#311944"/>
<stop offset="1" stop-color="#893976"/>
</linearGradient>
<linearGradient id="paint19_linear" x1="93935.9" y1="36667.8" x2="87730.6" y2="51034.1" gradientUnits="userSpaceOnUse">
<stop stop-color="#FFC444"/>
<stop offset="1" stop-color="#F36F56"/>
</linearGradient>
<linearGradient id="paint20_linear" x1="66089.6" y1="29524.1" x2="60890.8" y2="40879.9" gradientUnits="userSpaceOnUse">
<stop stop-color="#FFC444"/>
<stop offset="1" stop-color="#F36F56"/>
</linearGradient>
<linearGradient id="paint21_linear" x1="-9944.69" y1="6730.69" x2="-10349.8" y2="6730.69" gradientUnits="userSpaceOnUse">
<stop stop-color="#AA80F9"/>
<stop offset="1" stop-color="#6165D7"/>
</linearGradient>
<linearGradient id="paint22_linear" x1="94.9831" y1="198.526" x2="93.2741" y2="198.526" gradientUnits="userSpaceOnUse">
<stop stop-color="#F36F56"/>
<stop offset="1" stop-color="#FFC444"/>
</linearGradient>
<linearGradient id="paint23_linear" x1="-9029.87" y1="16866.6" x2="-9274.05" y2="16866.6" gradientUnits="userSpaceOnUse">
<stop stop-color="#AA80F9"/>
<stop offset="1" stop-color="#6165D7"/>
</linearGradient>
<linearGradient id="paint24_linear" x1="8223.7" y1="17134" x2="8417.64" y2="17134" gradientUnits="userSpaceOnUse">
<stop stop-color="#F36F56"/>
<stop offset="1" stop-color="#FFC444"/>
</linearGradient>
<linearGradient id="paint25_linear" x1="-29884.4" y1="104753" x2="-25170" y2="105494" gradientUnits="userSpaceOnUse">
<stop stop-color="#311944"/>
<stop offset="1" stop-color="#893976"/>
</linearGradient>
<linearGradient id="paint26_linear" x1="-44446.3" y1="101628" x2="-37817.8" y2="103251" gradientUnits="userSpaceOnUse">
<stop stop-color="#311944"/>
<stop offset="1" stop-color="#893976"/>
</linearGradient>
<linearGradient id="paint27_linear" x1="-89938.1" y1="100735" x2="-83329.6" y2="93320.3" gradientUnits="userSpaceOnUse">
<stop stop-color="#444B8C"/>
<stop offset="1" stop-color="#26264F"/>
</linearGradient>
<linearGradient id="paint28_linear" x1="-103351" y1="89179.6" x2="-109230" y2="123153" gradientUnits="userSpaceOnUse">
<stop stop-color="#FF9085"/>
<stop offset="1" stop-color="#FB6FBB"/>
</linearGradient>
<linearGradient id="paint29_linear" x1="-70779" y1="73834.9" x2="-76977.3" y2="101726" gradientUnits="userSpaceOnUse">
<stop stop-color="#FF9085"/>
<stop offset="1" stop-color="#FB6FBB"/>
</linearGradient>
<linearGradient id="paint30_linear" x1="-38949.2" y1="39089.8" x2="-42062.5" y2="53875" gradientUnits="userSpaceOnUse">
<stop stop-color="#FF9085"/>
<stop offset="1" stop-color="#FB6FBB"/>
</linearGradient>
<linearGradient id="paint31_linear" x1="-49737.7" y1="36462.6" x2="-43949.5" y2="51947.3" gradientUnits="userSpaceOnUse">
<stop stop-color="#444B8C"/>
<stop offset="1" stop-color="#26264F"/>
</linearGradient>
<linearGradient id="paint32_linear" x1="-8150.19" y1="14597.6" x2="-7892.87" y2="14881.4" gradientUnits="userSpaceOnUse">
<stop stop-color="#F36F56"/>
<stop offset="1" stop-color="#FFC444"/>
</linearGradient>
<linearGradient id="paint33_linear" x1="-1235.61" y1="6256.9" x2="-868.109" y2="6374.03" gradientUnits="userSpaceOnUse">
<stop stop-color="#F36F56"/>
<stop offset="1" stop-color="#FFC444"/>
</linearGradient>
<linearGradient id="paint34_linear" x1="-39820" y1="38196.1" x2="-48146.1" y2="38196.1" gradientUnits="userSpaceOnUse">
<stop stop-color="#444B8C"/>
<stop offset="1" stop-color="#26264F"/>
</linearGradient>
<linearGradient id="paint35_linear" x1="5271.61" y1="10913.1" x2="5113.27" y2="10496.6" gradientUnits="userSpaceOnUse">
<stop stop-color="#F36F56"/>
<stop offset="1" stop-color="#FFC444"/>
</linearGradient>
<clipPath id="clip0">
<path d="M0 0H200C206.627 0 212 5.37258 212 12V208C212 214.627 206.627 220 200 220H0V0Z" fill="white"/>
</clipPath>
</defs>
</svg>
