<svg width="212" height="220" viewBox="0 0 212 220" fill="none" xmlns="http://www.w3.org/2000/svg">
<g clip-path="url(#clip0)">
<g opacity="0.2">
<path d="M87.3162 174.99C95.3572 170.413 108.348 170.413 116.339 174.99C124.33 179.566 124.275 186.989 116.243 191.566C108.21 196.143 95.211 196.147 87.2202 191.566C79.2293 186.985 79.2753 179.566 87.3162 174.99Z" fill="#E6E6E6"/>
<path d="M51.7606 118.423L57.947 114.909C58.8965 114.371 59.9723 114.088 61.0673 114.088C62.1622 114.088 63.2381 114.371 64.1876 114.909L98.44 134.492L101.464 132.775L126.268 147.089L123.407 148.712L163.967 171.81C164.281 171.991 164.542 172.251 164.723 172.563C164.905 172.874 165 173.228 165 173.587C165 173.947 164.905 174.3 164.723 174.612C164.542 174.923 164.281 175.183 163.967 175.365L157.726 178.911C156.773 179.454 155.693 179.739 154.593 179.739C153.493 179.739 152.413 179.454 151.46 178.911L110.942 155.789L106.205 158.483C104.308 159.562 102.157 160.13 99.9668 160.13C97.7768 160.13 95.6254 159.562 93.7282 158.483L79.1584 150.187C78.7359 149.947 78.3849 149.602 78.1408 149.186C77.8968 148.769 77.7683 148.297 77.7683 147.816C77.7683 147.336 77.8968 146.863 78.1408 146.447C78.3849 146.031 78.7359 145.686 79.1584 145.446L85.988 141.569L80.2361 138.274L78.2394 137.133L51.7564 121.978C51.4421 121.796 51.1815 121.536 51.0006 121.224C50.8197 120.912 50.7247 120.558 50.7251 120.199C50.7256 119.84 50.8214 119.486 51.003 119.175C51.1847 118.863 51.4459 118.604 51.7606 118.423Z" fill="#E6E6E6"/>
</g>
<path d="M84.2026 146.459L96.0823 153.165C97.7912 154.127 99.7254 154.631 101.693 154.627C103.66 154.624 105.593 154.113 107.298 153.145L116.116 148.136C116.629 147.843 117.055 147.423 117.352 146.917C117.649 146.411 117.806 145.837 117.808 145.252V139.324L119.646 140.371V145.544C119.646 146.228 119.464 146.9 119.117 147.491C118.77 148.083 118.271 148.574 117.67 148.914L107.206 154.862C105.526 155.815 103.622 156.316 101.684 156.316C99.7459 156.316 97.8419 155.815 96.1617 154.862L84.1942 148.111C83.3793 147.654 82.7302 146.957 82.3383 146.118C81.9463 145.278 81.8314 144.339 82.0096 143.431C82.1278 144.064 82.3855 144.663 82.7645 145.186C83.1435 145.709 83.6344 146.144 84.2026 146.459Z" fill="#453FB0"/>
<path opacity="0.1" d="M84.2026 146.459L96.0823 153.165C97.7912 154.127 99.7254 154.631 101.693 154.627C103.66 154.624 105.593 154.113 107.298 153.145L116.116 148.136C116.629 147.843 117.055 147.423 117.352 146.917C117.649 146.411 117.806 145.837 117.808 145.252V139.324L119.646 140.371V145.544C119.646 146.228 119.464 146.9 119.117 147.491C118.77 148.083 118.271 148.574 117.67 148.914L107.206 154.862C105.526 155.815 103.622 156.316 101.684 156.316C99.7459 156.316 97.8419 155.815 96.1617 154.862L84.1942 148.111C83.3793 147.654 82.7302 146.957 82.3383 146.118C81.9463 145.278 81.8314 144.339 82.0096 143.431C82.1278 144.064 82.3855 144.663 82.7645 145.186C83.1435 145.709 83.6344 146.144 84.2026 146.459Z" fill="black"/>
<path d="M116.115 148.136L107.297 153.145C105.592 154.113 103.66 154.624 101.692 154.627C99.7249 154.631 97.7907 154.127 96.0818 153.165L84.2021 146.459C83.635 146.142 83.1454 145.707 82.7679 145.183C82.3904 144.659 82.1342 144.06 82.0175 143.427C82.1295 142.811 82.3738 142.226 82.734 141.711C83.0943 141.196 83.5621 140.763 84.106 140.441L93.8513 134.674C94.435 134.327 94.9179 133.838 95.2531 133.254C95.5884 132.669 95.7645 132.009 95.7644 131.337V126.764L117.815 139.324V145.252C117.813 145.838 117.655 146.412 117.356 146.918C117.058 147.424 116.63 147.844 116.115 148.136Z" fill="#453FB0"/>
<path opacity="0.4" d="M116.116 148.136C116.629 147.843 117.055 147.423 117.352 146.917C117.649 146.411 117.806 145.837 117.808 145.252V139.324L119.646 140.371V145.544C119.646 146.228 119.464 146.9 119.117 147.491C118.77 148.083 118.271 148.574 117.67 148.914L113.956 151.023V149.375L116.116 148.136Z" fill="black"/>
<path opacity="0.3" d="M116.115 148.136L113.964 149.371L90.944 136.391L93.868 134.678C94.4517 134.332 94.9346 133.842 95.2698 133.258C95.6051 132.673 95.7812 132.013 95.7811 131.341V126.764L117.815 139.324V145.252C117.813 145.838 117.655 146.412 117.356 146.918C117.058 147.424 116.63 147.844 116.115 148.136Z" fill="black"/>
<path d="M156.106 160.732L156.273 86.4274C156.273 84.3183 154.777 81.7478 152.931 80.6851L59.2466 27.4958C58.3234 26.9686 57.4838 26.9191 56.8698 27.2569L60.3995 25.259C61.0135 24.8718 61.8824 24.9048 62.8473 25.4526L156.503 78.6254C158.37 79.6882 159.874 82.2587 159.844 84.3678L159.677 158.673C159.677 159.67 159.331 160.378 158.779 160.732C158.719 160.773 158.657 160.809 158.591 160.84L155.128 162.846C155.726 162.504 156.106 161.771 156.106 160.732Z" fill="#453FB0"/>
<path opacity="0.3" d="M60.4007 25.259C61.0147 24.8718 61.8835 24.9048 62.8484 25.4526L156.504 78.6254C157.614 79.3149 158.506 80.2965 159.081 81.4595L155.476 83.5192C154.902 82.3606 154.013 81.3823 152.907 80.6933L59.2478 27.4958C58.3246 26.9686 57.485 26.9191 56.871 27.2569L60.4007 25.259Z" fill="white"/>
<path opacity="0.2" d="M159.867 84.3676L159.7 158.673C159.7 159.67 159.353 160.378 158.802 160.732C158.742 160.773 158.679 160.809 158.614 160.839L155.13 162.846C155.728 162.495 156.095 161.762 156.099 160.724L156.267 86.4191C156.24 85.3991 155.97 84.3998 155.477 83.5026L159.082 81.4429C159.574 82.3431 159.843 83.3453 159.867 84.3676Z" fill="black"/>
<path d="M55.8567 29.399C55.8567 28.3609 56.2326 27.6317 56.8258 27.2775H56.8466C57.4607 26.9397 58.3003 26.9891 59.2234 27.5164L152.908 80.685C154.771 81.7478 156.275 84.3183 156.25 86.4274L156.108 160.732C156.108 161.771 155.736 162.504 155.139 162.854L155.088 162.883H155.063C154.454 163.2 153.631 163.138 152.724 162.623L59.0563 109.446C57.1975 108.388 55.6896 105.813 55.7146 103.704L55.8567 29.399ZM60.723 106.604L152.766 158.879L152.933 86.4192C152.867 85.8487 152.682 85.298 152.39 84.8017C152.097 84.3053 151.703 83.8742 151.233 83.5356L59.1984 31.2527L59.0313 103.712C59.095 104.283 59.2783 104.835 59.5695 105.333C59.8607 105.831 60.2535 106.264 60.723 106.604Z" fill="#453FB0"/>
<path d="M59.199 31.2529L61.58 32.6082L61.4212 102.567C61.4851 103.138 61.6693 103.69 61.9621 104.186C62.2549 104.683 62.6497 105.114 63.1213 105.451L152.767 156.379V158.879L60.7153 106.604C60.2452 106.266 59.8514 105.835 59.5587 105.338C59.2661 104.842 59.081 104.291 59.0152 103.721L59.199 31.2529Z" fill="#453FB0"/>
<path opacity="0.3" d="M59.199 31.2529L61.58 32.6082L61.4212 102.567C61.4851 103.138 61.6693 103.69 61.9621 104.186C62.2549 104.683 62.6497 105.114 63.1213 105.451L152.767 156.379V158.879L60.7153 106.604C60.2452 106.266 59.8514 105.835 59.5587 105.338C59.2661 104.842 59.081 104.291 59.0152 103.721L59.199 31.2529Z" fill="black"/>
<path d="M61.4122 102.567L61.571 32.6079L151.241 83.5274C151.711 83.866 152.105 84.2971 152.398 84.7934C152.69 85.2897 152.876 85.8405 152.941 86.4109L152.766 156.378L63.1123 105.455C62.6403 105.117 62.2451 104.686 61.9523 104.188C61.6595 103.691 61.4755 103.139 61.4122 102.567Z" fill="#455A64"/>
<path d="M141.91 164.494L142.072 94.259C142.014 93.171 141.695 92.1122 141.143 91.1687C140.59 90.2252 139.82 89.4238 138.894 88.8296L50.372 38.5734C49.499 38.075 48.7012 38.0255 48.1247 38.3468L51.4664 36.4396C52.0512 36.0729 52.8741 36.1059 53.7847 36.6249L142.298 86.8853C143.224 87.4778 143.995 88.2784 144.547 89.2214C145.099 90.1645 145.416 91.2231 145.473 92.3105L145.314 162.542C145.314 163.481 144.988 164.156 144.479 164.502C144.422 164.541 144.364 164.575 144.303 164.605L141.016 166.492C141.559 166.162 141.91 165.47 141.91 164.494Z" fill="#453FB0"/>
<path opacity="0.4" d="M51.4572 36.4232C52.042 36.0566 52.8649 36.0895 53.7755 36.6086L142.297 86.8854C143.344 87.5369 144.187 88.4625 144.732 89.5589L141.324 91.4991C140.781 90.404 139.939 89.4797 138.893 88.8298L50.3712 38.5735C49.4981 38.0751 48.7003 38.0256 48.1239 38.347L51.4572 36.4232Z" fill="white"/>
<path opacity="0.3" d="M145.473 92.3106L145.314 162.542C145.314 163.481 144.988 164.156 144.479 164.502C144.422 164.541 144.364 164.575 144.303 164.605L141.016 166.492C141.575 166.163 141.926 165.47 141.93 164.49L142.072 94.259C142.044 93.2942 141.788 92.3492 141.325 91.4991L144.733 89.5588C145.194 90.4068 145.447 91.3491 145.473 92.3106Z" fill="white"/>
<path d="M142.062 98.3291L141.908 164.494C141.908 165.475 141.553 166.167 140.993 166.496L140.943 166.525H140.918C140.342 166.822 139.565 166.768 138.708 166.278L50.1866 116.022C49.2609 115.427 48.4904 114.626 47.9381 113.682C47.3857 112.739 47.067 111.68 47.0079 110.592L47.1582 44.3242L142.062 98.3291Z" fill="#453FB0"/>
<path opacity="0.5" d="M142.062 98.3291L141.908 164.494C141.908 165.475 141.553 166.167 140.993 166.496L140.943 166.525H140.918C140.342 166.822 139.565 166.768 138.708 166.278L50.1866 116.022C49.2609 115.427 48.4904 114.626 47.9381 113.682C47.3857 112.739 47.067 111.68 47.0079 110.592L47.1582 44.3242L142.062 98.3291Z" fill="white"/>
<path d="M50.8474 48.7401C50.0119 48.2746 49.3603 48.6454 49.3561 49.564C49.3834 50.0711 49.5319 50.5646 49.7897 51.0042C50.0474 51.4438 50.407 51.817 50.839 52.0933L126.721 95.3466C127.556 95.8121 128.212 95.4372 128.212 94.5227C128.185 94.015 128.037 93.5208 127.779 93.0804C127.521 92.6401 127.161 92.2662 126.729 91.9893L50.8474 48.7401Z" fill="#453FB0"/>
<g opacity="0.8">
<path opacity="0.8" d="M50.8474 48.7401C50.0119 48.2746 49.3603 48.6454 49.3561 49.564C49.3834 50.0711 49.5319 50.5646 49.7897 51.0042C50.0474 51.4438 50.407 51.817 50.839 52.0933L126.721 95.3466C127.556 95.8121 128.212 95.4372 128.212 94.5227C128.185 94.015 128.037 93.5208 127.779 93.0804C127.521 92.6401 127.161 92.2662 126.729 91.9893L50.8474 48.7401Z" fill="white"/>
</g>
<path d="M137.865 99.0868C137.85 99.0792 137.832 99.0752 137.815 99.0752C137.798 99.0752 137.78 99.0792 137.765 99.0868C137.702 99.1156 137.698 99.2227 137.765 99.3216L138.245 100.191L136.629 99.2722C136.545 99.2227 136.478 99.2722 136.478 99.3545C136.481 99.4059 136.496 99.4559 136.522 99.5003C136.548 99.5447 136.585 99.5823 136.629 99.6099L138.245 100.533L137.761 100.854C137.706 100.891 137.711 100.998 137.761 101.097C137.786 101.138 137.821 101.173 137.861 101.2C137.878 101.209 137.898 101.214 137.917 101.214C137.937 101.214 137.956 101.209 137.974 101.2L138.688 100.722C138.7 100.713 138.71 100.702 138.717 100.689C138.719 100.67 138.719 100.651 138.717 100.632C138.719 100.611 138.719 100.59 138.717 100.57C138.711 100.545 138.701 100.522 138.688 100.5L137.978 99.2104C137.955 99.1584 137.915 99.1151 137.865 99.0868Z" fill="#453FB0"/>
<path d="M133.779 96.7595C133.763 96.7488 133.743 96.7432 133.723 96.7432C133.703 96.7432 133.684 96.7488 133.667 96.7595L132.952 97.2332C132.94 97.2437 132.931 97.2562 132.923 97.2703C132.921 97.2881 132.921 97.306 132.923 97.3238C132.921 97.3444 132.921 97.3651 132.923 97.3856C132.93 97.4102 132.939 97.4337 132.952 97.4556L133.663 98.745C133.689 98.7928 133.726 98.8337 133.771 98.8645C133.787 98.8721 133.805 98.8761 133.823 98.8761C133.841 98.8761 133.859 98.8721 133.876 98.8645C133.934 98.8356 133.938 98.7326 133.876 98.6297L133.395 97.7605L135.012 98.6832C135.095 98.7285 135.162 98.6832 135.162 98.5967C135.159 98.5456 135.143 98.496 135.117 98.4517C135.091 98.4074 135.055 98.3696 135.012 98.3413L133.395 97.4227L133.88 97.1014C133.934 97.0643 133.93 96.9531 133.88 96.8583C133.855 96.818 133.82 96.7841 133.779 96.7595Z" fill="#453FB0"/>
<path d="M130.789 95.0582C130.642 94.9626 130.466 94.9204 130.292 94.9388C130.286 94.892 130.27 94.8471 130.245 94.8072C130.22 94.7673 130.186 94.7334 130.145 94.7081C130.066 94.6669 129.999 94.7081 130.003 94.8028V95.1818C130.008 95.23 130.023 95.2766 130.048 95.3185C130.072 95.3605 130.106 95.3967 130.145 95.4248L130.471 95.6267C130.551 95.672 130.618 95.6267 130.622 95.5484C130.62 95.5028 130.609 95.458 130.589 95.4168C130.569 95.3757 130.54 95.3392 130.505 95.3095C130.601 95.3172 130.694 95.3468 130.776 95.396C130.958 95.5128 131.11 95.6703 131.219 95.8556C131.328 96.041 131.391 96.249 131.403 96.4629C131.403 96.8749 131.119 97.0108 130.772 96.8131C130.509 96.6501 130.312 96.4027 130.212 96.1128C130.19 96.0459 130.144 95.989 130.083 95.9521C130.062 95.9384 130.037 95.9312 130.012 95.9315C129.937 95.9315 129.912 96.0221 129.949 96.1251C130.104 96.546 130.398 96.903 130.785 97.1385C131.294 97.4269 131.712 97.192 131.712 96.6153C131.692 96.3028 131.598 95.9993 131.437 95.7289C131.277 95.4586 131.055 95.2289 130.789 95.0582Z" fill="#453FB0"/>
<g opacity="0.7">
<path opacity="0.7" d="M137.865 99.087C137.85 99.0794 137.832 99.0754 137.815 99.0754C137.798 99.0754 137.78 99.0794 137.765 99.087C137.702 99.1159 137.698 99.223 137.765 99.3218L138.245 100.191L136.629 99.2724C136.545 99.223 136.478 99.2724 136.478 99.3548C136.481 99.4061 136.496 99.4561 136.522 99.5005C136.548 99.545 136.585 99.5826 136.629 99.6102L138.245 100.533L137.761 100.854C137.706 100.891 137.711 100.998 137.761 101.097C137.786 101.138 137.821 101.173 137.861 101.2C137.878 101.209 137.898 101.214 137.917 101.214C137.937 101.214 137.956 101.209 137.974 101.2L138.688 100.722C138.7 100.713 138.71 100.702 138.717 100.689C138.719 100.67 138.719 100.651 138.717 100.632C138.719 100.611 138.719 100.591 138.717 100.57C138.711 100.545 138.701 100.522 138.688 100.5L137.978 99.2106C137.955 99.1587 137.915 99.1154 137.865 99.087Z" fill="white"/>
<path opacity="0.7" d="M133.779 96.7595C133.763 96.7488 133.743 96.7432 133.723 96.7432C133.703 96.7432 133.684 96.7488 133.667 96.7595L132.952 97.2332C132.94 97.2437 132.931 97.2562 132.923 97.2703C132.921 97.2881 132.921 97.306 132.923 97.3238C132.921 97.3444 132.921 97.3651 132.923 97.3856C132.93 97.4102 132.939 97.4337 132.952 97.4556L133.663 98.745C133.689 98.7928 133.726 98.8337 133.771 98.8645C133.787 98.8721 133.805 98.8761 133.823 98.8761C133.841 98.8761 133.859 98.8721 133.876 98.8645C133.934 98.8356 133.938 98.7326 133.876 98.6297L133.395 97.7605L135.012 98.6832C135.095 98.7285 135.162 98.6832 135.162 98.5967C135.159 98.5456 135.143 98.496 135.117 98.4517C135.091 98.4074 135.055 98.3696 135.012 98.3413L133.395 97.4227L133.88 97.1014C133.934 97.0643 133.93 96.9531 133.88 96.8583C133.855 96.818 133.82 96.7841 133.779 96.7595Z" fill="white"/>
<path opacity="0.7" d="M130.788 95.0582C130.641 94.9626 130.465 94.9204 130.291 94.9388C130.285 94.892 130.269 94.8471 130.244 94.8072C130.219 94.7673 130.185 94.7334 130.145 94.7081C130.065 94.6669 129.998 94.7081 130.002 94.8028V95.1818C130.007 95.23 130.022 95.2766 130.047 95.3185C130.071 95.3605 130.105 95.3967 130.145 95.4248L130.47 95.6267C130.55 95.672 130.617 95.6267 130.621 95.5484C130.619 95.5028 130.608 95.458 130.588 95.4168C130.568 95.3757 130.539 95.3392 130.504 95.3095C130.6 95.3172 130.693 95.3468 130.775 95.396C130.957 95.5128 131.109 95.6703 131.218 95.8556C131.327 96.041 131.39 96.249 131.402 96.4629C131.402 96.8749 131.118 97.0108 130.771 96.8131C130.508 96.6501 130.311 96.4027 130.211 96.1128C130.189 96.0459 130.143 95.989 130.082 95.9521C130.061 95.9384 130.036 95.9312 130.011 95.9315C129.936 95.9315 129.911 96.0221 129.948 96.1251C130.103 96.546 130.397 96.903 130.784 97.1385C131.293 97.4269 131.711 97.192 131.711 96.6153C131.691 96.3028 131.597 95.9993 131.436 95.7289C131.276 95.4586 131.054 95.2289 130.788 95.0582Z" fill="white"/>
</g>
<path d="M104.022 132.573L51.6076 102.749C51.4691 102.67 51.312 102.629 51.1521 102.629C50.9922 102.629 50.8351 102.67 50.6966 102.749C50.5582 102.828 50.4432 102.942 50.3634 103.078C50.2835 103.215 50.2415 103.37 50.2417 103.528V110.016C50.2419 110.41 50.3474 110.797 50.5476 111.138C50.7478 111.48 51.0356 111.763 51.382 111.96L103.801 141.838C103.94 141.916 104.097 141.957 104.257 141.957C104.417 141.957 104.574 141.916 104.713 141.837C104.852 141.758 104.967 141.645 105.047 141.508C105.128 141.372 105.17 141.217 105.171 141.059V134.53C105.172 134.133 105.066 133.743 104.864 133.399C104.662 133.055 104.372 132.77 104.022 132.573Z" fill="#453FB0"/>
<path d="M51.2233 64.0022V57.4853C51.2239 57.328 51.2664 57.1735 51.3466 57.0375C51.4267 56.9014 51.5417 56.7885 51.6801 56.7101C51.8184 56.6316 51.9752 56.5904 52.1348 56.5906C52.2943 56.5907 52.4511 56.6322 52.5893 56.7109L104.026 85.8142C104.374 86.0111 104.663 86.2949 104.864 86.637C105.065 86.9791 105.171 87.3673 105.171 87.7626V94.4649C105.17 94.6227 105.128 94.7776 105.047 94.914C104.967 95.0505 104.852 95.1638 104.713 95.2426C104.574 95.3214 104.417 95.363 104.257 95.3631C104.097 95.3632 103.94 95.322 103.801 95.2434L52.3595 65.9547C52.0126 65.7567 51.7248 65.4719 51.5253 65.129C51.3258 64.7862 51.2216 64.3975 51.2233 64.0022Z" fill="#453FB0"/>
<path d="M68.9467 72.5254V73.5429L102.172 92.459L102.176 91.4456L68.9467 72.5254Z" fill="white"/>
<path d="M68.9548 70.6511L68.9507 71.6604L102.18 90.5806V89.5672L68.9548 70.6511Z" fill="white"/>
<path d="M83.5116 76.8262L83.5074 77.8437L102.183 88.4757L102.188 87.4624L83.5116 76.8262Z" fill="white"/>
<path d="M55.8804 63.0918L55.8762 64.1052L61.7868 67.4707L61.791 66.4532L55.8804 63.0918Z" fill="#453FB0"/>
<path d="M55.5881 60.9289C54.3726 60.2368 53.3826 60.7888 53.3784 62.1647C53.4186 62.9173 53.6385 63.6499 54.0204 64.3028C54.4022 64.9557 54.9351 65.5103 55.5756 65.9215L62.0752 69.629C63.2949 70.3251 64.2849 69.769 64.2891 68.3931C64.2496 67.6409 64.0299 66.9086 63.648 66.2563C63.266 65.604 62.7328 65.0502 62.0919 64.6404L55.5881 60.9289ZM55.8596 64.1049V63.0915L61.7912 66.4529V67.4663L55.8596 64.1049Z" fill="white"/>
<path d="M74.5516 112.64L52.0661 99.8202C51.5117 99.5045 51.0512 99.0506 50.7308 98.504C50.4104 97.9574 50.2414 97.3373 50.2407 96.706V70.4038C50.2406 70.1671 50.3038 69.9346 50.4238 69.7297C50.5439 69.5247 50.7166 69.3546 50.9245 69.2364C51.1325 69.1182 51.3683 69.0561 51.6083 69.0564C51.8483 69.0567 52.084 69.1193 52.2917 69.2381L74.7813 82.041C75.3353 82.3569 75.7952 82.811 76.1148 83.3576C76.4345 83.9043 76.6027 84.5242 76.6025 85.1553V111.47C76.6021 111.706 76.5387 111.939 76.4186 112.143C76.2985 112.348 76.1261 112.518 75.9184 112.637C75.7108 112.755 75.4753 112.818 75.2354 112.818C74.9955 112.819 74.7597 112.757 74.5516 112.64Z" fill="#453FB0"/>
<path d="M64.9734 87.2398L64.2257 86.8278C64.202 86.8141 64.1847 86.7916 64.1777 86.7654C64.1707 86.7392 64.1744 86.7113 64.1881 86.6878C64.1946 86.6753 64.2037 86.6643 64.2147 86.6554C64.2257 86.6465 64.2385 86.6399 64.2522 86.636C64.2659 86.6322 64.2802 86.6311 64.2943 86.6329C64.3085 86.6348 64.3221 86.6394 64.3343 86.6466L65.082 87.0585C65.1017 87.0707 65.1169 87.0888 65.1254 87.1102C65.1338 87.1316 65.1351 87.1551 65.129 87.1772C65.123 87.1993 65.1098 87.219 65.0916 87.2332C65.0733 87.2474 65.051 87.2555 65.0277 87.2562C65.0086 87.2545 64.9901 87.2489 64.9734 87.2398Z" fill="white"/>
<path d="M68.7176 89.357L67.9699 88.9451C67.9455 88.9314 67.9277 88.9088 67.9202 88.8821C67.9128 88.8555 67.9164 88.827 67.9302 88.803C67.9441 88.779 67.967 88.7613 67.9941 88.754C68.0211 88.7466 68.05 88.7502 68.0743 88.7639L68.822 89.1758C68.8467 89.1896 68.865 89.2125 68.8728 89.2395C68.8806 89.2664 68.8774 89.2953 68.8638 89.32C68.854 89.3352 68.8404 89.3477 68.8243 89.3563C68.8082 89.365 68.7902 89.3695 68.7719 89.3694C68.7531 89.3697 68.7344 89.3654 68.7176 89.357Z" fill="white"/>
<path d="M72.4558 91.4744L71.7081 91.0624C71.6891 91.046 71.6764 91.0235 71.6724 90.9988C71.6684 90.9741 71.6733 90.9489 71.6862 90.9274C71.6991 90.9059 71.7192 90.8895 71.743 90.881C71.7669 90.8726 71.7929 90.8727 71.8167 90.8812L72.5644 91.2931C72.5884 91.3077 72.6058 91.3308 72.6128 91.3577C72.6198 91.3846 72.6159 91.4131 72.602 91.4373C72.5925 91.4528 72.579 91.4655 72.5628 91.4742C72.5467 91.4829 72.5285 91.4872 72.5101 91.4867C72.4913 91.4865 72.4728 91.4823 72.4558 91.4744Z" fill="white"/>
<path d="M70.5889 90.4158L69.8412 90.0038C69.8286 89.9974 69.8174 89.9884 69.8084 89.9776C69.7993 89.9667 69.7927 89.9541 69.7888 89.9406C69.7848 89.9271 69.7838 89.913 69.7856 89.8991C69.7874 89.8851 69.7921 89.8717 69.7994 89.8597C69.8142 89.836 69.8377 89.8189 69.8649 89.812C69.8922 89.8051 69.9211 89.8089 69.9456 89.8226L70.6933 90.2345C70.7173 90.249 70.7347 90.2722 70.7417 90.2991C70.7487 90.326 70.7449 90.3545 70.7309 90.3787C70.7217 90.3945 70.7083 90.4074 70.692 90.4162C70.6758 90.4249 70.6575 90.429 70.639 90.4281L70.5889 90.4158Z" fill="white"/>
<path d="M66.8466 88.2862L66.0989 87.8743C66.0752 87.8605 66.0579 87.8381 66.0509 87.8119C66.0439 87.7856 66.0476 87.7577 66.0613 87.7342C66.0674 87.7219 66.0761 87.7109 66.0867 87.7021C66.0973 87.6932 66.1097 87.6866 66.1231 87.6827C66.1365 87.6789 66.1505 87.6778 66.1643 87.6795C66.1781 87.6813 66.1914 87.6859 66.2033 87.693L66.951 88.1049C66.9715 88.1159 66.9877 88.1332 66.9971 88.1542C67.0064 88.1753 67.0084 88.1988 67.0026 88.2211C66.9969 88.2433 66.9837 88.263 66.9653 88.2771C66.9469 88.2911 66.9242 88.2987 66.9009 88.2986C66.8821 88.2988 66.8634 88.2946 66.8466 88.2862Z" fill="white"/>
<path d="M55.6218 81.9463L54.8741 81.5343C54.8501 81.5198 54.8328 81.4966 54.8258 81.4697C54.8188 81.4428 54.8226 81.4143 54.8365 81.3902C54.8431 81.3777 54.8521 81.3667 54.8631 81.3578C54.8742 81.3489 54.8869 81.3423 54.9006 81.3384C54.9143 81.3346 54.9287 81.3335 54.9428 81.3353C54.9569 81.3371 54.9705 81.3418 54.9827 81.349L55.7304 81.7609C55.7501 81.7731 55.7653 81.7912 55.7738 81.8126C55.7823 81.834 55.7836 81.8574 55.7775 81.8796C55.7714 81.9017 55.7583 81.9214 55.74 81.9356C55.7218 81.9498 55.6994 81.9579 55.6761 81.9586C55.6572 81.9602 55.6382 81.9558 55.6218 81.9463Z" fill="white"/>
<path d="M61.2354 85.1223L60.4877 84.7104C60.4752 84.7044 60.4641 84.6958 60.4551 84.6853C60.4461 84.6749 60.4394 84.6626 60.4355 84.6495C60.4316 84.6363 60.4305 84.6224 60.4323 84.6088C60.4341 84.5952 60.4387 84.5821 60.4459 84.5703C60.4525 84.5579 60.4615 84.5468 60.4725 84.5379C60.4836 84.529 60.4963 84.5225 60.51 84.5186C60.5237 84.5148 60.538 84.5137 60.5522 84.5155C60.5663 84.5173 60.5799 84.522 60.5921 84.5292L61.3398 84.9411C61.3638 84.9556 61.3812 84.9788 61.3882 85.0057C61.3952 85.0326 61.3913 85.0611 61.3774 85.0853C61.3684 85.1015 61.3551 85.1151 61.3389 85.1245C61.3228 85.1339 61.3043 85.1389 61.2855 85.1388C61.2678 85.1372 61.2506 85.1315 61.2354 85.1223Z" fill="white"/>
<path d="M57.4929 83.0052L56.7452 82.5933C56.7215 82.5795 56.7043 82.5571 56.6972 82.5308C56.6902 82.5046 56.6939 82.4767 56.7076 82.4532C56.7137 82.4409 56.7224 82.4299 56.733 82.421C56.7437 82.4122 56.7561 82.4056 56.7694 82.4017C56.7828 82.3978 56.7968 82.3968 56.8106 82.3985C56.8245 82.4003 56.8377 82.4049 56.8496 82.412L57.6015 82.8239C57.6212 82.8361 57.6364 82.8543 57.6449 82.8756C57.6534 82.897 57.6546 82.9205 57.6486 82.9426C57.6425 82.9648 57.6294 82.9844 57.6111 82.9986C57.5929 83.0129 57.5705 83.0209 57.5472 83.0217C57.5278 83.022 57.5088 83.0162 57.4929 83.0052Z" fill="white"/>
<path d="M53.8051 80.904C53.7888 80.9094 53.7712 80.9094 53.7549 80.904L53.0031 80.4921C52.9791 80.4776 52.9617 80.4544 52.9547 80.4275C52.9477 80.4006 52.9515 80.3721 52.9655 80.3479C52.972 80.3355 52.9811 80.3244 52.9921 80.3155C53.0031 80.3066 53.0159 80.3001 53.0295 80.2962C53.0432 80.2923 53.0576 80.2913 53.0717 80.2931C53.0858 80.2949 53.0994 80.2996 53.1117 80.3067L53.8594 80.7187C53.8834 80.7332 53.9007 80.7564 53.9077 80.7833C53.9147 80.8102 53.9109 80.8387 53.897 80.8628C53.8864 80.8768 53.8725 80.8879 53.8564 80.8951C53.8403 80.9023 53.8227 80.9054 53.8051 80.904Z" fill="white"/>
<path d="M59.3631 84.0637L58.6154 83.6518C58.6033 83.6453 58.5926 83.6366 58.584 83.626C58.5753 83.6155 58.5689 83.6034 58.565 83.5903C58.5611 83.5773 58.5599 83.5637 58.5614 83.5502C58.5629 83.5367 58.567 83.5236 58.5736 83.5118C58.5802 83.4993 58.5892 83.4882 58.6003 83.4793C58.6113 83.4705 58.624 83.4639 58.6377 83.46C58.6514 83.4562 58.6658 83.4551 58.6799 83.4569C58.694 83.4587 58.7076 83.4634 58.7198 83.4706L59.4675 83.8825C59.4923 83.8964 59.5105 83.9192 59.5183 83.9462C59.5261 83.9731 59.5229 84.002 59.5093 84.0267C59.4997 84.0424 59.4862 84.0555 59.4702 84.0648C59.4542 84.0742 59.436 84.0795 59.4174 84.0802C59.3979 84.0812 59.3787 84.0753 59.3631 84.0637Z" fill="white"/>
<path d="M51.4612 85.3447C51.4612 85.3174 51.4721 85.2912 51.4917 85.2719C51.5112 85.2526 51.5378 85.2417 51.5654 85.2417C51.5935 85.2417 51.6204 85.2524 51.6406 85.2716C51.6608 85.2908 51.6727 85.317 51.6738 85.3447V86.1686C51.6727 86.1962 51.6608 86.2224 51.6406 86.2416C51.6204 86.2608 51.5935 86.2716 51.5654 86.2715C51.5378 86.2715 51.5112 86.2607 51.4917 86.2414C51.4721 86.2221 51.4612 86.1959 51.4612 86.1686V85.3447Z" fill="white"/>
<path d="M51.4612 83.2685C51.4612 83.2412 51.4721 83.215 51.4917 83.1957C51.5112 83.1764 51.5378 83.1655 51.5654 83.1655C51.5935 83.1655 51.6204 83.1762 51.6406 83.1954C51.6608 83.2146 51.6727 83.2408 51.6738 83.2685V84.0924C51.6727 84.1201 51.6608 84.1463 51.6406 84.1655C51.6204 84.1847 51.5935 84.1954 51.5654 84.1954C51.5378 84.1954 51.5112 84.1845 51.4917 84.1652C51.4721 84.1459 51.4612 84.1197 51.4612 84.0924V83.2685Z" fill="white"/>
<path d="M51.4612 87.4213C51.4611 87.3936 51.472 87.367 51.4914 87.347C51.5109 87.327 51.5374 87.3153 51.5654 87.3142C51.5942 87.3142 51.6217 87.3255 51.6421 87.3456C51.6624 87.3657 51.6738 87.3929 51.6738 87.4213V88.2452C51.6738 88.2736 51.6624 88.3008 51.6421 88.3209C51.6217 88.341 51.5942 88.3523 51.5654 88.3523C51.5374 88.3512 51.5109 88.3395 51.4914 88.3195C51.472 88.2995 51.4611 88.2729 51.4612 88.2452V87.4213Z" fill="white"/>
<path d="M51.4612 89.497C51.4606 89.4831 51.4629 89.4693 51.4679 89.4563C51.4728 89.4434 51.4804 89.4315 51.4902 89.4215C51.4999 89.4115 51.5116 89.4035 51.5245 89.3981C51.5374 89.3927 51.5514 89.3899 51.5654 89.3899C51.5942 89.3899 51.6217 89.4012 51.6421 89.4213C51.6624 89.4414 51.6738 89.4686 51.6738 89.497V90.3209C51.6738 90.3493 51.6624 90.3765 51.6421 90.3966C51.6217 90.4167 51.5942 90.428 51.5654 90.428C51.5374 90.4269 51.5109 90.4152 51.4914 90.3952C51.472 90.3752 51.4611 90.3486 51.4612 90.3209V89.497Z" fill="white"/>
<path d="M51.4612 91.5815C51.4612 91.5542 51.4721 91.528 51.4917 91.5087C51.5112 91.4894 51.5378 91.4785 51.5654 91.4785C51.5935 91.4785 51.6204 91.4892 51.6406 91.5084C51.6608 91.5276 51.6727 91.5538 51.6738 91.5815V92.4054C51.6727 92.4331 51.6608 92.4593 51.6406 92.4785C51.6204 92.4977 51.5935 92.5084 51.5654 92.5084C51.5378 92.5084 51.5112 92.4975 51.4917 92.4782C51.4721 92.4589 51.4612 92.4327 51.4612 92.4054V91.5815Z" fill="white"/>
<path d="M51.5654 93.5425C51.5935 93.5425 51.6204 93.5532 51.6406 93.5724C51.6608 93.5916 51.6727 93.6178 51.6738 93.6455V94.4693C51.6738 94.4977 51.6624 94.525 51.6421 94.5451C51.6217 94.5652 51.5942 94.5764 51.5654 94.5764C51.5514 94.5765 51.5374 94.5737 51.5245 94.5682C51.5116 94.5628 51.4999 94.5548 51.4902 94.5448C51.4804 94.5348 51.4728 94.523 51.4679 94.51C51.4629 94.497 51.4606 94.4832 51.4612 94.4693V93.6455C51.4612 93.6182 51.4721 93.592 51.4917 93.5726C51.5112 93.5533 51.5378 93.5425 51.5654 93.5425Z" fill="white"/>
<path d="M51.4612 81.1967C51.4611 81.169 51.472 81.1424 51.4914 81.1224C51.5109 81.1024 51.5374 81.0907 51.5654 81.0896C51.5942 81.0896 51.6217 81.1009 51.6421 81.121C51.6624 81.1411 51.6738 81.1683 51.6738 81.1967V82.0206C51.6738 82.049 51.6624 82.0762 51.6421 82.0963C51.6217 82.1164 51.5942 82.1277 51.5654 82.1277C51.5374 82.1266 51.5109 82.1149 51.4914 82.0949C51.472 82.0749 51.4611 82.0483 51.4612 82.0206V81.1967Z" fill="white"/>
<path d="M60.5633 101.134L61.3068 101.546C61.3195 101.553 61.3306 101.562 61.3397 101.572C61.3487 101.583 61.3553 101.596 61.3593 101.609C61.3632 101.623 61.3642 101.637 61.3624 101.651C61.3606 101.665 61.3559 101.678 61.3486 101.69C61.3392 101.706 61.3258 101.72 61.3097 101.729C61.2936 101.738 61.2754 101.744 61.2567 101.744C61.2391 101.75 61.22 101.75 61.2024 101.744L60.4547 101.332C60.4356 101.316 60.423 101.293 60.419 101.268C60.415 101.244 60.4198 101.218 60.4327 101.197C60.4456 101.175 60.4657 101.159 60.4895 101.151C60.5134 101.142 60.5395 101.142 60.5633 101.151V101.134Z" fill="white"/>
<path d="M71.732 107.494L72.4756 107.906C72.4996 107.921 72.5169 107.944 72.5239 107.971C72.5309 107.998 72.5271 108.026 72.5132 108.05C72.5041 108.067 72.4909 108.08 72.4747 108.09C72.4585 108.099 72.4401 108.104 72.4213 108.104C72.405 108.109 72.3874 108.109 72.3711 108.104L71.6234 107.692C71.5997 107.678 71.5825 107.656 71.5754 107.63C71.5684 107.603 71.5721 107.575 71.5858 107.552C71.5908 107.538 71.5987 107.525 71.609 107.515C71.6193 107.504 71.6318 107.496 71.6456 107.49C71.6595 107.485 71.6744 107.482 71.6893 107.483C71.7042 107.484 71.7188 107.488 71.732 107.494Z" fill="white"/>
<path d="M69.8822 106.436L70.6299 106.848C70.6539 106.862 70.6712 106.885 70.6782 106.912C70.6852 106.939 70.6814 106.968 70.6675 106.992C70.6579 107.007 70.6444 107.02 70.6282 107.029C70.6121 107.037 70.5939 107.042 70.5756 107.041C70.5577 107.045 70.5392 107.045 70.5213 107.041L69.7777 106.629C69.7534 106.616 69.7355 106.593 69.7281 106.566C69.7206 106.54 69.7242 106.511 69.7381 106.487C69.7519 106.463 69.7749 106.445 69.8019 106.438C69.8289 106.431 69.8578 106.434 69.8822 106.448V106.436Z" fill="white"/>
<path d="M54.9691 97.9541L55.7168 98.366C55.7365 98.3782 55.7517 98.3964 55.7601 98.4177C55.7686 98.4391 55.7699 98.4626 55.7638 98.4847C55.7577 98.5069 55.7446 98.5265 55.7264 98.5407C55.7081 98.555 55.6857 98.563 55.6625 98.5638C55.6448 98.5692 55.6258 98.5692 55.6082 98.5638L54.8646 98.1518C54.8403 98.1382 54.8224 98.1155 54.8149 98.0889C54.8075 98.0622 54.8111 98.0337 54.8249 98.0097C54.8388 97.9857 54.8618 97.9681 54.8888 97.9607C54.9158 97.9534 54.9447 97.9569 54.9691 97.9706V97.9541Z" fill="white"/>
<path d="M66.1557 104.315L66.8992 104.727C66.9239 104.741 66.9421 104.763 66.9499 104.79C66.9577 104.817 66.9545 104.846 66.941 104.871C66.9313 104.887 66.9179 104.9 66.9018 104.909C66.8858 104.918 66.8677 104.924 66.8491 104.924C66.8315 104.93 66.8124 104.93 66.7948 104.924L66.0471 104.513C66.0234 104.499 66.0061 104.476 65.9991 104.45C65.992 104.424 65.9958 104.396 66.0095 104.372C66.0144 104.359 66.0223 104.346 66.0326 104.335C66.0429 104.325 66.0554 104.316 66.0693 104.311C66.0831 104.305 66.098 104.303 66.1129 104.304C66.1278 104.304 66.1424 104.308 66.1557 104.315Z" fill="white"/>
<path d="M56.8324 98.9966L57.5801 99.4085C57.6041 99.4231 57.6214 99.4462 57.6284 99.4731C57.6354 99.5 57.6316 99.5286 57.6177 99.5527C57.6086 99.569 57.5953 99.5825 57.5792 99.5919C57.563 99.6014 57.5445 99.6063 57.5258 99.6063H57.4715L56.7279 99.1943C56.7039 99.1798 56.6866 99.1566 56.6796 99.1297C56.6726 99.1028 56.6764 99.0743 56.6903 99.0501C56.6958 99.0372 56.7038 99.0254 56.714 99.0156C56.7242 99.0058 56.7363 98.9981 56.7496 98.9931C56.7629 98.9881 56.7771 98.9858 56.7914 98.9864C56.8056 98.987 56.8195 98.9905 56.8324 98.9966Z" fill="white"/>
<path d="M64.2884 103.256L65.0361 103.668C65.0601 103.682 65.0775 103.705 65.0845 103.732C65.0915 103.759 65.0876 103.788 65.0737 103.812C65.0645 103.828 65.051 103.841 65.0348 103.849C65.0186 103.858 65.0003 103.862 64.9818 103.861C64.9653 103.865 64.9482 103.865 64.9317 103.861L64.184 103.449C64.16 103.435 64.1426 103.412 64.1356 103.385C64.1286 103.358 64.1325 103.329 64.1464 103.305C64.1522 103.293 64.1605 103.281 64.1709 103.272C64.1813 103.263 64.1935 103.255 64.2067 103.251C64.22 103.246 64.2341 103.244 64.2481 103.245C64.2621 103.246 64.2758 103.25 64.2884 103.256Z" fill="white"/>
<path d="M53.1062 96.8955L53.8498 97.3075C53.8624 97.3139 53.8736 97.3228 53.8826 97.3337C53.8916 97.3446 53.8983 97.3571 53.9022 97.3706C53.9061 97.3842 53.9072 97.3983 53.9054 97.4122C53.9035 97.4262 53.8988 97.4396 53.8915 97.4516C53.8817 97.4668 53.8681 97.4793 53.852 97.488C53.836 97.4966 53.8179 97.5011 53.7996 97.5011C53.7818 97.5053 53.7632 97.5053 53.7453 97.5011L52.9976 97.0891C52.9826 97.0838 52.969 97.0752 52.9578 97.064C52.9465 97.0529 52.9379 97.0394 52.9325 97.0246C52.9271 97.0098 52.9251 96.994 52.9266 96.9783C52.9281 96.9627 52.9331 96.9475 52.9412 96.934C52.9493 96.9204 52.9604 96.9088 52.9736 96.8999C52.9867 96.8911 53.0018 96.8852 53.0175 96.8827C53.0333 96.8802 53.0494 96.8812 53.0647 96.8855C53.0801 96.8899 53.0942 96.8975 53.1062 96.9079V96.8955Z" fill="white"/>
<path d="M58.6986 100.075L59.4421 100.487C59.4669 100.501 59.4851 100.524 59.4929 100.551C59.5007 100.578 59.4975 100.607 59.4839 100.632C59.4734 100.647 59.4591 100.66 59.4423 100.668C59.4255 100.677 59.4068 100.681 59.3879 100.681H59.3377L58.59 100.269C58.575 100.264 58.5614 100.255 58.5501 100.244C58.5389 100.233 58.5302 100.219 58.5248 100.205C58.5195 100.19 58.5174 100.174 58.519 100.158C58.5205 100.143 58.5255 100.127 58.5336 100.114C58.5417 100.1 58.5527 100.089 58.5659 100.08C58.5791 100.071 58.5941 100.065 58.6099 100.063C58.6256 100.06 58.6418 100.061 58.6571 100.065C58.6724 100.07 58.6866 100.077 58.6986 100.088V100.075Z" fill="white"/>
<path d="M68.0172 105.377L68.7649 105.789C68.7886 105.803 68.8059 105.825 68.8129 105.852C68.82 105.878 68.8162 105.906 68.8025 105.929C68.7939 105.946 68.7807 105.96 68.7644 105.969C68.7482 105.978 68.7295 105.983 68.7106 105.983C68.6928 105.987 68.6742 105.987 68.6563 105.983L67.9128 105.571C67.9001 105.564 67.889 105.555 67.8799 105.545C67.8709 105.534 67.8643 105.521 67.8603 105.508C67.8564 105.494 67.8554 105.48 67.8572 105.466C67.859 105.452 67.8637 105.439 67.871 105.427C67.8773 105.414 67.886 105.402 67.8968 105.393C67.9075 105.384 67.9201 105.376 67.9337 105.372C67.9473 105.367 67.9617 105.365 67.976 105.366C67.9903 105.367 68.0044 105.371 68.0172 105.377Z" fill="white"/>
<path d="M73.967 100.022C73.9947 100.022 74.0212 100.033 74.0407 100.052C74.0603 100.071 74.0713 100.098 74.0713 100.125V100.949C74.0713 100.976 74.0603 101.002 74.0407 101.022C74.0212 101.041 73.9947 101.052 73.967 101.052C73.939 101.052 73.912 101.041 73.8918 101.022C73.8716 101.003 73.8597 100.977 73.8586 100.949V100.125C73.8597 100.097 73.8716 100.071 73.8918 100.052C73.912 100.033 73.939 100.022 73.967 100.022Z" fill="white"/>
<path d="M73.9534 102.098C73.9814 102.099 74.0079 102.111 74.0273 102.131C74.0468 102.151 74.0576 102.178 74.0576 102.205V103.029C74.0576 103.056 74.0466 103.083 74.0271 103.102C74.0075 103.121 73.981 103.132 73.9534 103.132C73.9246 103.132 73.897 103.121 73.8767 103.101C73.8564 103.081 73.8449 103.053 73.8449 103.025V102.201C73.846 102.173 73.8579 102.147 73.8781 102.128C73.8983 102.109 73.9253 102.098 73.9534 102.098Z" fill="white"/>
<path d="M73.9924 93.7896C74.0201 93.7896 74.0466 93.8004 74.0661 93.8197C74.0857 93.839 74.0967 93.8652 74.0967 93.8925V94.7164C74.0967 94.7437 74.0857 94.7699 74.0661 94.7892C74.0466 94.8085 74.0201 94.8194 73.9924 94.8194C73.9648 94.8194 73.9383 94.8085 73.9187 94.7892C73.8992 94.7699 73.8882 94.7437 73.8882 94.7164V93.8925C73.8882 93.8652 73.8992 93.839 73.9187 93.8197C73.9383 93.8004 73.9648 93.7896 73.9924 93.7896Z" fill="white"/>
<path d="M73.9386 106.254C73.9525 106.254 73.9663 106.256 73.9792 106.261C73.9921 106.266 74.0039 106.274 74.0137 106.283C74.0235 106.293 74.0311 106.305 74.0361 106.317C74.0412 106.33 74.0435 106.344 74.0429 106.357V107.181C74.0429 107.21 74.0315 107.237 74.0111 107.257C73.9908 107.277 73.9632 107.288 73.9345 107.288C73.9064 107.287 73.8799 107.276 73.8605 107.256C73.841 107.236 73.8302 107.209 73.8302 107.181V106.357C73.8302 106.33 73.8412 106.304 73.8607 106.285C73.8803 106.265 73.9068 106.254 73.9345 106.254H73.9386Z" fill="white"/>
<path d="M73.9834 95.8657C74.0121 95.8657 74.0397 95.877 74.06 95.8971C74.0804 95.9172 74.0918 95.9444 74.0918 95.9728V96.7967C74.0918 96.8251 74.0804 96.8523 74.06 96.8724C74.0397 96.8925 74.0121 96.9038 73.9834 96.9038C73.9554 96.9027 73.9288 96.891 73.9094 96.871C73.89 96.851 73.8791 96.8244 73.8791 96.7967V95.9728C73.8786 95.959 73.8808 95.9451 73.8858 95.9321C73.8908 95.9192 73.8984 95.9073 73.9081 95.8973C73.9179 95.8873 73.9296 95.8794 73.9425 95.8739C73.9554 95.8685 73.9693 95.8657 73.9834 95.8657Z" fill="white"/>
<path d="M73.9749 97.9458C74.0025 97.9458 74.029 97.9567 74.0486 97.976C74.0681 97.9953 74.0791 98.0215 74.0791 98.0488V98.8727C74.078 98.9003 74.0661 98.9265 74.0459 98.9457C74.0257 98.9649 73.9987 98.9757 73.9707 98.9756C73.943 98.9756 73.9165 98.9648 73.897 98.9455C73.8774 98.9262 73.8664 98.9 73.8664 98.8727V98.0488C73.8675 98.0211 73.8794 97.9949 73.8996 97.9757C73.9198 97.9565 73.9468 97.9458 73.9749 97.9458Z" fill="white"/>
<path d="M73.9463 104.179C73.9743 104.179 74.0013 104.189 74.0215 104.209C74.0417 104.228 74.0536 104.254 74.0547 104.282V105.106C74.0536 105.133 74.0417 105.159 74.0215 105.179C74.0013 105.198 73.9743 105.209 73.9463 105.209C73.9186 105.209 73.8921 105.198 73.8726 105.178C73.853 105.159 73.842 105.133 73.842 105.106V104.282C73.842 104.254 73.853 104.228 73.8726 104.209C73.8921 104.19 73.9186 104.179 73.9463 104.179Z" fill="white"/>
<path d="M72.9436 91.2025C72.9592 91.1925 72.9773 91.1873 72.9958 91.1873C73.0143 91.1873 73.0325 91.1925 73.048 91.2025L74.3012 91.9069C74.3176 91.9158 74.3314 91.9289 74.3409 91.9448C74.3505 91.9608 74.3555 91.979 74.3555 91.9975V93.3981C74.3555 93.4166 74.3505 93.4348 74.3409 93.4508C74.3314 93.4667 74.3176 93.4798 74.3012 93.4887C74.2849 93.4941 74.2673 93.4941 74.251 93.4887C74.2334 93.4947 74.2143 93.4947 74.1967 93.4887L72.9436 92.7843C72.9271 92.7754 72.9134 92.7623 72.9038 92.7464C72.8943 92.7304 72.8892 92.7122 72.8893 92.6937V91.2931C72.8892 91.2746 72.8943 91.2564 72.9038 91.2404C72.9134 91.2245 72.9271 91.2114 72.9436 91.2025ZM73.1023 91.4744V92.6319L74.1216 93.2292V92.0675L73.1023 91.4744Z" fill="white"/>
<path d="M62.125 85.0111C62.1412 85.0008 62.16 84.9954 62.1793 84.9954C62.1985 84.9954 62.2174 85.0008 62.2336 85.0111L63.4867 85.7155C63.5032 85.7244 63.5169 85.7375 63.5265 85.7535C63.536 85.7694 63.5411 85.7876 63.541 85.8062V87.2067C63.5411 87.2253 63.536 87.2435 63.5265 87.2594C63.5169 87.2754 63.5032 87.2885 63.4867 87.2974C63.4691 87.3033 63.45 87.3033 63.4324 87.2974C63.4161 87.3027 63.3986 87.3027 63.3823 87.2974L62.1291 86.593C62.1137 86.5832 62.101 86.5698 62.0923 86.554C62.0835 86.5381 62.079 86.5204 62.079 86.5023V85.1017C62.0785 85.0841 62.0824 85.0665 62.0904 85.0507C62.0984 85.0349 62.1103 85.0213 62.125 85.0111ZM62.2837 85.283V86.4447L63.3071 87.0255V85.8679L62.2837 85.283Z" fill="white"/>
<path d="M52.7506 81.4396C52.7337 81.4476 52.7151 81.4518 52.6963 81.4518C52.6775 81.4518 52.659 81.4476 52.642 81.4396L51.3889 80.7352C51.3727 80.726 51.3592 80.7128 51.3497 80.6969C51.3402 80.681 51.335 80.663 51.3346 80.6445V79.2234C51.335 79.2049 51.3402 79.1869 51.3497 79.171C51.3592 79.1551 51.3727 79.142 51.3889 79.1327C51.4051 79.1248 51.423 79.1206 51.4411 79.1206C51.4592 79.1206 51.4771 79.1248 51.4933 79.1327L52.7465 79.8372C52.7616 79.8471 52.7741 79.8606 52.7828 79.8764C52.7916 79.8922 52.7963 79.9098 52.7966 79.9278V81.3325C52.7997 81.3528 52.797 81.3735 52.7889 81.3924C52.7808 81.4113 52.7676 81.4276 52.7506 81.4396ZM51.5685 79.4211V80.5828L52.5961 81.1677V80.006L51.5685 79.4211Z" fill="white"/>
<path d="M72.9436 107.379C72.9592 107.369 72.9773 107.364 72.9958 107.364C73.0143 107.364 73.0325 107.369 73.048 107.379L74.3012 108.084C74.3174 108.093 74.3309 108.106 74.3404 108.122C74.3499 108.138 74.3551 108.156 74.3555 108.174V109.579C74.3551 109.597 74.3499 109.615 74.3404 109.631C74.3309 109.647 74.3174 109.66 74.3012 109.67H74.251C74.2332 109.674 74.2146 109.674 74.1967 109.67L72.9436 108.965C72.9268 108.956 72.9129 108.942 72.9033 108.925C72.8938 108.908 72.8889 108.89 72.8893 108.87V107.47C72.8897 107.451 72.8949 107.433 72.9044 107.418C72.9139 107.402 72.9274 107.388 72.9436 107.379ZM73.1023 107.651V108.813L74.1257 109.394V108.236L73.1023 107.651Z" fill="white"/>
<path d="M62.125 101.188C62.1419 101.18 62.1605 101.176 62.1793 101.176C62.1981 101.176 62.2166 101.18 62.2336 101.188L63.4867 101.892C63.5029 101.901 63.5164 101.915 63.5259 101.93C63.5354 101.946 63.5406 101.964 63.541 101.983V103.387C63.5406 103.406 63.5354 103.424 63.5259 103.44C63.5164 103.456 63.5029 103.469 63.4867 103.478C63.4689 103.482 63.4503 103.482 63.4324 103.478C63.4159 103.482 63.3988 103.482 63.3823 103.478L62.1291 102.774C62.1137 102.763 62.101 102.749 62.0923 102.732C62.0836 102.716 62.079 102.698 62.079 102.679V101.278C62.0789 101.261 62.0829 101.243 62.0909 101.228C62.0989 101.212 62.1106 101.198 62.125 101.188ZM62.2837 101.46V102.621L63.3071 103.202V102.045L62.2837 101.46Z" fill="white"/>
<path d="M51.4097 95.3302C51.4252 95.3202 51.4434 95.3149 51.4619 95.3149C51.4804 95.3149 51.4986 95.3202 51.5141 95.3302L52.7673 96.0346C52.7827 96.0443 52.7954 96.0577 52.8041 96.0735C52.8129 96.0894 52.8174 96.1071 52.8174 96.1252V97.5258C52.8174 97.5438 52.8129 97.5616 52.8041 97.5774C52.7954 97.5933 52.7827 97.6067 52.7673 97.6164C52.7513 97.6272 52.7323 97.633 52.713 97.633C52.6936 97.633 52.6746 97.6272 52.6586 97.6164L51.4055 96.912C51.389 96.9031 51.3753 96.89 51.3657 96.874C51.3562 96.8581 51.3512 96.8399 51.3512 96.8214V95.4208C51.3516 95.4018 51.3572 95.3833 51.3675 95.3674C51.3778 95.3514 51.3924 95.3385 51.4097 95.3302ZM51.5684 95.602V96.7596L52.5918 97.3486V96.187L51.5684 95.602Z" fill="white"/>
<path d="M52.0793 76.0601L52.0752 77.0775L74.239 89.6086L74.2432 88.5912L52.0793 76.0601Z" fill="white"/>
<path d="M52.0832 74.1853L52.0791 75.1987L74.2471 87.7298V86.7164L52.0832 74.1853Z" fill="white"/>
<path d="M65.4775 79.5981L65.4733 80.6156L74.2536 85.6248L74.2578 84.6073L65.4775 79.5981Z" fill="white"/>
<path d="M108.908 88.5661L136.582 104.22C137.001 104.456 137.348 104.797 137.59 105.209C137.831 105.62 137.958 106.088 137.956 106.564L137.868 145.759C137.868 145.917 137.825 146.072 137.745 146.209C137.664 146.345 137.549 146.458 137.41 146.537C137.272 146.616 137.114 146.657 136.954 146.658C136.794 146.658 136.637 146.616 136.498 146.538L108.908 130.855C108.493 130.618 108.148 130.276 107.908 129.866C107.669 129.455 107.542 128.989 107.542 128.516V89.3447C107.542 89.187 107.584 89.032 107.664 88.8954C107.744 88.7587 107.859 88.6452 107.997 88.5663C108.136 88.4874 108.293 88.4458 108.453 88.4458C108.613 88.4458 108.77 88.4873 108.908 88.5661Z" fill="#453FB0"/>
<path d="M125.08 101.468L124.278 101.015C124.262 101.008 124.249 100.999 124.238 100.987C124.226 100.975 124.218 100.961 124.213 100.945C124.207 100.929 124.206 100.913 124.207 100.897C124.209 100.881 124.214 100.865 124.223 100.851C124.231 100.837 124.242 100.824 124.256 100.815C124.269 100.805 124.285 100.799 124.301 100.796C124.317 100.792 124.334 100.793 124.35 100.796C124.366 100.8 124.381 100.807 124.395 100.817L125.201 101.291C125.214 101.298 125.225 101.308 125.234 101.319C125.243 101.331 125.25 101.344 125.254 101.358C125.258 101.373 125.259 101.387 125.257 101.402C125.255 101.417 125.25 101.431 125.243 101.443C125.233 101.46 125.219 101.474 125.202 101.483C125.185 101.492 125.166 101.497 125.147 101.497C125.122 101.493 125.099 101.483 125.08 101.468Z" fill="white"/>
<path d="M129.089 103.75L128.287 103.297C128.26 103.282 128.241 103.258 128.234 103.229C128.226 103.201 128.23 103.17 128.245 103.144C128.26 103.119 128.284 103.1 128.313 103.092C128.342 103.085 128.373 103.088 128.399 103.103L129.201 103.556C129.227 103.572 129.245 103.596 129.253 103.624C129.261 103.653 129.257 103.683 129.243 103.709C129.233 103.726 129.219 103.741 129.201 103.751C129.183 103.761 129.163 103.767 129.143 103.766C129.123 103.767 129.104 103.761 129.089 103.75Z" fill="white"/>
<path d="M133.096 106.02L132.303 105.587C132.29 105.58 132.278 105.57 132.269 105.559C132.26 105.547 132.253 105.534 132.25 105.52C132.246 105.505 132.245 105.491 132.247 105.476C132.249 105.462 132.253 105.448 132.261 105.435C132.268 105.422 132.277 105.41 132.289 105.401C132.301 105.391 132.314 105.384 132.328 105.38C132.343 105.376 132.358 105.375 132.373 105.376C132.388 105.378 132.402 105.382 132.415 105.39L133.217 105.847C133.23 105.854 133.242 105.864 133.251 105.875C133.26 105.887 133.267 105.9 133.271 105.914C133.274 105.929 133.275 105.943 133.273 105.958C133.272 105.972 133.267 105.986 133.259 105.999C133.249 106.016 133.234 106.031 133.217 106.04C133.199 106.049 133.179 106.054 133.159 106.053C133.135 106.048 133.114 106.036 133.096 106.02Z" fill="white"/>
<path d="M131.089 104.887L130.287 104.43C130.274 104.423 130.262 104.413 130.253 104.401C130.244 104.39 130.238 104.376 130.234 104.362C130.23 104.348 130.229 104.333 130.231 104.319C130.233 104.304 130.237 104.29 130.245 104.277C130.261 104.252 130.287 104.234 130.316 104.226C130.346 104.219 130.377 104.222 130.404 104.236L131.202 104.689C131.224 104.701 131.242 104.72 131.253 104.743C131.263 104.766 131.266 104.791 131.259 104.816C131.253 104.84 131.238 104.862 131.218 104.877C131.198 104.892 131.173 104.9 131.147 104.9C131.127 104.899 131.107 104.895 131.089 104.887Z" fill="white"/>
<path d="M127.083 102.617L126.281 102.164C126.268 102.157 126.257 102.147 126.248 102.136C126.239 102.124 126.232 102.111 126.228 102.097C126.224 102.082 126.223 102.068 126.225 102.053C126.227 102.039 126.232 102.025 126.239 102.012C126.247 101.999 126.257 101.988 126.268 101.979C126.28 101.97 126.294 101.964 126.308 101.96C126.322 101.956 126.337 101.955 126.352 101.957C126.367 101.959 126.381 101.963 126.394 101.971L127.196 102.424C127.209 102.431 127.22 102.441 127.229 102.452C127.238 102.464 127.245 102.477 127.249 102.491C127.253 102.506 127.254 102.52 127.252 102.535C127.25 102.549 127.245 102.563 127.238 102.576C127.228 102.594 127.213 102.609 127.196 102.619C127.178 102.629 127.158 102.634 127.137 102.634C127.118 102.634 127.099 102.628 127.083 102.617Z" fill="white"/>
<path d="M115.063 95.8163L114.261 95.359C114.248 95.3518 114.237 95.342 114.228 95.3304C114.219 95.3188 114.212 95.3056 114.208 95.2914C114.204 95.2772 114.203 95.2624 114.205 95.2479C114.207 95.2333 114.212 95.2193 114.22 95.2066C114.235 95.1817 114.26 95.1635 114.289 95.1559C114.317 95.1482 114.348 95.1516 114.374 95.1654L115.176 95.6186C115.199 95.6301 115.217 95.6488 115.227 95.6718C115.238 95.6947 115.24 95.7205 115.234 95.7449C115.228 95.7693 115.213 95.7909 115.193 95.8061C115.172 95.8213 115.147 95.8292 115.122 95.8286C115.102 95.8289 115.082 95.8247 115.063 95.8163Z" fill="white"/>
<path d="M121.073 99.2143L120.271 98.7612C120.245 98.7464 120.226 98.7221 120.219 98.6935C120.211 98.6649 120.215 98.6344 120.23 98.6088C120.245 98.5831 120.269 98.5643 120.298 98.5566C120.327 98.5489 120.358 98.5528 120.384 98.5676L121.186 99.0207C121.199 99.028 121.21 99.0377 121.22 99.0493C121.229 99.0609 121.235 99.0742 121.239 99.0883C121.243 99.1025 121.244 99.1173 121.242 99.1318C121.24 99.1464 121.235 99.1604 121.228 99.1731C121.218 99.1908 121.204 99.2055 121.186 99.2156C121.168 99.2258 121.148 99.231 121.128 99.2308C121.108 99.2311 121.089 99.2253 121.073 99.2143Z" fill="white"/>
<path d="M117.066 96.9366L116.264 96.4835C116.237 96.468 116.218 96.4429 116.21 96.4136C116.203 96.3844 116.207 96.3532 116.222 96.3269C116.229 96.3142 116.239 96.303 116.251 96.294C116.263 96.285 116.276 96.2784 116.291 96.2746C116.305 96.2708 116.32 96.2698 116.335 96.2717C116.349 96.2736 116.364 96.2784 116.377 96.2857L117.179 96.7389C117.204 96.755 117.223 96.7801 117.23 96.8091C117.238 96.8381 117.235 96.8689 117.22 96.8954C117.21 96.912 117.195 96.9257 117.177 96.935C117.16 96.9444 117.14 96.9492 117.12 96.949C117.101 96.9488 117.083 96.9446 117.066 96.9366Z" fill="white"/>
<path d="M113.115 94.6959C113.096 94.7014 113.076 94.7014 113.057 94.6959L112.254 94.2428C112.242 94.2356 112.23 94.2258 112.221 94.2142C112.212 94.2026 112.205 94.1894 112.201 94.1752C112.198 94.161 112.197 94.1462 112.198 94.1317C112.2 94.1171 112.205 94.1031 112.213 94.0904C112.228 94.0644 112.254 94.0454 112.284 94.0377C112.313 94.03 112.345 94.0342 112.371 94.0492L113.169 94.5023C113.192 94.5139 113.21 94.5326 113.221 94.5556C113.231 94.5785 113.233 94.6043 113.227 94.6287C113.221 94.6531 113.206 94.6747 113.186 94.6899C113.165 94.7051 113.141 94.713 113.115 94.7124V94.6959Z" fill="white"/>
<path d="M119.066 98.082L118.264 97.6289C118.251 97.6213 118.24 97.6113 118.231 97.5995C118.222 97.5876 118.216 97.5741 118.212 97.5598C118.208 97.5454 118.208 97.5305 118.21 97.5159C118.212 97.5012 118.217 97.4872 118.225 97.4744C118.232 97.4617 118.242 97.4506 118.254 97.4418C118.266 97.4329 118.28 97.4265 118.295 97.4229C118.309 97.4193 118.324 97.4185 118.339 97.4206C118.354 97.4227 118.368 97.4277 118.381 97.4353L119.179 97.8884C119.202 97.9 119.22 97.9187 119.23 97.9417C119.241 97.9646 119.243 97.9904 119.237 98.0148C119.23 98.0392 119.216 98.0608 119.196 98.076C119.175 98.0912 119.15 98.0991 119.125 98.0985C119.104 98.0969 119.084 98.0913 119.066 98.082Z" fill="white"/>
<path d="M110.58 99.4538C110.585 99.4274 110.6 99.4036 110.621 99.3866C110.641 99.3695 110.668 99.3601 110.695 99.3601C110.722 99.3601 110.748 99.3695 110.769 99.3866C110.79 99.4036 110.804 99.4274 110.81 99.4538V100.344C110.804 100.37 110.79 100.394 110.769 100.411C110.748 100.428 110.722 100.437 110.695 100.437C110.668 100.437 110.641 100.428 110.621 100.411C110.6 100.394 110.585 100.37 110.58 100.344V99.4538Z" fill="white"/>
<path d="M110.58 97.2332C110.577 97.2165 110.577 97.1994 110.582 97.1829C110.586 97.1665 110.594 97.1511 110.605 97.138C110.616 97.1249 110.629 97.1144 110.645 97.1072C110.661 97.0999 110.678 97.0962 110.695 97.0962C110.712 97.0962 110.729 97.0999 110.744 97.1072C110.76 97.1144 110.774 97.1249 110.785 97.138C110.796 97.1511 110.804 97.1665 110.808 97.1829C110.812 97.1994 110.813 97.2165 110.809 97.2332V98.1189C110.813 98.1356 110.812 98.1528 110.808 98.1692C110.804 98.1857 110.796 98.201 110.785 98.2141C110.774 98.2272 110.76 98.2377 110.744 98.245C110.729 98.2522 110.712 98.2559 110.695 98.2559C110.678 98.2559 110.661 98.2522 110.645 98.245C110.629 98.2377 110.616 98.2272 110.605 98.2141C110.594 98.201 110.586 98.1857 110.582 98.1692C110.577 98.1528 110.577 98.1356 110.58 98.1189V97.2332Z" fill="white"/>
<path d="M110.58 101.678C110.577 101.661 110.577 101.644 110.582 101.628C110.586 101.611 110.594 101.596 110.605 101.583C110.616 101.57 110.629 101.559 110.645 101.552C110.661 101.545 110.678 101.541 110.695 101.541C110.712 101.541 110.729 101.545 110.744 101.552C110.76 101.559 110.774 101.57 110.785 101.583C110.796 101.596 110.804 101.611 110.808 101.628C110.812 101.644 110.813 101.661 110.809 101.678V102.564C110.813 102.58 110.812 102.598 110.808 102.614C110.804 102.63 110.796 102.646 110.785 102.659C110.774 102.672 110.76 102.683 110.744 102.69C110.729 102.697 110.712 102.701 110.695 102.701C110.678 102.701 110.661 102.697 110.645 102.69C110.629 102.683 110.616 102.672 110.605 102.659C110.594 102.646 110.586 102.63 110.582 102.614C110.577 102.598 110.577 102.58 110.58 102.564V101.678Z" fill="white"/>
<path d="M110.58 103.898C110.585 103.872 110.6 103.848 110.621 103.831C110.641 103.814 110.668 103.805 110.695 103.805C110.722 103.805 110.748 103.814 110.769 103.831C110.79 103.848 110.804 103.872 110.81 103.898V104.788C110.804 104.814 110.79 104.838 110.769 104.855C110.748 104.872 110.722 104.882 110.695 104.882C110.668 104.882 110.641 104.872 110.621 104.855C110.6 104.838 110.585 104.814 110.58 104.788V103.898Z" fill="white"/>
<path d="M110.58 106.123C110.577 106.106 110.577 106.089 110.582 106.072C110.586 106.056 110.594 106.041 110.605 106.027C110.616 106.014 110.629 106.004 110.645 105.997C110.661 105.989 110.678 105.986 110.695 105.986C110.712 105.986 110.729 105.989 110.744 105.997C110.76 106.004 110.774 106.014 110.785 106.027C110.796 106.041 110.804 106.056 110.808 106.072C110.812 106.089 110.813 106.106 110.809 106.123V107.012C110.804 107.039 110.79 107.063 110.769 107.08C110.748 107.097 110.722 107.106 110.695 107.106C110.668 107.106 110.641 107.097 110.62 107.08C110.599 107.063 110.585 107.039 110.58 107.012V106.123Z" fill="white"/>
<path d="M110.717 108.232C110.746 108.232 110.775 108.243 110.796 108.264C110.817 108.285 110.829 108.313 110.829 108.343V109.233C110.824 109.259 110.81 109.283 110.789 109.3C110.768 109.317 110.742 109.326 110.714 109.326C110.687 109.326 110.661 109.317 110.64 109.3C110.619 109.283 110.605 109.259 110.6 109.233V108.343C110.6 108.328 110.603 108.313 110.609 108.299C110.615 108.286 110.623 108.273 110.634 108.263C110.645 108.252 110.658 108.244 110.672 108.239C110.686 108.234 110.701 108.231 110.717 108.232Z" fill="white"/>
<path d="M110.58 95.0089C110.585 94.9826 110.6 94.9588 110.621 94.9417C110.641 94.9246 110.668 94.9153 110.695 94.9153C110.722 94.9153 110.748 94.9246 110.769 94.9417C110.79 94.9588 110.804 94.9826 110.81 95.0089V95.8987C110.804 95.9251 110.79 95.9488 110.769 95.9659C110.748 95.983 110.722 95.9923 110.695 95.9923C110.668 95.9923 110.641 95.983 110.621 95.9659C110.6 95.9488 110.585 95.9251 110.58 95.8987V95.0089Z" fill="white"/>
<path d="M120.353 116.368L121.151 116.821C121.177 116.837 121.195 116.862 121.203 116.891C121.211 116.92 121.207 116.951 121.193 116.977C121.182 116.994 121.167 117.008 121.15 117.017C121.132 117.026 121.113 117.031 121.093 117.031C121.075 117.035 121.056 117.035 121.038 117.031L120.236 116.574C120.223 116.566 120.212 116.557 120.203 116.545C120.194 116.534 120.187 116.52 120.183 116.506C120.179 116.492 120.178 116.477 120.18 116.463C120.182 116.448 120.187 116.434 120.195 116.421C120.201 116.407 120.211 116.395 120.222 116.385C120.234 116.374 120.248 116.366 120.263 116.361C120.277 116.356 120.293 116.354 120.309 116.356C120.324 116.357 120.339 116.361 120.353 116.368Z" fill="white"/>
<path d="M132.334 123.181L133.132 123.634C133.155 123.646 133.173 123.664 133.183 123.687C133.194 123.71 133.196 123.736 133.19 123.761C133.184 123.785 133.169 123.806 133.149 123.822C133.128 123.837 133.103 123.845 133.078 123.844C133.059 123.848 133.039 123.848 133.019 123.844L132.222 123.387C132.209 123.38 132.197 123.37 132.188 123.358C132.179 123.347 132.172 123.334 132.169 123.319C132.165 123.305 132.164 123.29 132.166 123.276C132.167 123.261 132.172 123.247 132.18 123.235C132.186 123.221 132.195 123.208 132.206 123.198C132.218 123.188 132.231 123.18 132.245 123.175C132.26 123.17 132.275 123.168 132.291 123.169C132.306 123.17 132.321 123.174 132.334 123.181Z" fill="white"/>
<path d="M130.337 122.065L131.134 122.522C131.147 122.53 131.159 122.539 131.168 122.551C131.177 122.562 131.184 122.576 131.187 122.59C131.191 122.604 131.192 122.619 131.19 122.633C131.189 122.648 131.184 122.662 131.176 122.675C131.166 122.692 131.152 122.707 131.134 122.717C131.117 122.727 131.096 122.733 131.076 122.732C131.058 122.736 131.04 122.736 131.022 122.732L130.224 122.279C130.197 122.264 130.178 122.239 130.17 122.209C130.163 122.18 130.167 122.149 130.182 122.123C130.188 122.109 130.197 122.096 130.208 122.085C130.219 122.074 130.232 122.066 130.247 122.061C130.261 122.055 130.277 122.053 130.292 122.054C130.308 122.054 130.323 122.058 130.337 122.065Z" fill="white"/>
<path d="M114.364 112.961L115.175 113.414C115.2 113.43 115.219 113.455 115.226 113.484C115.234 113.513 115.231 113.544 115.216 113.571C115.206 113.587 115.191 113.601 115.173 113.61C115.156 113.62 115.136 113.625 115.116 113.624C115.098 113.628 115.08 113.628 115.062 113.624L114.26 113.167C114.247 113.16 114.236 113.15 114.226 113.138C114.217 113.127 114.211 113.114 114.207 113.099C114.203 113.085 114.202 113.07 114.204 113.056C114.206 113.041 114.211 113.027 114.218 113.015C114.232 112.99 114.255 112.971 114.281 112.962C114.308 112.952 114.337 112.952 114.364 112.961Z" fill="white"/>
<path d="M126.343 119.774L127.141 120.228C127.167 120.243 127.187 120.268 127.194 120.297C127.202 120.327 127.198 120.358 127.183 120.384C127.172 120.401 127.157 120.414 127.14 120.424C127.122 120.433 127.102 120.438 127.083 120.438C127.065 120.441 127.046 120.441 127.028 120.438L126.23 119.98C126.204 119.966 126.185 119.941 126.177 119.913C126.17 119.884 126.174 119.854 126.189 119.828C126.204 119.802 126.228 119.784 126.257 119.776C126.286 119.768 126.317 119.772 126.343 119.787V119.774Z" fill="white"/>
<path d="M116.361 114.098L117.158 114.551C117.184 114.566 117.202 114.591 117.21 114.619C117.218 114.647 117.214 114.678 117.2 114.703C117.19 114.721 117.176 114.736 117.158 114.746C117.14 114.756 117.12 114.761 117.1 114.761C117.082 114.767 117.063 114.767 117.046 114.761L116.244 114.308C116.231 114.3 116.219 114.29 116.21 114.279C116.201 114.267 116.195 114.253 116.191 114.239C116.188 114.225 116.187 114.21 116.189 114.195C116.191 114.18 116.196 114.166 116.204 114.154C116.212 114.141 116.222 114.13 116.234 114.121C116.246 114.112 116.259 114.106 116.274 114.102C116.289 114.098 116.304 114.098 116.318 114.1C116.333 114.102 116.348 114.107 116.361 114.114V114.098Z" fill="white"/>
<path d="M124.364 118.637L125.162 119.095C125.175 119.102 125.186 119.112 125.195 119.123C125.204 119.135 125.211 119.148 125.215 119.162C125.219 119.176 125.22 119.191 125.218 119.206C125.216 119.22 125.211 119.234 125.204 119.247C125.194 119.265 125.179 119.279 125.162 119.29C125.144 119.3 125.124 119.305 125.103 119.305C125.085 119.308 125.067 119.308 125.049 119.305L124.247 118.852C124.232 118.845 124.218 118.836 124.207 118.824C124.196 118.811 124.187 118.797 124.182 118.782C124.177 118.766 124.175 118.75 124.177 118.733C124.178 118.717 124.184 118.701 124.192 118.687C124.2 118.673 124.212 118.661 124.225 118.652C124.239 118.642 124.254 118.635 124.27 118.632C124.287 118.629 124.303 118.629 124.319 118.633C124.336 118.637 124.351 118.644 124.364 118.654V118.637Z" fill="white"/>
<path d="M112.367 111.824L113.165 112.281C113.178 112.288 113.189 112.298 113.198 112.31C113.207 112.321 113.214 112.335 113.218 112.349C113.222 112.363 113.223 112.378 113.221 112.392C113.219 112.407 113.214 112.421 113.206 112.434C113.197 112.451 113.182 112.466 113.164 112.476C113.147 112.486 113.127 112.491 113.106 112.491C113.087 112.494 113.067 112.494 113.048 112.491L112.25 112.038C112.235 112.032 112.221 112.022 112.21 112.01C112.199 111.998 112.19 111.984 112.185 111.968C112.18 111.953 112.178 111.936 112.18 111.92C112.181 111.904 112.187 111.888 112.195 111.874C112.203 111.86 112.215 111.848 112.228 111.838C112.242 111.829 112.257 111.822 112.273 111.819C112.289 111.816 112.306 111.816 112.322 111.82C112.339 111.823 112.354 111.83 112.367 111.84V111.824Z" fill="white"/>
<path d="M118.357 115.231L119.155 115.688C119.168 115.695 119.179 115.705 119.188 115.716C119.197 115.728 119.204 115.741 119.208 115.755C119.212 115.77 119.213 115.784 119.211 115.799C119.209 115.814 119.204 115.828 119.197 115.84C119.187 115.858 119.172 115.873 119.155 115.883C119.137 115.893 119.117 115.898 119.096 115.898C119.079 115.901 119.06 115.901 119.042 115.898L118.24 115.445C118.225 115.438 118.211 115.429 118.2 115.417C118.189 115.405 118.18 115.39 118.175 115.375C118.17 115.359 118.168 115.343 118.17 115.327C118.172 115.31 118.177 115.295 118.185 115.281C118.193 115.266 118.205 115.254 118.218 115.245C118.232 115.235 118.247 115.229 118.263 115.226C118.28 115.222 118.296 115.223 118.313 115.226C118.329 115.23 118.344 115.237 118.357 115.247V115.231Z" fill="white"/>
<path d="M128.341 120.911L129.139 121.364C129.162 121.376 129.18 121.395 129.191 121.418C129.201 121.442 129.203 121.468 129.196 121.493C129.189 121.517 129.174 121.539 129.153 121.554C129.132 121.569 129.106 121.576 129.08 121.574C129.062 121.58 129.044 121.58 129.026 121.574L128.228 121.121C128.202 121.106 128.183 121.082 128.175 121.054C128.167 121.025 128.171 120.994 128.186 120.969C128.201 120.943 128.226 120.924 128.255 120.917C128.284 120.909 128.315 120.913 128.341 120.928V120.911Z" fill="white"/>
<path d="M134.71 115.173C134.74 115.174 134.769 115.187 134.79 115.208C134.811 115.23 134.822 115.259 134.822 115.288V116.178C134.822 116.208 134.81 116.236 134.789 116.257C134.768 116.278 134.74 116.289 134.71 116.289C134.68 116.289 134.651 116.278 134.63 116.257C134.609 116.236 134.597 116.208 134.597 116.178V115.288C134.597 115.259 134.609 115.23 134.63 115.208C134.651 115.187 134.679 115.174 134.71 115.173Z" fill="white"/>
<path d="M134.703 117.402C134.733 117.402 134.761 117.414 134.782 117.434C134.804 117.455 134.815 117.484 134.815 117.513V118.403C134.815 118.432 134.804 118.461 134.782 118.482C134.761 118.502 134.733 118.514 134.703 118.514C134.673 118.514 134.644 118.502 134.623 118.482C134.602 118.461 134.59 118.432 134.59 118.403V117.534C134.587 117.517 134.588 117.501 134.592 117.485C134.596 117.469 134.604 117.454 134.615 117.441C134.626 117.429 134.639 117.419 134.654 117.412C134.67 117.405 134.686 117.402 134.703 117.402Z" fill="white"/>
<path d="M134.74 108.5C134.77 108.5 134.798 108.511 134.82 108.532C134.841 108.553 134.853 108.581 134.853 108.611V109.501C134.853 109.53 134.841 109.559 134.82 109.579C134.798 109.6 134.77 109.612 134.74 109.612C134.71 109.612 134.681 109.6 134.66 109.579C134.639 109.559 134.627 109.53 134.627 109.501V108.611C134.627 108.581 134.639 108.553 134.66 108.532C134.681 108.511 134.71 108.5 134.74 108.5Z" fill="white"/>
<path d="M134.682 121.851C134.713 121.852 134.741 121.864 134.762 121.886C134.783 121.907 134.795 121.936 134.795 121.966V122.856C134.795 122.885 134.783 122.913 134.762 122.934C134.741 122.955 134.712 122.967 134.682 122.967C134.667 122.967 134.652 122.964 134.638 122.958C134.624 122.952 134.612 122.944 134.601 122.933C134.591 122.922 134.582 122.909 134.577 122.895C134.572 122.881 134.569 122.867 134.57 122.852V121.962C134.571 121.932 134.584 121.904 134.605 121.883C134.627 121.862 134.656 121.851 134.687 121.851H134.682Z" fill="white"/>
<path d="M134.731 110.724C134.761 110.724 134.79 110.736 134.811 110.757C134.832 110.778 134.844 110.806 134.844 110.835V111.725C134.844 111.755 134.832 111.784 134.811 111.805C134.79 111.827 134.761 111.839 134.731 111.84C134.701 111.839 134.671 111.827 134.65 111.806C134.628 111.784 134.615 111.755 134.614 111.725V110.835C134.615 110.805 134.628 110.777 134.65 110.756C134.672 110.736 134.701 110.724 134.731 110.724Z" fill="white"/>
<path d="M134.719 112.949C134.75 112.95 134.779 112.962 134.801 112.984C134.822 113.005 134.835 113.034 134.836 113.064V113.954C134.835 113.984 134.822 114.012 134.8 114.033C134.779 114.054 134.749 114.065 134.719 114.065C134.689 114.064 134.66 114.051 134.639 114.03C134.618 114.008 134.607 113.98 134.607 113.95V113.06C134.607 113.045 134.609 113.031 134.615 113.017C134.621 113.004 134.629 112.992 134.64 112.981C134.65 112.971 134.662 112.963 134.676 112.957C134.69 112.952 134.704 112.949 134.719 112.949Z" fill="white"/>
<path d="M134.69 119.626C134.705 119.626 134.72 119.628 134.734 119.634C134.748 119.639 134.76 119.647 134.771 119.658C134.782 119.668 134.79 119.681 134.795 119.694C134.801 119.708 134.803 119.723 134.803 119.738V120.627C134.803 120.657 134.791 120.686 134.77 120.707C134.749 120.729 134.72 120.742 134.69 120.743C134.66 120.742 134.631 120.729 134.61 120.707C134.589 120.686 134.577 120.657 134.577 120.627V119.738C134.577 119.708 134.589 119.68 134.61 119.659C134.632 119.638 134.66 119.626 134.69 119.626Z" fill="white"/>
<path d="M133.617 105.727C133.634 105.717 133.653 105.712 133.673 105.712C133.693 105.712 133.713 105.717 133.73 105.727L135.054 106.481C135.072 106.491 135.087 106.505 135.097 106.523C135.107 106.54 135.113 106.56 135.112 106.58V108.079C135.112 108.099 135.106 108.119 135.096 108.136C135.086 108.153 135.071 108.168 135.054 108.178C135.037 108.189 135.017 108.195 134.997 108.195C134.977 108.195 134.958 108.189 134.941 108.178L133.613 107.424C133.596 107.414 133.582 107.399 133.573 107.382C133.563 107.365 133.558 107.345 133.558 107.326V105.822C133.559 105.803 133.565 105.784 133.575 105.767C133.585 105.75 133.6 105.737 133.617 105.727ZM133.784 106.02V107.256L134.883 107.882V106.646L133.784 106.02Z" fill="white"/>
<path d="M122.015 99.0952C122.032 99.085 122.052 99.0796 122.072 99.0796C122.092 99.0796 122.111 99.085 122.128 99.0952L123.452 99.849C123.47 99.8587 123.485 99.873 123.495 99.8904C123.506 99.9079 123.511 99.9277 123.511 99.9479V101.468C123.511 101.488 123.506 101.508 123.495 101.525C123.485 101.543 123.47 101.557 123.452 101.567C123.435 101.577 123.416 101.583 123.396 101.583C123.376 101.583 123.356 101.577 123.339 101.567L122.015 100.813C121.997 100.803 121.982 100.789 121.972 100.771C121.962 100.754 121.957 100.734 121.957 100.714V99.2146C121.952 99.1912 121.956 99.1669 121.966 99.1454C121.977 99.1238 121.994 99.1062 122.015 99.0952ZM122.182 99.3876V100.623L123.277 101.25V100.014L122.182 99.3876Z" fill="white"/>
<path d="M111.983 95.2891C111.965 95.2945 111.946 95.2945 111.928 95.2891C111.909 95.2951 111.889 95.2951 111.87 95.2891L110.546 94.5353C110.528 94.5255 110.513 94.5112 110.502 94.4938C110.492 94.4764 110.487 94.4565 110.487 94.4364V92.9369C110.487 92.9168 110.492 92.8969 110.502 92.8795C110.513 92.8621 110.528 92.8478 110.546 92.8381C110.563 92.8279 110.582 92.8225 110.602 92.8225C110.622 92.8225 110.641 92.8279 110.658 92.8381L111.983 93.5919C112 93.6016 112.015 93.616 112.026 93.6334C112.036 93.6508 112.041 93.6706 112.041 93.6908V95.1944C112.041 95.214 112.036 95.2334 112.026 95.2502C112.015 95.2669 112 95.2805 111.983 95.2891ZM110.729 93.1306V94.3664L111.824 94.9925V93.7567L110.729 93.1306Z" fill="white"/>
<path d="M133.617 123.058C133.634 123.047 133.653 123.042 133.673 123.042C133.693 123.042 133.713 123.047 133.73 123.058L135.054 123.811C135.072 123.821 135.087 123.835 135.097 123.853C135.107 123.87 135.113 123.89 135.112 123.91V125.41C135.112 125.43 135.106 125.449 135.096 125.467C135.086 125.484 135.071 125.498 135.054 125.509C135.037 125.519 135.017 125.525 134.997 125.525C134.977 125.525 134.958 125.519 134.941 125.509L133.613 124.755C133.596 124.744 133.582 124.73 133.573 124.712C133.563 124.695 133.558 124.676 133.558 124.656V123.152C133.559 123.133 133.565 123.114 133.575 123.097C133.585 123.081 133.6 123.067 133.617 123.058ZM133.784 123.35V124.586L134.883 125.212V123.976L133.784 123.35Z" fill="white"/>
<path d="M122.015 116.425C122.032 116.415 122.052 116.41 122.072 116.41C122.092 116.41 122.111 116.415 122.128 116.425L123.452 117.179C123.47 117.189 123.485 117.203 123.495 117.221C123.506 117.238 123.511 117.258 123.511 117.278V118.769C123.511 118.789 123.506 118.809 123.495 118.827C123.485 118.844 123.47 118.858 123.452 118.868C123.435 118.879 123.416 118.884 123.396 118.884C123.376 118.884 123.356 118.879 123.339 118.868L122.015 118.114C121.997 118.104 121.982 118.09 121.972 118.073C121.962 118.055 121.957 118.035 121.957 118.015V116.512C121.959 116.494 121.965 116.476 121.975 116.461C121.985 116.446 121.999 116.434 122.015 116.425ZM122.182 116.718V117.954L123.277 118.58V117.344L122.182 116.718Z" fill="white"/>
<path d="M110.55 110.147C110.567 110.137 110.587 110.132 110.607 110.132C110.627 110.132 110.646 110.137 110.663 110.147L111.987 110.901C112.005 110.911 112.02 110.925 112.031 110.943C112.041 110.96 112.046 110.98 112.046 111V112.504C112.045 112.523 112.04 112.542 112.029 112.559C112.019 112.575 112.005 112.589 111.987 112.598C111.97 112.604 111.951 112.604 111.933 112.598C111.914 112.604 111.894 112.604 111.875 112.598L110.55 111.845C110.533 111.835 110.518 111.821 110.507 111.803C110.497 111.786 110.492 111.766 110.492 111.746V110.246C110.492 110.226 110.497 110.206 110.507 110.189C110.518 110.171 110.533 110.157 110.55 110.147ZM110.718 110.44V111.676L111.812 112.298V111.062L110.718 110.44Z" fill="white"/>
<path d="M110.488 117.505L110.484 118.522L134.791 132.479L134.795 131.465L110.488 117.505Z" fill="white"/>
<path d="M110.492 115.63L110.488 116.639L134.799 130.6V129.587L110.492 115.63Z" fill="white"/>
<path d="M110.488 121.328L110.484 122.341L134.791 136.302L134.795 135.284L110.488 121.328Z" fill="white"/>
<path d="M110.492 119.449L110.488 120.462L134.799 134.423V133.41L110.492 119.449Z" fill="white"/>
<path d="M120.697 131.091L120.693 132.108L134.791 140.198L134.795 139.185L120.697 131.091Z" fill="white"/>
<path d="M110.492 123.35L110.488 124.359L134.799 138.32V137.306L110.492 123.35Z" fill="white"/>
<path d="M128.492 123.815L128.488 124.833L134.803 128.495L134.808 127.482L128.492 123.815Z" fill="white"/>
<path d="M103.12 128.709L80.6303 115.906C80.0763 115.59 79.6164 115.136 79.2967 114.59C78.9771 114.043 78.8089 113.423 78.8091 112.792V86.4775C78.8095 86.2409 78.8729 86.0086 78.993 85.8038C79.1131 85.599 79.2855 85.4289 79.4932 85.3105C79.7008 85.192 79.9363 85.1294 80.1762 85.1289C80.4161 85.1284 80.6519 85.19 80.86 85.3076L103.345 98.1105C103.9 98.4269 104.361 98.8815 104.681 99.4288C105.002 99.9762 105.171 100.597 105.171 101.229V127.539C105.17 127.776 105.107 128.008 104.987 128.213C104.867 128.418 104.694 128.588 104.487 128.706C104.279 128.825 104.044 128.887 103.804 128.888C103.564 128.888 103.328 128.827 103.12 128.709Z" fill="#453FB0"/>
<path d="M91.4612 117.319L91.457 118.337L102.748 124.742L102.752 123.729L91.4612 117.319Z" fill="white"/>
<path d="M80.5918 109.32V110.333L102.756 122.864L102.76 121.851L80.5918 109.32Z" fill="white"/>
<path d="M86.0468 110.16L86.0426 111.173L102.759 120.759L102.764 119.742L86.0468 110.16Z" fill="white"/>
<path d="M87.5137 103.247L84.0007 101.245L87.5053 107.223L87.5137 103.247Z" fill="#E0E0E0"/>
<path d="M84.0305 92.1787L84.0013 101.245L87.5142 103.247L87.5059 107.223L84.0013 101.245L87.5059 107.223L99.937 114.304L99.9746 101.258L84.0305 92.1787Z" fill="white"/>
<path d="M47.171 40.3533C47.171 39.3729 47.5261 38.7056 48.09 38.3513H48.1109C48.6915 38.03 49.4851 38.0794 50.3581 38.5779L138.88 88.8341C139.806 89.4282 140.576 90.2297 141.129 91.1732C141.681 92.1167 142 93.1755 142.059 94.2634V98.3334L47.1627 44.3162L47.171 40.3533Z" fill="#453FB0"/>
<path opacity="0.3" d="M47.171 40.3533C47.171 39.3729 47.5261 38.7056 48.09 38.3513H48.1109C48.6915 38.03 49.4851 38.0794 50.3581 38.5779L138.88 88.8341C139.806 89.4282 140.576 90.2297 141.129 91.1732C141.681 92.1167 142 93.1755 142.059 94.2634V98.3334L47.1627 44.3162L47.171 40.3533Z" fill="black"/>
<g opacity="0.5">
<path opacity="0.5" d="M137.856 91.6762C137.376 91.4043 136.983 91.6227 136.983 92.1664C136.999 92.4625 137.086 92.7506 137.236 93.0075C137.387 93.2644 137.596 93.4829 137.848 93.6453C138.328 93.9213 138.721 93.6988 138.721 93.1551C138.706 92.8587 138.619 92.57 138.469 92.3129C138.319 92.0558 138.109 91.8376 137.856 91.6762Z" fill="white"/>
<path opacity="0.5" d="M135.479 90.3454C135.003 90.0735 134.61 90.2918 134.61 90.8356C134.625 91.1321 134.711 91.4208 134.861 91.678C135.012 91.9351 135.222 92.1533 135.475 92.3144C135.955 92.5904 136.343 92.368 136.348 91.8242C136.331 91.5277 136.244 91.2392 136.093 90.9822C135.942 90.7253 135.731 90.5071 135.479 90.3454Z" fill="white"/>
<path opacity="0.5" d="M133.108 88.9738C132.627 88.7019 132.239 88.9203 132.235 89.464C132.251 89.7606 132.339 90.0491 132.49 90.306C132.641 90.563 132.851 90.7812 133.104 90.9429C133.584 91.2147 133.972 90.9964 133.977 90.4527C133.96 90.1561 133.873 89.8676 133.722 89.6106C133.571 89.3537 133.36 89.1355 133.108 88.9738Z" fill="white"/>
</g>
<path d="M137.857 91.6762C137.377 91.4043 136.984 91.6227 136.984 92.1664C137 92.4625 137.087 92.7506 137.237 93.0075C137.388 93.2644 137.597 93.4829 137.849 93.6453C138.329 93.9213 138.722 93.6988 138.722 93.1551C138.707 92.8587 138.62 92.57 138.47 92.3129C138.32 92.0558 138.11 91.8376 137.857 91.6762Z" fill="#453FB0"/>
<path d="M135.48 90.3456C135.004 90.0738 134.611 90.2921 134.611 90.8358C134.626 91.1323 134.712 91.4211 134.862 91.6782C135.013 91.9354 135.223 92.1536 135.476 92.3147C135.956 92.5907 136.344 92.3682 136.349 91.8245C136.332 91.5279 136.245 91.2394 136.094 90.9825C135.943 90.7255 135.732 90.5073 135.48 90.3456Z" fill="#453FB0"/>
<path d="M133.109 88.9738C132.628 88.7019 132.24 88.9203 132.236 89.464C132.252 89.7606 132.34 90.0491 132.491 90.306C132.642 90.563 132.852 90.7812 133.105 90.9429C133.585 91.2147 133.973 90.9964 133.978 90.4527C133.961 90.1561 133.874 89.8676 133.723 89.6106C133.572 89.3537 133.361 89.1355 133.109 88.9738Z" fill="#453FB0"/>
<g opacity="0.3">
<path opacity="0.3" d="M47.1704 40.353C47.1704 39.3726 47.5254 38.7053 48.0893 38.351H48.1102C48.3362 38.2287 48.5878 38.1596 48.8454 38.1491C48.5878 38.1596 48.3362 38.2287 48.1102 38.351L51.4519 36.4437C52.0367 36.0771 52.8596 36.1101 53.7702 36.6291L142.296 86.8853C142.413 86.9512 142.526 87.0254 142.643 87.1037L142.747 87.1819C142.822 87.2355 142.902 87.2931 142.977 87.3549L143.094 87.4579C143.165 87.5156 143.232 87.5774 143.303 87.6433L143.411 87.7545C143.482 87.8204 143.549 87.8905 143.612 87.9605C143.674 88.0305 143.683 88.0388 143.716 88.0758C143.75 88.1129 143.846 88.2282 143.913 88.3065L144 88.4177C144.067 88.5042 144.13 88.5949 144.192 88.6814L144.263 88.7844C144.334 88.8832 144.397 88.9862 144.464 89.0933C144.478 89.1176 144.493 89.141 144.51 89.1633C144.585 89.2952 144.66 89.427 144.727 89.5753C144.769 89.6577 144.806 89.74 144.844 89.8224C144.865 89.8597 144.883 89.8982 144.898 89.9378C144.932 90.0119 144.965 90.0861 144.994 90.1602L145.057 90.3044L145.132 90.5145L145.187 90.6793L145.249 90.8729L145.299 91.0624C145.299 91.12 145.329 91.1818 145.341 91.2395C145.354 91.2972 145.37 91.3754 145.383 91.4455C145.395 91.5155 145.383 91.5526 145.412 91.6061C145.441 91.6597 145.412 91.7627 145.441 91.8409V91.9686C145.441 92.0867 145.441 92.2062 145.441 92.327L145.283 162.558C145.283 163.497 144.957 164.173 144.447 164.519C144.391 164.557 144.333 164.591 144.272 164.622L140.984 166.509L140.934 166.537H140.909C140.333 166.834 139.556 166.78 138.7 166.29L50.1779 116.034C49.2521 115.44 48.4817 114.638 47.9293 113.695C47.3769 112.751 47.0582 111.692 46.9991 110.605L47.1704 40.353Z" fill="white"/>
</g>
<path d="M151.6 153.248V151.724C151.58 151.394 151.483 151.072 151.314 150.786C151.146 150.5 150.912 150.257 150.631 150.076L122.577 134.101C122.476 134.028 122.356 133.985 122.231 133.976C122.106 133.968 121.981 133.994 121.871 134.052L120.923 134.728C120.923 134.728 121.541 135.107 121.541 135.14C121.541 135.172 121.566 135.14 121.604 135.14V137.31L150.681 153.813L151.6 153.248Z" fill="#453FB0"/>
<path opacity="0.3" d="M151.6 153.248V151.724C151.58 151.394 151.483 151.072 151.314 150.786C151.146 150.5 150.912 150.257 150.631 150.076L122.577 134.101C122.476 134.028 122.356 133.985 122.231 133.976C122.106 133.968 121.981 133.994 121.871 134.052L120.923 134.728C120.923 134.728 121.541 135.107 121.541 135.14C121.541 135.172 121.566 135.14 121.604 135.14V137.31L150.681 153.813L151.6 153.248Z" fill="white"/>
<path d="M150.681 153.813L121.612 137.261L121.554 156.927C121.572 157.257 121.669 157.578 121.837 157.864C122.004 158.151 122.238 158.394 122.518 158.575L150.133 174.303L149.879 174.616L150.342 175.266L151.286 174.595C151.375 174.525 151.445 174.435 151.49 174.332C151.535 174.229 151.554 174.117 151.545 174.006L151.6 153.248L150.681 153.813Z" fill="#37328D"/>
<path d="M149.706 150.719C149.987 150.899 150.222 151.142 150.391 151.428C150.559 151.715 150.656 152.036 150.675 152.367V153.808L120.683 136.73V135.288C120.683 134.682 121.101 134.439 121.652 134.744L149.706 150.719Z" fill="#453FB0"/>
<g opacity="0.1">
<path opacity="0.1" d="M149.706 150.719C149.987 150.899 150.222 151.142 150.391 151.428C150.559 151.715 150.656 152.036 150.675 152.367V153.808L120.683 136.73V135.288C120.683 134.682 121.101 134.439 121.652 134.744L149.706 150.719Z" fill="white"/>
</g>
<path d="M150.68 153.813L150.621 174.665C150.621 175.271 150.203 175.514 149.644 175.209L121.594 159.238C121.312 159.059 121.078 158.816 120.909 158.529C120.741 158.243 120.643 157.921 120.625 157.59L120.688 136.738L150.68 153.813Z" fill="#9593CC"/>
<path d="M149.113 170.335V171.209L140.784 166.467L140.788 165.594L149.113 170.335Z" fill="#453FB0"/>
<path d="M149.13 164.947L149.126 165.816L140.801 161.075L140.805 160.206L149.13 164.947Z" fill="#453FB0"/>
<path d="M149.13 161.244L149.126 162.113L143.307 158.797L143.311 157.928L149.13 161.244Z" fill="#453FB0"/>
<path d="M143.289 168.737L143.285 169.606L132.575 163.505V162.64L143.289 168.737Z" fill="#453FB0"/>
<path d="M143.266 165.005L143.261 165.874L129.878 158.258L129.882 157.384L143.266 165.005Z" fill="#453FB0"/>
<path d="M143.754 155.868L143.75 156.737L137.121 152.964L137.125 152.091L143.754 155.868Z" fill="#453FB0"/>
<path d="M143.253 159.394L143.249 160.263L126.916 150.962L126.92 150.093L143.253 159.394Z" fill="#453FB0"/>
<path d="M143.266 163.44L143.261 164.313L121.833 152.112L121.837 151.242L143.266 163.44Z" fill="#453FB0"/>
<path d="M143.779 154.307L143.775 155.18L122.351 142.979L122.355 142.11L143.779 154.307Z" fill="#453FB0"/>
<path d="M149.16 155.543L149.156 156.412L140.831 151.671V150.802L149.16 155.543Z" fill="#453FB0"/>
<g opacity="0.5">
<path opacity="0.5" d="M149.116 170.335V171.209L140.787 166.467L140.791 165.594L149.116 170.335Z" fill="white"/>
<path opacity="0.5" d="M149.133 164.947L149.129 165.816L140.804 161.075L140.808 160.206L149.133 164.947Z" fill="white"/>
<path opacity="0.5" d="M149.133 161.244L149.129 162.113L143.31 158.797L143.314 157.928L149.133 161.244Z" fill="white"/>
<path opacity="0.5" d="M143.292 168.737L143.288 169.606L132.578 163.506V162.641L143.292 168.737Z" fill="white"/>
<path opacity="0.5" d="M143.268 165.005L143.263 165.874L129.88 158.258L129.884 157.384L143.268 165.005Z" fill="white"/>
<path opacity="0.5" d="M143.756 155.868L143.752 156.737L137.123 152.964L137.127 152.091L143.756 155.868Z" fill="white"/>
<path opacity="0.5" d="M143.255 159.394L143.251 160.263L126.918 150.962L126.922 150.093L143.255 159.394Z" fill="white"/>
<path opacity="0.5" d="M143.268 163.439L143.263 164.313L121.835 152.111L121.839 151.242L143.268 163.439Z" fill="white"/>
<path opacity="0.5" d="M143.781 154.307L143.777 155.18L122.353 142.979L122.357 142.11L143.781 154.307Z" fill="white"/>
<path opacity="0.5" d="M149.161 155.543L149.157 156.412L140.832 151.67V150.801L149.161 155.543Z" fill="white"/>
</g>
<path d="M73.8217 141.953L73.8551 129.747C73.8399 129.464 73.7561 129.189 73.6108 128.945C73.4654 128.7 73.2627 128.494 73.0197 128.343L55.9436 118.605C55.8622 118.547 55.7672 118.511 55.6677 118.501C55.5682 118.49 55.4676 118.504 55.3755 118.543L56.4407 117.913C56.5333 117.873 56.6347 117.858 56.735 117.869C56.8353 117.88 56.931 117.916 57.0129 117.974L74.1099 127.712C74.3524 127.864 74.5548 128.071 74.7001 128.315C74.8454 128.559 74.9295 128.834 74.9453 129.117L74.9119 141.323C74.9203 141.423 74.9011 141.524 74.8563 141.615C74.8114 141.705 74.7426 141.782 74.6571 141.838L73.5919 142.468C73.6716 142.409 73.7346 142.33 73.7748 142.24C73.815 142.15 73.8311 142.051 73.8217 141.953Z" fill="#455A64"/>
<path d="M55.1153 119.07C55.107 118.979 55.1208 118.887 55.1557 118.803C55.1906 118.718 55.2455 118.643 55.3158 118.584L55.3408 118.559H55.3742C55.4664 118.521 55.567 118.506 55.6665 118.517C55.7659 118.528 55.8609 118.564 55.9423 118.621L73.0435 128.359C73.2865 128.51 73.4892 128.717 73.6346 128.961C73.78 129.206 73.8637 129.481 73.8789 129.764L73.8455 141.969C73.8552 142.069 73.8388 142.168 73.7978 142.259C73.7568 142.35 73.6927 142.429 73.6116 142.488C73.5171 142.536 73.4113 142.556 73.3058 142.547C73.2004 142.538 73.0994 142.501 73.0142 142.439L55.9131 132.701C55.6709 132.548 55.4689 132.34 55.3237 132.095C55.1785 131.851 55.0942 131.575 55.0777 131.292L55.1153 119.07Z" fill="#9593CC"/>
<path opacity="0.3" d="M73.8217 141.953L73.8551 129.747C73.8399 129.464 73.7561 129.189 73.6108 128.945C73.4654 128.7 73.2627 128.494 73.0197 128.343L55.9436 118.605C55.8622 118.547 55.7672 118.511 55.6677 118.501C55.5682 118.49 55.4676 118.504 55.3755 118.543L56.4407 117.913C56.5333 117.873 56.6347 117.858 56.735 117.869C56.8353 117.88 56.931 117.916 57.0129 117.974L74.1099 127.712C74.3524 127.864 74.5548 128.071 74.7001 128.315C74.8454 128.559 74.9295 128.834 74.9453 129.117L74.9119 141.323C74.9203 141.423 74.9011 141.524 74.8563 141.615C74.8114 141.705 74.7426 141.782 74.6571 141.838L73.5919 142.468C73.6716 142.409 73.7346 142.33 73.7748 142.24C73.815 142.15 73.8311 142.051 73.8217 141.953Z" fill="#37328D"/>
<path d="M66.394 129.715V130.638L69.8694 134.143L66.3857 133.682L66.3815 134.605L70.7842 135.14V134.184L66.394 129.715Z" fill="#F5F5F5"/>
<path d="M61.9362 124.149L65.1401 136.458L65.9922 136.948L62.7883 124.635L61.9362 124.149Z" fill="#F5F5F5"/>
<path d="M61.6318 127.004L57.2333 126.468L57.2291 127.424L61.6151 131.893L61.6193 130.971L58.1314 127.457L61.6277 127.927L61.6318 127.004Z" fill="#F5F5F5"/>
<path d="M59.4093 87.4827L55.1027 90.8235L55.0943 94.0901L69.4135 102.242L69.4219 98.9757L66.6942 93.6329L64.2422 95.5072L65.1111 98.1642L63.8538 95.8038L59.4093 87.4827Z" fill="white"/>
<path d="M64.1126 89.1098C63.4401 88.7267 62.8887 89.0357 62.8887 89.7978C62.9134 90.211 63.0363 90.6127 63.2474 90.9705C63.4586 91.3283 63.7521 91.6321 64.1042 91.8575C64.7767 92.2406 65.3281 91.9316 65.3281 91.1695C65.3034 90.7563 65.1805 90.3545 64.9694 89.9968C64.7582 89.639 64.4647 89.3352 64.1126 89.1098Z" fill="white"/>
<path d="M119.117 101.744L114.505 105.324L114.493 108.821L129.835 117.554L129.844 114.057L126.92 108.331L124.297 110.341L125.224 113.184L123.879 110.658L119.117 101.744Z" fill="white"/>
<path d="M124.156 103.527C123.433 103.115 122.848 103.445 122.844 104.265C122.869 104.71 122.999 105.144 123.226 105.531C123.452 105.917 123.768 106.246 124.147 106.489C124.87 106.901 125.455 106.572 125.459 105.752C125.436 105.306 125.306 104.871 125.079 104.485C124.853 104.098 124.536 103.77 124.156 103.527Z" fill="white"/>
<path d="M47.0862 135.357H47.126L47.0906 135.388L47.0862 135.357Z" fill="#455A64"/>
<path d="M101.809 188.497C102.064 189.024 102.874 189.515 103.76 189.659C104.655 189.736 105.556 189.679 106.433 189.49C107.756 189.309 109.096 189.276 110.427 189.391C111.251 189.496 112.081 189.554 112.912 189.564C113.749 189.571 114.567 189.316 115.247 188.835C115.715 188.469 116.027 187.945 116.124 187.364C116.161 187.741 116.1 188.121 115.947 188.467C115.793 188.814 115.552 189.116 115.247 189.346C114.567 189.828 113.749 190.084 112.912 190.079C112.081 190.067 111.251 190.008 110.427 189.902C109.096 189.786 107.756 189.82 106.433 190.005C105.544 190.124 104.583 190.376 103.697 190.231C102.812 190.087 102.001 189.601 101.747 189.074L101.809 188.497Z" fill="#263238"/>
<path d="M111.509 186.94C110.765 186.94 111.037 185.853 110.331 185.128C110.619 185.128 110.907 185.148 111.195 185.128C111.834 186.05 112.014 186.94 111.509 186.94Z" fill="white"/>
<path d="M109.964 186.882C109.212 186.882 109.408 185.589 108.673 184.823C108.84 184.88 109.011 184.93 109.183 184.971L109.625 185.049C110.281 185.972 110.473 186.882 109.964 186.882Z" fill="white"/>
<path d="M102.586 184.398C102.641 184.16 102.778 183.949 102.975 183.801L107.002 183.702C107.43 184.236 108.013 184.63 108.672 184.831C109.408 185.589 109.211 186.89 109.963 186.89C110.473 186.89 110.281 185.98 109.625 185.065C109.859 185.098 110.093 185.119 110.331 185.135C111.037 185.86 110.748 186.948 111.509 186.948C112.014 186.948 111.834 186.058 111.195 185.152H111.759C111.931 185.152 112.102 185.152 112.277 185.123C113.756 186.281 113.881 187.533 113.689 189.498C113.435 189.542 113.178 189.568 112.921 189.576C112.089 189.566 111.259 189.508 110.435 189.403C109.104 189.288 107.765 189.321 106.442 189.502C105.564 189.691 104.663 189.748 103.768 189.671C102.883 189.527 102.073 189.036 101.818 188.509L102.586 184.398Z" fill="#455A64"/>
<path d="M112.276 185.111C112.941 185.006 113.619 185.006 114.285 185.111C114.699 185.19 115.085 185.376 115.404 185.649C115.722 185.923 115.961 186.274 116.098 186.668C116.157 186.896 116.168 187.132 116.131 187.364C116.034 187.945 115.721 188.469 115.254 188.835C114.794 189.176 114.256 189.4 113.688 189.486C113.88 187.521 113.754 186.269 112.276 185.111Z" fill="white"/>
<path d="M107.113 182.574V184.485C107.113 184.693 107.03 184.893 106.881 185.04C106.732 185.187 106.531 185.271 106.32 185.272H104.29C103.952 185.272 103.627 185.144 103.384 184.913C103.14 184.683 102.996 184.369 102.982 184.036L102.932 182.586L107.113 182.574Z" fill="#995C5C"/>
<path d="M93.7011 181.721C93.8121 181.954 93.9831 182.155 94.1971 182.303C94.411 182.451 94.6605 182.542 94.9208 182.565C95.4632 182.605 96.0043 182.473 96.4664 182.191C97.164 181.754 97.4396 181.062 97.9158 180.444C98.4092 179.843 98.9697 179.298 99.5867 178.821C100.256 178.335 100.805 177.707 101.195 176.984C101.291 176.769 101.355 176.541 101.383 176.308C101.442 176.748 101.377 177.196 101.195 177.602C100.804 178.326 100.255 178.955 99.5867 179.443C98.9699 179.919 98.4095 180.462 97.9158 181.062C97.4396 181.684 97.164 182.372 96.4664 182.808C96.0043 183.091 95.4632 183.223 94.9208 183.183C94.66 183.161 94.4098 183.071 94.1956 182.923C93.9814 182.775 93.8108 182.573 93.7011 182.339C93.6178 181.991 93.5924 181.632 93.6259 181.276C93.6263 181.427 93.6517 181.578 93.7011 181.721Z" fill="#263238"/>
<path d="M98.2754 177.523C98.3467 177.616 98.3809 177.732 98.3715 177.849C98.3599 177.905 98.3338 177.957 98.2957 178C98.2577 178.043 98.209 178.076 98.1543 178.096C98.0747 178.116 97.9913 178.116 97.9117 178.096C97.8321 178.075 97.759 178.036 97.699 177.98C97.5824 177.869 97.4774 177.746 97.3857 177.614C97.1167 177.276 96.7582 177.018 96.3498 176.868C96.1514 176.794 95.9432 176.748 95.7316 176.732L96.2328 176.279C96.5504 176.297 96.862 176.372 97.1518 176.502C97.6237 176.72 98.0159 177.077 98.2754 177.523Z" fill="white"/>
<path d="M98.1674 175.946C98.6407 176.163 99.0335 176.52 99.2911 176.967C99.3623 177.061 99.3965 177.176 99.3872 177.293C99.3755 177.349 99.3494 177.401 99.3114 177.444C99.2733 177.488 99.2246 177.52 99.1699 177.54C99.0903 177.56 99.0069 177.56 98.9273 177.54C98.8477 177.52 98.7746 177.48 98.7146 177.425C98.597 177.312 98.4919 177.188 98.4013 177.054C98.1594 176.752 97.8455 176.514 97.4877 176.361C97.1298 176.208 96.7391 176.144 96.3504 176.176L96.8475 175.731C97.299 175.684 97.7552 175.758 98.1674 175.946Z" fill="white"/>
<path d="M97.1643 175.447C97.6229 175.009 98.1578 174.656 98.7433 174.405C99.0976 174.251 99.4884 174.197 99.872 174.249C100.256 174.302 100.617 174.458 100.915 174.701C101.119 174.912 101.268 175.168 101.351 175.448C101.435 175.727 101.45 176.022 101.396 176.308C101.368 176.541 101.304 176.769 101.208 176.983C101.077 177.264 100.909 177.526 100.707 177.762C100.514 176.052 99.0106 175.253 97.1643 175.447Z" fill="white"/>
<path d="M93.6574 180.044C93.6497 179.463 93.786 178.889 94.0542 178.372L95.0317 177.358L95.7292 176.732C95.9409 176.748 96.1491 176.794 96.3475 176.868C96.7558 177.018 97.1143 177.276 97.3834 177.614C97.4751 177.746 97.58 177.869 97.6967 177.98C97.7566 178.036 97.8298 178.075 97.9093 178.096C97.9889 178.116 98.0724 178.116 98.152 178.096C98.2067 178.076 98.2554 178.043 98.2934 178C98.3314 177.957 98.3575 177.905 98.3692 177.849C98.3786 177.732 98.3444 177.616 98.2731 177.523C98.0136 177.077 97.6213 176.72 97.1495 176.502C96.8596 176.372 96.5481 176.297 96.2305 176.279L96.3475 176.176C96.7362 176.144 97.1269 176.208 97.4848 176.361C97.8426 176.514 98.1565 176.752 98.3984 177.054C98.489 177.188 98.594 177.312 98.7117 177.424C98.7717 177.48 98.8448 177.519 98.9244 177.539C99.004 177.56 99.0874 177.56 99.167 177.54C99.2217 177.52 99.2704 177.487 99.3084 177.444C99.3465 177.401 99.3726 177.349 99.3842 177.292C99.3936 177.176 99.3594 177.06 99.2882 176.967C99.047 176.549 98.6873 176.209 98.2533 175.99C97.8192 175.77 97.3296 175.68 96.8445 175.731L97.1453 175.463C98.9916 175.27 100.487 176.069 100.688 177.779C100.353 178.165 99.9826 178.52 99.5806 178.837C98.9636 179.315 98.4031 179.859 97.9097 180.46C97.4335 181.078 97.1578 181.77 96.4602 182.207C95.9982 182.49 95.4571 182.621 94.9147 182.582C94.6544 182.558 94.4049 182.468 94.1909 182.319C93.977 182.171 93.806 181.971 93.695 181.737C93.6456 181.594 93.6202 181.444 93.6198 181.292C93.6107 180.876 93.6233 180.459 93.6574 180.044Z" fill="#455A64"/>
<path d="M97.1934 177.021L97.0764 179.08C95.7648 179.83 94.3822 179.422 93.9227 178.949L93.835 177.029L97.1934 177.021Z" fill="#995C5C"/>
<path d="M94.604 132.651C94.7185 132.432 94.7867 132.192 94.8045 131.947L94.9173 130.184L107.645 131.007C107.812 131.889 107.983 132.964 108.15 134.188C103.598 135.351 98.7695 134.804 94.604 132.651Z" fill="#995C5C"/>
<path d="M94.8545 125.545L92.1435 130.715L94.6039 134.78L91.8804 139.028L87.7701 132.733C87.4939 132.306 87.3136 131.825 87.2416 131.324C87.1695 130.822 87.2073 130.311 87.3524 129.825C88.0556 127.37 88.9493 124.972 90.0257 122.653L94.8545 125.545Z" fill="#995C5C"/>
<path d="M97.0088 115.564C93.8885 114.991 92.1048 116.017 89.4649 122.979C90.5301 125.36 95.1249 126.241 95.1249 126.241L97.0088 115.564Z" fill="#EBEBEB"/>
<path d="M102.852 116.383L106.257 117.043C107.009 118.402 107.777 119.679 108.529 121.038C109.097 122.06 109.682 123.147 109.636 124.313C109.602 124.933 109.393 125.531 109.033 126.041C108.672 126.55 108.176 126.95 107.598 127.197L107.99 131.782C102.639 133.396 96.1022 131.979 94.6653 130.756C94.2476 128.836 93.8717 126.793 93.4498 124.869C93.1334 123.629 92.9403 122.361 92.8733 121.084C92.8064 119.799 93.1183 118.523 93.7714 117.409L93.7923 117.376C94.2407 116.715 94.8738 116.195 95.615 115.881C96.3563 115.567 97.1741 115.471 97.9694 115.605L102.852 116.383Z" fill="white"/>
<path d="M94.4074 132.972C94.4846 132.873 94.5504 132.765 94.6037 132.651C98.7714 134.798 103.6 135.34 108.15 134.171C109.111 141.211 109.934 153.12 109.428 161.004C109.011 170.162 107.298 183.134 107.298 183.134C105.072 183.793 103.397 183.389 102.766 182.911C102.022 173.849 100.389 167.6 101.651 161.589C100.815 157.392 100.264 152.115 100.264 152.115L99.6204 161.396L97.44 177.708C96.8286 178.018 96.1452 178.164 95.4587 178.13C94.7722 178.096 94.107 177.884 93.5302 177.515C91.9429 168.184 91.3497 161.861 92.7365 157.235C90.6187 141.924 90.531 138.006 94.4074 132.972Z" fill="#455A64"/>
<path opacity="0.3" d="M99.329 150.282L98.1594 145.449C96.7976 145.227 94.6673 144.35 93.5645 142.504C95.1784 143.751 97.1622 144.441 99.212 144.469L100.265 152.135L100.039 155.402L99.9472 154.215C99.8469 152.89 99.6402 151.575 99.329 150.282Z" fill="black"/>
<path d="M128.191 110.851L124.762 119.593C124.541 120.154 124.177 120.649 123.705 121.031C123.233 121.413 122.669 121.668 122.068 121.772L116.22 122.781C115.579 122.107 115.132 121.276 114.925 120.375C114.707 119.366 114.796 118.316 115.18 117.356C116.954 117.333 118.722 117.141 120.459 116.783C120.459 116.783 124.165 112.342 125.71 110.052L124.607 106.448C124.557 106.285 124.541 106.115 124.56 105.946C124.58 105.777 124.634 105.614 124.72 105.467L125.313 104.454C125.464 104.191 125.708 103.991 125.998 103.894L126.855 103.609C127.047 103.545 127.252 103.519 127.455 103.534C127.658 103.548 127.856 103.604 128.037 103.696L129.34 104.367C129.422 104.41 129.49 104.474 129.537 104.553C129.584 104.631 129.608 104.721 129.607 104.812C129.605 104.902 129.579 104.989 129.531 105.065C129.483 105.141 129.416 105.203 129.336 105.245L128.847 105.492L128.175 106.621C128.637 107.231 128.888 107.972 128.891 108.733C128.894 109.495 128.648 110.237 128.191 110.851Z" fill="#995C5C"/>
<path d="M106.788 116.985C108.897 117.08 112.063 117.426 115.167 117.364C114.783 118.324 114.695 119.374 114.912 120.384C115.119 121.285 115.566 122.115 116.207 122.789L108.889 124.054C108.117 124.173 107.328 124.005 106.675 123.582C106.022 123.16 105.552 122.513 105.355 121.768C105.129 120.853 104.883 120.087 104.745 119.197C104.702 118.914 104.724 118.625 104.809 118.351C104.894 118.077 105.039 117.825 105.234 117.614C105.43 117.402 105.671 117.236 105.939 117.127C106.208 117.018 106.498 116.97 106.788 116.985Z" fill="#EBEBEB"/>
<path d="M107 107.354C107.507 106.403 107.738 105.332 107.669 104.26C107.627 103.726 107.455 103.21 107.169 102.755C106.882 102.299 106.489 101.919 106.023 101.644C105.546 101.388 104.995 101.299 104.46 101.392C103.925 101.485 103.437 101.754 103.078 102.155C102.212 101.688 101.234 101.46 100.247 101.496C99.2605 101.532 98.3021 101.83 97.4736 102.36C96.6451 102.889 95.9772 103.63 95.5409 104.503C95.1046 105.377 94.916 106.35 94.9951 107.321C95.0703 108.433 95.4838 109.525 95.3543 110.616C95.2833 111.267 95.0202 111.926 95.1956 112.561C95.2819 112.821 95.4212 113.062 95.6051 113.267C95.789 113.472 96.0136 113.639 96.2649 113.755C96.7578 114.007 97.9107 113.941 98.4538 114.052C100.125 115.543 102.213 114.983 103.525 113.64C104.836 112.297 107 107.354 107 107.354Z" fill="#37474F"/>
<path d="M107.344 108.833L108.384 110.612L107.248 111.024L107.344 108.833Z" fill="#804040"/>
<path d="M107.463 108.058C107.296 106.497 106.833 105.026 105.792 104.281C106.068 106.22 105.65 108.194 104.61 109.863C104.505 109.347 104.236 108.878 103.842 108.524C103.649 108.342 103.409 108.217 103.149 108.163C102.889 108.108 102.618 108.126 102.367 108.215C102.026 108.375 101.761 108.66 101.628 109.01C101.489 109.346 101.451 109.715 101.519 110.072C101.587 110.429 101.758 110.76 102.012 111.023C102.265 111.287 102.59 111.473 102.948 111.56C103.306 111.646 103.681 111.629 104.03 111.51C103.887 112.203 103.543 112.84 103.039 113.343C102.536 113.847 101.894 114.195 101.193 114.344C100.271 114.529 99.3146 114.439 98.4449 114.085L98.0272 116.19C99.7607 118.015 102.726 116.787 102.726 116.787L103.119 114.727C106.528 114.925 106.849 114.872 107.225 113.018C107.532 111.383 107.612 109.714 107.463 108.058Z" fill="#995C5C"/>
<path opacity="0.3" d="M99.9051 105.776C99.4254 104.419 98.46 103.281 97.19 102.575C96.4657 103.135 95.8884 103.859 95.5067 104.684C95.1251 105.51 94.9503 106.415 94.997 107.321C95.0722 108.433 95.4857 109.525 95.3562 110.616C95.2852 111.267 95.0221 111.926 95.1975 112.561C95.2838 112.821 95.4231 113.062 95.607 113.267C95.7909 113.472 96.0154 113.639 96.2668 113.755C96.7597 114.007 97.9126 113.941 98.4557 114.052C98.5267 114.118 98.5977 114.171 98.6729 114.229C99.251 113.144 99.7035 111.999 100.022 110.814C100.486 109.16 100.446 107.408 99.9051 105.776Z" fill="black"/>
<path d="M98.9597 104.61C98.6922 103.738 98.1498 102.972 97.4112 102.424C96.6726 101.877 95.7762 101.575 94.8521 101.564C93.928 101.552 93.0242 101.831 92.2718 102.361C91.5195 102.89 90.9577 103.642 90.6681 104.507C89.6405 107.581 92.2763 110.847 91.6998 114.031C91.491 115.181 90.8644 116.227 90.6639 117.372C90.541 118.036 90.5571 118.717 90.7112 119.374C90.8653 120.031 91.1541 120.65 91.5598 121.193C91.9656 121.736 92.4797 122.191 93.0706 122.531C93.6615 122.871 94.3166 123.088 94.9956 123.168C94.252 122.344 94.2395 121.108 94.6614 120.112C95.0833 119.115 95.8393 118.283 96.4868 117.401C99.1059 113.858 100.25 108.804 98.9597 104.61Z" fill="#37474F"/>
</g>
<defs>
<clipPath id="clip0">
<path d="M0 0H200C206.627 0 212 5.37258 212 12V208C212 214.627 206.627 220 200 220H0V0Z" fill="white"/>
</clipPath>
</defs>
</svg>
